SplineFontDB: 3.0
FontName: FjallaOne
FullName: FjallaOne
FamilyName: FjallaOne
Weight: Book
Copyright: Copyright (c) 2012, Sorkin Type Co (www.sorkintype.com)\nwith Reserved Font Name "Fjalla" and Fjalla "One"
Version: 1.000
ItalicAngle: 0
UnderlinePosition: -103
UnderlineWidth: 102
Ascent: 1638
Descent: 410
sfntRevision: 0x00010000
LayerCount: 2
Layer: 0 1 "Back"  1
Layer: 1 1 "Fore"  0
XUID: [1021 631 1661839179 12138462]
FSType: 0
OS2Version: 3
OS2_WeightWidthSlopeOnly: 0
OS2_UseTypoMetrics: 1
CreationTime: 1352527740
ModificationTime: 1353921299
PfmFamily: 17
TTFWeight: 400
TTFWidth: 5
LineGap: 0
VLineGap: 0
Panose: 2 0 5 6 4 0 0 2 0 4
OS2TypoAscent: 1810
OS2TypoAOffset: 0
OS2TypoDescent: -458
OS2TypoDOffset: 0
OS2TypoLinegap: 0
OS2WinAscent: 2066
OS2WinAOffset: 0
OS2WinDescent: 508
OS2WinDOffset: 0
HheadAscent: 2066
HheadAOffset: 0
HheadDescent: -508
HheadDOffset: 0
OS2SubXSize: 1434
OS2SubYSize: 1331
OS2SubXOff: 0
OS2SubYOff: 287
OS2SupXSize: 1434
OS2SupYSize: 1331
OS2SupXOff: 0
OS2SupYOff: 977
OS2StrikeYSize: 102
OS2StrikeYPos: 512
OS2Vendor: 'STC '
OS2CodePages: 00000001.00000000
OS2UnicodeRanges: 800000bf.4000004b.00000000.00000000
Lookup: 1 0 0 "'aalt' Access All Alternates in Latin lookup 0"  {"'aalt' Access All Alternates in Latin lookup 0 subtable"  } ['aalt' ('latn' <'MOL ' 'ROM ' 'TRK ' 'dflt' > ) ]
Lookup: 6 0 0 "'ordn' Ordinals in Latin lookup 1"  {"'ordn' Ordinals in Latin lookup 1 contextual 0"  "'ordn' Ordinals in Latin lookup 1 contextual 1"  "'ordn' Ordinals in Latin lookup 1 contextual 2"  "'ordn' Ordinals in Latin lookup 1 contextual 3"  } ['ordn' ('latn' <'dflt' > ) ]
Lookup: 1 0 0 "'sups' Superscript in Latin lookup 2"  {"'sups' Superscript in Latin lookup 2 subtable" ("superior" ) } ['sups' ('latn' <'dflt' > ) ]
Lookup: 4 0 1 "'liga' Standard Ligatures in Latin lookup 3"  {"'liga' Standard Ligatures in Latin lookup 3 subtable"  } ['liga' ('latn' <'dflt' > ) ]

StartChar: .notdef
Encoding: 65536 -1 0
Width: 1326
Flags: W
LayerCount: 2
Fore
SplineSet
105 1943 m 1,0,-1
 1221 1943 l 1,1,-1
 1221 0 l 1,2,-1
 105 0 l 1,3,-1
 105 1943 l 1,0,-1
520 399 m 1,4,-1
 607 602 l 1,5,-1
 663 760 l 1,6,-1
 718 602 l 1,7,-1
 805 399 l 1,8,-1
 1029 399 l 1,9,-1
 764 944 l 1,10,-1
 1029 1481 l 1,11,-1
 793 1481 l 1,12,-1
 708 1276 l 1,13,-1
 661 1138 l 1,14,-1
 616 1276 l 1,15,-1
 532 1481 l 1,16,-1
 296 1481 l 1,17,-1
 560 945 l 1,18,-1
 296 399 l 1,19,-1
 520 399 l 1,4,-1
EndSplineSet
EndChar

StartChar: A
Encoding: 65 65 4
Width: 967
Flags: W
LayerCount: 2
Fore
SplineSet
334 1708 m 1,0,-1
 632 1708 l 1,1,-1
 948 0 l 1,2,-1
 686 0 l 1,3,-1
 639 306 l 1,4,-1
 327 306 l 1,5,-1
 282 0 l 1,6,-1
 19 0 l 1,7,-1
 334 1708 l 1,0,-1
609 501 m 1,8,-1
 489 1352 l 1,9,-1
 478 1352 l 1,10,-1
 357 501 l 1,11,-1
 609 501 l 1,8,-1
EndSplineSet
EndChar

StartChar: D
Encoding: 68 68 5
Width: 1061
Flags: W
LayerCount: 2
Fore
SplineSet
146 1708 m 1,0,-1
 415 1708 l 2,1,2
 476 1708 476 1708 541.5 1704.5 c 128,-1,3
 607 1701 607 1701 669.5 1683 c 128,-1,4
 732 1665 732 1665 787.5 1627.5 c 128,-1,5
 843 1590 843 1590 885 1522.5 c 128,-1,6
 927 1455 927 1455 951.5 1352.5 c 128,-1,7
 976 1250 976 1250 976 1102 c 2,8,-1
 976 606 l 2,9,10
 976 458 976 458 951.5 355 c 128,-1,11
 927 252 927 252 885 185 c 128,-1,12
 843 118 843 118 787.5 80.5 c 128,-1,13
 732 43 732 43 669.5 25 c 128,-1,14
 607 7 607 7 541.5 3.5 c 128,-1,15
 476 0 476 0 415 0 c 2,16,-1
 146 0 l 1,17,-1
 146 1708 l 1,0,-1
471 181 m 2,18,19
 541 181 541 181 586.5 199 c 128,-1,20
 632 217 632 217 658.5 262.5 c 128,-1,21
 685 308 685 308 695 386.5 c 128,-1,22
 705 465 705 465 705 585 c 2,23,-1
 705 1115 l 2,24,25
 705 1235 705 1235 695 1313.5 c 128,-1,26
 685 1392 685 1392 658.5 1437.5 c 128,-1,27
 632 1483 632 1483 586.5 1501 c 128,-1,28
 541 1519 541 1519 471 1519 c 2,29,-1
 405 1519 l 1,30,-1
 405 181 l 1,31,-1
 471 181 l 2,18,19
EndSplineSet
EndChar

StartChar: H
Encoding: 72 72 6
Width: 1119
Flags: W
LayerCount: 2
Fore
SplineSet
146 1708 m 1,0,-1
 405 1708 l 1,1,-1
 405 993 l 1,2,-1
 712 993 l 1,3,-1
 712 1708 l 1,4,-1
 971 1708 l 1,5,-1
 971 0 l 1,6,-1
 712 0 l 1,7,-1
 712 789 l 1,8,-1
 405 789 l 1,9,-1
 405 0 l 1,10,-1
 146 0 l 1,11,-1
 146 1708 l 1,0,-1
EndSplineSet
EndChar

StartChar: E
Encoding: 69 69 7
Width: 830
Flags: W
LayerCount: 2
Fore
SplineSet
146 1708 m 1,0,-1
 779 1708 l 1,1,-1
 779 1504 l 1,2,-1
 405 1504 l 1,3,-1
 405 993 l 1,4,-1
 694 993 l 1,5,-1
 694 789 l 1,6,-1
 405 789 l 1,7,-1
 405 204 l 1,8,-1
 789 204 l 1,9,-1
 789 0 l 1,10,-1
 146 0 l 1,11,-1
 146 1708 l 1,0,-1
EndSplineSet
EndChar

StartChar: S
Encoding: 83 83 8
Width: 956
Flags: W
LayerCount: 2
Fore
SplineSet
80 346 m 0,0,1
 80 401 80 401 86.5 447.5 c 128,-1,2
 93 494 93 494 106 548 c 1,3,-1
 307 548 l 1,4,-1
 307 465 l 2,5,6
 307 396 307 396 315.5 343 c 128,-1,7
 324 290 324 290 343.5 253.5 c 128,-1,8
 363 217 363 217 395.5 198.5 c 128,-1,9
 428 180 428 180 475 180 c 0,10,11
 549 180 549 180 588 220.5 c 128,-1,12
 627 261 627 261 627 339 c 0,13,14
 627 379 627 379 621.5 412.5 c 128,-1,15
 616 446 616 446 602.5 479 c 128,-1,16
 589 512 589 512 566 548.5 c 128,-1,17
 543 585 543 585 507 630 c 1,18,-1
 237 951 l 1,19,20
 165 1043 165 1043 126 1136.5 c 128,-1,21
 87 1230 87 1230 87 1336 c 0,22,23
 87 1421 87 1421 113.5 1492 c 128,-1,24
 140 1563 140 1563 190 1614.5 c 128,-1,25
 240 1666 240 1666 313.5 1694.5 c 128,-1,26
 387 1723 387 1723 480 1723 c 0,27,28
 593 1723 593 1723 668.5 1691 c 128,-1,29
 744 1659 744 1659 789 1607 c 128,-1,30
 834 1555 834 1555 852.5 1490.5 c 128,-1,31
 871 1426 871 1426 871 1361 c 0,32,33
 871 1306 871 1306 862.5 1259.5 c 128,-1,34
 854 1213 854 1213 843 1157 c 1,35,-1
 643 1157 l 1,36,-1
 643 1238 l 2,37,38
 643 1374 643 1374 604 1446.5 c 128,-1,39
 565 1519 565 1519 477 1519 c 0,40,41
 404 1519 404 1519 368 1478.5 c 128,-1,42
 332 1438 332 1438 332 1370 c 0,43,44
 332 1334 332 1334 337.5 1305 c 128,-1,45
 343 1276 343 1276 353.5 1251.5 c 128,-1,46
 364 1227 364 1227 379 1204 c 128,-1,47
 394 1181 394 1181 413 1156 c 1,48,-1
 714 792 l 1,49,50
 796 685 796 685 840 586.5 c 128,-1,51
 884 488 884 488 884 378 c 0,52,53
 884 287 884 287 855.5 214 c 128,-1,54
 827 141 827 141 774 90 c 128,-1,55
 721 39 721 39 646 11.5 c 128,-1,56
 571 -16 571 -16 477 -16 c 0,57,58
 361 -16 361 -16 284.5 15 c 128,-1,59
 208 46 208 46 162.5 97 c 128,-1,60
 117 148 117 148 98.5 213 c 128,-1,61
 80 278 80 278 80 346 c 0,0,1
EndSplineSet
EndChar

StartChar: I
Encoding: 73 73 9
Width: 551
Flags: W
LayerCount: 2
Fore
SplineSet
146 1708 m 1,0,-1
 405 1708 l 1,1,-1
 405 0 l 1,2,-1
 146 0 l 1,3,-1
 146 1708 l 1,0,-1
EndSplineSet
EndChar

StartChar: O
Encoding: 79 79 10
Width: 1044
Flags: W
LayerCount: 2
Fore
SplineSet
524 -15 m 0,0,1
 483 -15 483 -15 435 -8.5 c 128,-1,2
 387 -2 387 -2 340 19 c 128,-1,3
 293 40 293 40 249.5 78.5 c 128,-1,4
 206 117 206 117 172.5 180 c 128,-1,5
 139 243 139 243 119 335.5 c 128,-1,6
 99 428 99 428 99 556 c 2,7,-1
 99 1161 l 2,8,9
 99 1290 99 1290 119.5 1381.5 c 128,-1,10
 140 1473 140 1473 174 1535.5 c 128,-1,11
 208 1598 208 1598 251.5 1635 c 128,-1,12
 295 1672 295 1672 342.5 1691.5 c 128,-1,13
 390 1711 390 1711 437 1717 c 128,-1,14
 484 1723 484 1723 524 1723 c 0,15,16
 562 1723 562 1723 608.5 1717.5 c 128,-1,17
 655 1712 655 1712 701.5 1693.5 c 128,-1,18
 748 1675 748 1675 792 1638.5 c 128,-1,19
 836 1602 836 1602 870 1539.5 c 128,-1,20
 904 1477 904 1477 924.5 1384.5 c 128,-1,21
 945 1292 945 1292 945 1161 c 2,22,-1
 945 556 l 2,23,24
 945 429 945 429 924 337.5 c 128,-1,25
 903 246 903 246 869 182.5 c 128,-1,26
 835 119 835 119 790.5 80.5 c 128,-1,27
 746 42 746 42 699.5 20.5 c 128,-1,28
 653 -1 653 -1 607 -8 c 128,-1,29
 561 -15 561 -15 524 -15 c 0,0,1
524 180 m 0,30,31
 562 180 562 180 590.5 193 c 128,-1,32
 619 206 619 206 637.5 238 c 128,-1,33
 656 270 656 270 665.5 322.5 c 128,-1,34
 675 375 675 375 675 455 c 2,35,-1
 675 1232 l 2,36,37
 675 1314 675 1314 665.5 1369 c 128,-1,38
 656 1424 656 1424 637.5 1457.5 c 128,-1,39
 619 1491 619 1491 590.5 1505 c 128,-1,40
 562 1519 562 1519 524 1519 c 0,41,42
 485 1519 485 1519 456 1505 c 128,-1,43
 427 1491 427 1491 408 1457.5 c 128,-1,44
 389 1424 389 1424 379.5 1369 c 128,-1,45
 370 1314 370 1314 370 1232 c 2,46,-1
 370 455 l 2,47,48
 370 375 370 375 379.5 322.5 c 128,-1,49
 389 270 389 270 408 238 c 128,-1,50
 427 206 427 206 456 193 c 128,-1,51
 485 180 485 180 524 180 c 0,30,31
EndSplineSet
EndChar

StartChar: N
Encoding: 78 78 11
Width: 1127
Flags: W
LayerCount: 2
Fore
SplineSet
146 1708 m 1,0,-1
 356 1708 l 1,1,-1
 770 565 l 1,2,-1
 776 565 l 1,3,4
 773 605 773 605 768 654 c 128,-1,5
 763 703 763 703 759 765.5 c 128,-1,6
 755 828 755 828 752 907 c 128,-1,7
 749 986 749 986 749 1085 c 2,8,-1
 749 1708 l 1,9,-1
 981 1708 l 1,10,-1
 981 0 l 1,11,-1
 769 0 l 1,12,-1
 357 1113 l 1,13,-1
 349 1113 l 1,14,15
 352 1068 352 1068 357 1015.5 c 128,-1,16
 362 963 362 963 366 892 c 128,-1,17
 370 821 370 821 373 726.5 c 128,-1,18
 376 632 376 632 376 502 c 2,19,-1
 376 0 l 1,20,-1
 146 0 l 1,21,-1
 146 1708 l 1,0,-1
EndSplineSet
EndChar

StartChar: o
Encoding: 111 111 12
Width: 950
Flags: W
LayerCount: 2
Fore
SplineSet
477 -15 m 0,0,1
 433 -15 433 -15 387.5 -8 c 128,-1,2
 342 -1 342 -1 299.5 21 c 128,-1,3
 257 43 257 43 219.5 84 c 128,-1,4
 182 125 182 125 154 192 c 128,-1,5
 126 259 126 259 110 357 c 128,-1,6
 94 455 94 455 94 591 c 2,7,-1
 94 807 l 2,8,9
 94 941 94 941 110.5 1036.5 c 128,-1,10
 127 1132 127 1132 155.5 1197 c 128,-1,11
 184 1262 184 1262 222 1300.5 c 128,-1,12
 260 1339 260 1339 302.5 1359.5 c 128,-1,13
 345 1380 345 1380 390 1386.5 c 128,-1,14
 435 1393 435 1393 478 1393 c 0,15,16
 519 1393 519 1393 563 1387 c 128,-1,17
 607 1381 607 1381 649 1361.5 c 128,-1,18
 691 1342 691 1342 728.5 1303.5 c 128,-1,19
 766 1265 766 1265 794.5 1200 c 128,-1,20
 823 1135 823 1135 839.5 1038.5 c 128,-1,21
 856 942 856 942 856 807 c 2,22,-1
 856 591 l 2,23,24
 856 457 856 457 839 360 c 128,-1,25
 822 263 822 263 793 196 c 128,-1,26
 764 129 764 129 726 87.5 c 128,-1,27
 688 46 688 46 646 23 c 128,-1,28
 604 0 604 0 560.5 -7.5 c 128,-1,29
 517 -15 517 -15 477 -15 c 0,0,1
479 180 m 0,30,31
 513 180 513 180 536.5 197.5 c 128,-1,32
 560 215 560 215 574.5 255 c 128,-1,33
 589 295 589 295 595.5 360.5 c 128,-1,34
 602 426 602 426 602 523 c 2,35,-1
 602 862 l 2,36,37
 602 959 602 959 595.5 1025 c 128,-1,38
 589 1091 589 1091 574.5 1131.5 c 128,-1,39
 560 1172 560 1172 536.5 1190 c 128,-1,40
 513 1208 513 1208 479 1208 c 0,41,42
 443 1208 443 1208 418.5 1190 c 128,-1,43
 394 1172 394 1172 378 1131.5 c 128,-1,44
 362 1091 362 1091 355 1025 c 128,-1,45
 348 959 348 959 348 862 c 2,46,-1
 348 523 l 2,47,48
 348 426 348 426 355 360.5 c 128,-1,49
 362 295 362 295 378 255 c 128,-1,50
 394 215 394 215 418.5 197.5 c 128,-1,51
 443 180 443 180 479 180 c 0,30,31
EndSplineSet
Substitution2: "Single Substitution lookup 5 subtable" ordmasculine
Substitution2: "'aalt' Access All Alternates in Latin lookup 0 subtable" ordmasculine
EndChar

StartChar: d
Encoding: 100 100 13
Width: 988
Flags: W
LayerCount: 2
Fore
SplineSet
394 -16 m 0,0,1
 371 -16 371 -16 340 -11.5 c 128,-1,2
 309 -7 309 -7 276 9 c 128,-1,3
 243 25 243 25 211 57 c 128,-1,4
 179 89 179 89 154 144.5 c 128,-1,5
 129 200 129 200 113.5 282 c 128,-1,6
 98 364 98 364 98 481 c 2,7,-1
 98 918 l 2,8,9
 98 1034 98 1034 114.5 1114 c 128,-1,10
 131 1194 131 1194 158 1246.5 c 128,-1,11
 185 1299 185 1299 218.5 1328.5 c 128,-1,12
 252 1358 252 1358 285.5 1372 c 128,-1,13
 319 1386 319 1386 349.5 1389 c 128,-1,14
 380 1392 380 1392 400 1392 c 0,15,16
 437 1392 437 1392 470 1382 c 128,-1,17
 503 1372 503 1372 530 1355.5 c 128,-1,18
 557 1339 557 1339 578 1318.5 c 128,-1,19
 599 1298 599 1298 613 1277 c 1,20,-1
 614 1278 l 1,21,-1
 606 1452 l 1,22,-1
 606 1819 l 1,23,-1
 858 1819 l 1,24,-1
 858 0 l 1,25,-1
 661 0 l 1,26,-1
 639 128 l 1,27,28
 622 101 622 101 600 75 c 128,-1,29
 578 49 578 49 548 28.5 c 128,-1,30
 518 8 518 8 480 -4 c 128,-1,31
 442 -16 442 -16 394 -16 c 0,0,1
480 180 m 0,32,33
 505 180 505 180 524.5 188.5 c 128,-1,34
 544 197 544 197 559.5 210.5 c 128,-1,35
 575 224 575 224 586.5 242 c 128,-1,36
 598 260 598 260 606 279 c 1,37,-1
 606 1107 l 1,38,39
 587 1149 587 1149 555.5 1178.5 c 128,-1,40
 524 1208 524 1208 479 1208 c 0,41,42
 451 1208 451 1208 428 1198 c 128,-1,43
 405 1188 405 1188 388 1160.5 c 128,-1,44
 371 1133 371 1133 361.5 1084.5 c 128,-1,45
 352 1036 352 1036 352 959 c 2,46,-1
 352 431 l 2,47,48
 352 354 352 354 361.5 305 c 128,-1,49
 371 256 371 256 388 228.5 c 128,-1,50
 405 201 405 201 428.5 190.5 c 128,-1,51
 452 180 452 180 480 180 c 0,32,33
EndSplineSet
EndChar

StartChar: s
Encoding: 115 115 14
Width: 829
Flags: W
LayerCount: 2
Fore
SplineSet
76 288 m 0,0,1
 76 333 76 333 84.5 375 c 128,-1,2
 93 417 93 417 101 442 c 1,3,-1
 279 442 l 1,4,5
 279 367 279 367 286.5 316.5 c 128,-1,6
 294 266 294 266 311 236 c 128,-1,7
 328 206 328 206 356.5 193 c 128,-1,8
 385 180 385 180 426 180 c 0,9,10
 483 180 483 180 509 212 c 128,-1,11
 535 244 535 244 535 286 c 0,12,13
 535 308 535 308 529 328 c 128,-1,14
 523 348 523 348 512 368.5 c 128,-1,15
 501 389 501 389 485 410 c 128,-1,16
 469 431 469 431 449 456 c 2,17,-1
 264 674 l 1,18,19
 228 719 228 719 194.5 765.5 c 128,-1,20
 161 812 161 812 135.5 861.5 c 128,-1,21
 110 911 110 911 94.5 965 c 128,-1,22
 79 1019 79 1019 79 1079 c 0,23,24
 79 1159 79 1159 106.5 1218 c 128,-1,25
 134 1277 134 1277 180.5 1316 c 128,-1,26
 227 1355 227 1355 288 1374 c 128,-1,27
 349 1393 349 1393 417 1393 c 0,28,29
 492 1393 492 1393 552 1375 c 128,-1,30
 612 1357 612 1357 655 1321 c 128,-1,31
 698 1285 698 1285 721 1231.5 c 128,-1,32
 744 1178 744 1178 744 1107 c 0,33,34
 744 1059 744 1059 735.5 1014 c 128,-1,35
 727 969 727 969 719 937 c 1,36,-1
 544 937 l 1,37,38
 543 1005 543 1005 538 1056 c 128,-1,39
 533 1107 533 1107 519.5 1140.5 c 128,-1,40
 506 1174 506 1174 482.5 1191 c 128,-1,41
 459 1208 459 1208 421 1208 c 0,42,43
 388 1208 388 1208 366 1197.5 c 128,-1,44
 344 1187 344 1187 330.5 1170 c 128,-1,45
 317 1153 317 1153 311.5 1132 c 128,-1,46
 306 1111 306 1111 306 1089 c 0,47,48
 306 1041 306 1041 329 1000 c 128,-1,49
 352 959 352 959 390 911 c 1,50,-1
 592 674 l 2,51,52
 614 647 614 647 643 608.5 c 128,-1,53
 672 570 672 570 698 523.5 c 128,-1,54
 724 477 724 477 742 422 c 128,-1,55
 760 367 760 367 760 307 c 0,56,57
 760 234 760 234 737 174.5 c 128,-1,58
 714 115 714 115 669 73 c 128,-1,59
 624 31 624 31 558.5 8 c 128,-1,60
 493 -15 493 -15 409 -15 c 0,61,62
 340 -15 340 -15 279 0.5 c 128,-1,63
 218 16 218 16 173 51.5 c 128,-1,64
 128 87 128 87 102 145 c 128,-1,65
 76 203 76 203 76 288 c 0,0,1
EndSplineSet
EndChar

StartChar: e
Encoding: 101 101 15
Width: 922
Flags: W
LayerCount: 2
Fore
SplineSet
462 -15 m 0,0,1
 373 -15 373 -15 304.5 18 c 128,-1,2
 236 51 236 51 189 121 c 128,-1,3
 142 191 142 191 118 300.5 c 128,-1,4
 94 410 94 410 94 564 c 2,5,-1
 94 824 l 2,6,7
 94 955 94 955 113.5 1048.5 c 128,-1,8
 133 1142 133 1142 164.5 1205.5 c 128,-1,9
 196 1269 196 1269 237.5 1306 c 128,-1,10
 279 1343 279 1343 323 1362.5 c 128,-1,11
 367 1382 367 1382 410.5 1387.5 c 128,-1,12
 454 1393 454 1393 491 1393 c 0,13,14
 559 1393 559 1393 622 1372.5 c 128,-1,15
 685 1352 685 1352 733 1302.5 c 128,-1,16
 781 1253 781 1253 809.5 1170 c 128,-1,17
 838 1087 838 1087 838 963 c 0,18,19
 838 921 838 921 835.5 878 c 128,-1,20
 833 835 833 835 829 793.5 c 128,-1,21
 825 752 825 752 818.5 713 c 128,-1,22
 812 674 812 674 805 641 c 1,23,-1
 348 641 l 1,24,-1
 348 501 l 2,25,26
 348 411 348 411 355 349.5 c 128,-1,27
 362 288 362 288 378.5 250.5 c 128,-1,28
 395 213 395 213 423.5 196.5 c 128,-1,29
 452 180 452 180 495 180 c 0,30,31
 518 180 518 180 540 189.5 c 128,-1,32
 562 199 562 199 578.5 221 c 128,-1,33
 595 243 595 243 605 279.5 c 128,-1,34
 615 316 615 316 615 370 c 2,35,-1
 615 413 l 1,36,-1
 826 413 l 1,37,-1
 826 360 l 2,38,39
 826 164 826 164 732.5 74.5 c 128,-1,40
 639 -15 639 -15 462 -15 c 0,0,1
602 811 m 1,41,42
 603 822 603 822 604 840.5 c 128,-1,43
 605 859 605 859 605.5 879 c 128,-1,44
 606 899 606 899 606 918.5 c 128,-1,45
 606 938 606 938 606 952 c 0,46,47
 606 1088 606 1088 574 1148 c 128,-1,48
 542 1208 542 1208 479 1208 c 0,49,50
 446 1208 446 1208 421 1192.5 c 128,-1,51
 396 1177 396 1177 380 1140.5 c 128,-1,52
 364 1104 364 1104 356 1044 c 128,-1,53
 348 984 348 984 348 895 c 2,54,-1
 348 811 l 1,55,-1
 602 811 l 1,41,42
EndSplineSet
EndChar

StartChar: period
Encoding: 46 46 16
Width: 501
Flags: W
LayerCount: 2
Fore
SplineSet
91 179 m 0,0,1
 91 285 91 285 133 331 c 128,-1,2
 175 377 175 377 247 377 c 0,3,4
 322 377 322 377 363 328 c 128,-1,5
 404 279 404 279 404 179 c 0,6,7
 404 87 404 87 362.5 36.5 c 128,-1,8
 321 -14 321 -14 246 -14 c 0,9,10
 175 -14 175 -14 133 35 c 128,-1,11
 91 84 91 84 91 179 c 0,0,1
EndSplineSet
EndChar

StartChar: h
Encoding: 104 104 17
Width: 1022
Flags: W
LayerCount: 2
Fore
SplineSet
130 1819 m 1,0,-1
 383 1819 l 1,1,-1
 383 1495 l 1,2,-1
 370 1259 l 1,3,4
 398 1298 398 1298 430.5 1323.5 c 128,-1,5
 463 1349 463 1349 497.5 1364.5 c 128,-1,6
 532 1380 532 1380 567.5 1386.5 c 128,-1,7
 603 1393 603 1393 638 1393 c 0,8,9
 759 1393 759 1393 824.5 1308.5 c 128,-1,10
 890 1224 890 1224 890 1055 c 2,11,-1
 890 0 l 1,12,-1
 637 0 l 1,13,-1
 637 1046 l 2,14,15
 637 1137 637 1137 609 1172.5 c 128,-1,16
 581 1208 581 1208 527 1208 c 0,17,18
 489 1208 489 1208 450.5 1182.5 c 128,-1,19
 412 1157 412 1157 383 1112 c 1,20,-1
 383 0 l 1,21,-1
 130 0 l 1,22,-1
 130 1819 l 1,0,-1
EndSplineSet
EndChar

StartChar: exclam
Encoding: 33 33 18
Width: 690
Flags: W
LayerCount: 2
Fore
SplineSet
208 1813 m 1,0,-1
 481 1813 l 1,1,-1
 450 555 l 1,2,-1
 243 555 l 1,3,-1
 208 1813 l 1,0,-1
191 177 m 0,4,5
 191 282 191 282 233 327.5 c 128,-1,6
 275 373 275 373 347 373 c 0,7,8
 422 373 422 373 463 325 c 128,-1,9
 504 277 504 277 504 177 c 0,10,11
 504 86 504 86 462.5 36 c 128,-1,12
 421 -14 421 -14 346 -14 c 0,13,14
 275 -14 275 -14 233 34.5 c 128,-1,15
 191 83 191 83 191 177 c 0,4,5
EndSplineSet
EndChar

StartChar: q
Encoding: 113 113 19
Width: 988
Flags: W
LayerCount: 2
Fore
SplineSet
394 -15 m 0,0,1
 371 -15 371 -15 340 -10.5 c 128,-1,2
 309 -6 309 -6 276 10 c 128,-1,3
 243 26 243 26 211 58 c 128,-1,4
 179 90 179 90 154 145 c 128,-1,5
 129 200 129 200 113.5 282 c 128,-1,6
 98 364 98 364 98 481 c 2,7,-1
 98 898 l 2,8,9
 98 1015 98 1015 113.5 1097 c 128,-1,10
 129 1179 129 1179 153.5 1234 c 128,-1,11
 178 1289 178 1289 209.5 1320.5 c 128,-1,12
 241 1352 241 1352 272.5 1368 c 128,-1,13
 304 1384 304 1384 333.5 1388 c 128,-1,14
 363 1392 363 1392 384 1392 c 0,15,16
 433 1392 433 1392 472 1378 c 128,-1,17
 511 1364 511 1364 542 1341.5 c 128,-1,18
 573 1319 573 1319 596.5 1290.5 c 128,-1,19
 620 1262 620 1262 637 1234 c 1,20,-1
 661 1377 l 1,21,-1
 858 1377 l 1,22,-1
 858 -446 l 1,23,-1
 606 -446 l 1,24,-1
 606 -79 l 1,25,-1
 613 89 l 1,26,27
 579 46 579 46 526 15.5 c 128,-1,28
 473 -15 473 -15 394 -15 c 0,0,1
480 180 m 0,29,30
 505 180 505 180 524.5 188.5 c 128,-1,31
 544 197 544 197 559.5 210.5 c 128,-1,32
 575 224 575 224 586.5 242 c 128,-1,33
 598 260 598 260 606 279 c 1,34,-1
 606 1107 l 1,35,36
 587 1149 587 1149 555.5 1178.5 c 128,-1,37
 524 1208 524 1208 479 1208 c 0,38,39
 451 1208 451 1208 428 1197.5 c 128,-1,40
 405 1187 405 1187 388 1159.5 c 128,-1,41
 371 1132 371 1132 361.5 1083 c 128,-1,42
 352 1034 352 1034 352 957 c 2,43,-1
 352 431 l 2,44,45
 352 354 352 354 361.5 305 c 128,-1,46
 371 256 371 256 388 228.5 c 128,-1,47
 405 201 405 201 428.5 190.5 c 128,-1,48
 452 180 452 180 480 180 c 0,29,30
EndSplineSet
EndChar

StartChar: b
Encoding: 98 98 20
Width: 989
Flags: W
LayerCount: 2
Fore
SplineSet
130 1819 m 1,0,-1
 383 1819 l 1,1,-1
 383 1452 l 1,2,-1
 375 1270 l 1,3,-1
 376 1269 l 1,4,5
 393 1293 393 1293 415.5 1315 c 128,-1,6
 438 1337 438 1337 466.5 1354.5 c 128,-1,7
 495 1372 495 1372 529.5 1382 c 128,-1,8
 564 1392 564 1392 605 1392 c 0,9,10
 626 1392 626 1392 655.5 1388 c 128,-1,11
 685 1384 685 1384 716.5 1368 c 128,-1,12
 748 1352 748 1352 779.5 1320.5 c 128,-1,13
 811 1289 811 1289 835.5 1234 c 128,-1,14
 860 1179 860 1179 875.5 1097 c 128,-1,15
 891 1015 891 1015 891 898 c 2,16,-1
 891 481 l 2,17,18
 891 364 891 364 875.5 282 c 128,-1,19
 860 200 860 200 835 144.5 c 128,-1,20
 810 89 810 89 778 57 c 128,-1,21
 746 25 746 25 713 9 c 128,-1,22
 680 -7 680 -7 649 -11.5 c 128,-1,23
 618 -16 618 -16 595 -16 c 0,24,25
 547 -16 547 -16 508.5 -4 c 128,-1,26
 470 8 470 8 440.5 28.5 c 128,-1,27
 411 49 411 49 388.5 75 c 128,-1,28
 366 101 366 101 349 128 c 1,29,-1
 328 0 l 1,30,-1
 130 0 l 1,31,-1
 130 1819 l 1,0,-1
383 279 m 1,32,33
 391 260 391 260 402.5 242 c 128,-1,34
 414 224 414 224 429 210.5 c 128,-1,35
 444 197 444 197 464 188.5 c 128,-1,36
 484 180 484 180 509 180 c 0,37,38
 537 180 537 180 560 190.5 c 128,-1,39
 583 201 583 201 600 228.5 c 128,-1,40
 617 256 617 256 626.5 305 c 128,-1,41
 636 354 636 354 636 431 c 2,42,-1
 636 958 l 2,43,44
 636 1035 636 1035 626.5 1083.5 c 128,-1,45
 617 1132 617 1132 600.5 1160 c 128,-1,46
 584 1188 584 1188 561 1198 c 128,-1,47
 538 1208 538 1208 510 1208 c 0,48,49
 463 1208 463 1208 432.5 1180.5 c 128,-1,50
 402 1153 402 1153 383 1115 c 1,51,-1
 383 279 l 1,32,33
EndSplineSet
EndChar

StartChar: p
Encoding: 112 112 21
Width: 990
Flags: W
LayerCount: 2
Fore
SplineSet
383 -78 m 1,0,-1
 383 -445 l 1,1,-1
 130 -445 l 1,2,-1
 130 1377 l 1,3,-1
 328 1377 l 1,4,-1
 351 1232 l 1,5,6
 368 1260 368 1260 391.5 1289 c 128,-1,7
 415 1318 415 1318 446.5 1340.5 c 128,-1,8
 478 1363 478 1363 517.5 1377.5 c 128,-1,9
 557 1392 557 1392 606 1392 c 0,10,11
 627 1392 627 1392 656.5 1388 c 128,-1,12
 686 1384 686 1384 717.5 1368 c 128,-1,13
 749 1352 749 1352 780.5 1320.5 c 128,-1,14
 812 1289 812 1289 836.5 1234 c 128,-1,15
 861 1179 861 1179 876.5 1097 c 128,-1,16
 892 1015 892 1015 892 898 c 2,17,-1
 892 481 l 2,18,19
 892 364 892 364 876.5 282 c 128,-1,20
 861 200 861 200 836 145 c 128,-1,21
 811 90 811 90 779 58 c 128,-1,22
 747 26 747 26 714 10 c 128,-1,23
 681 -6 681 -6 650 -10.5 c 128,-1,24
 619 -15 619 -15 596 -15 c 0,25,26
 516 -15 516 -15 462.5 16 c 128,-1,27
 409 47 409 47 375 91 c 1,28,-1
 383 -78 l 1,0,-1
383 281 m 1,29,30
 391 261 391 261 402.5 243 c 128,-1,31
 414 225 414 225 429.5 211 c 128,-1,32
 445 197 445 197 464.5 188.5 c 128,-1,33
 484 180 484 180 510 180 c 0,34,35
 538 180 538 180 561 190.5 c 128,-1,36
 584 201 584 201 601 228.5 c 128,-1,37
 618 256 618 256 627.5 305 c 128,-1,38
 637 354 637 354 637 431 c 2,39,-1
 637 958 l 2,40,41
 637 1035 637 1035 627.5 1083.5 c 128,-1,42
 618 1132 618 1132 601.5 1160 c 128,-1,43
 585 1188 585 1188 562 1198 c 128,-1,44
 539 1208 539 1208 511 1208 c 0,45,46
 463 1208 463 1208 432.5 1179.5 c 128,-1,47
 402 1151 402 1151 383 1113 c 1,48,-1
 383 281 l 1,29,30
EndSplineSet
EndChar

StartChar: k
Encoding: 107 107 22
Width: 942
Flags: W
LayerCount: 2
Fore
SplineSet
134 1819 m 1,0,-1
 387 1819 l 1,1,-1
 387 772 l 1,2,-1
 395 772 l 1,3,-1
 671 1377 l 1,4,-1
 914 1377 l 1,5,-1
 608 747 l 1,6,-1
 943 0 l 1,7,-1
 685 0 l 1,8,-1
 395 683 l 1,9,-1
 387 683 l 1,10,-1
 387 0 l 1,11,-1
 134 0 l 1,12,-1
 134 1819 l 1,0,-1
EndSplineSet
EndChar

StartChar: m
Encoding: 109 109 23
Width: 1520
Flags: W
LayerCount: 2
Fore
SplineSet
130 1377 m 1,0,-1
 326 1377 l 1,1,-1
 348 1230 l 1,2,-1
 348 1229 l 1,3,4
 378 1276 378 1276 412 1307.5 c 128,-1,5
 446 1339 446 1339 482.5 1358 c 128,-1,6
 519 1377 519 1377 557.5 1385 c 128,-1,7
 596 1393 596 1393 634 1393 c 0,8,9
 715 1393 715 1393 771 1354 c 128,-1,10
 827 1315 827 1315 856 1237 c 1,11,12
 886 1282 886 1282 919.5 1312 c 128,-1,13
 953 1342 953 1342 989 1360 c 128,-1,14
 1025 1378 1025 1378 1062 1385.5 c 128,-1,15
 1099 1393 1099 1393 1137 1393 c 0,16,17
 1257 1393 1257 1393 1322.5 1308.5 c 128,-1,18
 1388 1224 1388 1224 1388 1055 c 2,19,-1
 1388 0 l 1,20,-1
 1135 0 l 1,21,-1
 1135 1046 l 2,22,23
 1135 1091 1135 1091 1128 1122 c 128,-1,24
 1121 1153 1121 1153 1107 1172 c 128,-1,25
 1093 1191 1093 1191 1071 1199.5 c 128,-1,26
 1049 1208 1049 1208 1018 1208 c 0,27,28
 983 1208 983 1208 948 1182.5 c 128,-1,29
 913 1157 913 1157 884 1112 c 1,30,31
 885 1103 885 1103 885 1094 c 128,-1,32
 885 1085 885 1085 885 1076 c 2,33,-1
 885 0 l 1,34,-1
 632 0 l 1,35,-1
 632 1046 l 2,36,37
 632 1091 632 1091 625 1122 c 128,-1,38
 618 1153 618 1153 604 1172 c 128,-1,39
 590 1191 590 1191 568 1199.5 c 128,-1,40
 546 1208 546 1208 515 1208 c 0,41,42
 481 1208 481 1208 446 1183 c 128,-1,43
 411 1158 411 1158 383 1114 c 1,44,-1
 383 0 l 1,45,-1
 130 0 l 1,46,-1
 130 1377 l 1,0,-1
EndSplineSet
EndChar

StartChar: u
Encoding: 117 117 24
Width: 1021
Flags: W
LayerCount: 2
Fore
SplineSet
132 1377 m 1,0,-1
 385 1377 l 1,1,-1
 385 342 l 2,2,3
 385 251 385 251 413 215.5 c 128,-1,4
 441 180 441 180 495 180 c 0,5,6
 533 180 533 180 569 201 c 128,-1,7
 605 222 605 222 634 261 c 1,8,-1
 634 1377 l 1,9,-1
 887 1377 l 1,10,-1
 887 0 l 1,11,-1
 694 0 l 1,12,-1
 669 147 l 1,13,-1
 668 147 l 1,14,15
 638 100 638 100 604.5 68.5 c 128,-1,16
 571 37 571 37 534.5 18.5 c 128,-1,17
 498 0 498 0 460 -8 c 128,-1,18
 422 -16 422 -16 384 -16 c 0,19,20
 263 -16 263 -16 197.5 68 c 128,-1,21
 132 152 132 152 132 322 c 2,22,-1
 132 1377 l 1,0,-1
EndSplineSet
EndChar

StartChar: w
Encoding: 119 119 25
Width: 1338
Flags: W
LayerCount: 2
Fore
SplineSet
35 1377 m 1,0,-1
 276 1377 l 1,1,-1
 375 631 l 1,2,-1
 399 352 l 1,3,-1
 407 352 l 1,4,-1
 437 631 l 1,5,-1
 569 1377 l 1,6,-1
 782 1377 l 1,7,-1
 918 631 l 1,8,-1
 955 352 l 1,9,-1
 963 352 l 1,10,-1
 980 631 l 1,11,-1
 1067 1377 l 1,12,-1
 1303 1377 l 1,13,-1
 1080 0 l 1,14,-1
 847 0 l 1,15,-1
 704 766 l 1,16,-1
 672 977 l 1,17,-1
 664 977 l 1,18,-1
 635 766 l 1,19,-1
 505 0 l 1,20,-1
 262 0 l 1,21,-1
 35 1377 l 1,0,-1
EndSplineSet
EndChar

StartChar: v
Encoding: 118 118 26
Width: 874
Flags: W
LayerCount: 2
Fore
SplineSet
16 1377 m 1,0,-1
 268 1377 l 1,1,-1
 401 645 l 1,2,-1
 434 352 l 1,3,-1
 442 352 l 1,4,-1
 480 645 l 1,5,-1
 612 1377 l 1,6,-1
 856 1377 l 1,7,-1
 542 0 l 1,8,-1
 326 0 l 1,9,-1
 16 1377 l 1,0,-1
EndSplineSet
EndChar

StartChar: z
Encoding: 122 122 27
Width: 703
Flags: W
LayerCount: 2
Fore
SplineSet
22 126 m 1,0,-1
 408 1185 l 1,1,-1
 55 1185 l 1,2,-1
 55 1377 l 1,3,-1
 679 1377 l 1,4,-1
 679 1251 l 1,5,-1
 292 192 l 1,6,-1
 681 192 l 1,7,-1
 681 0 l 1,8,-1
 22 0 l 1,9,-1
 22 126 l 1,0,-1
EndSplineSet
EndChar

StartChar: x
Encoding: 120 120 28
Width: 902
Flags: W
LayerCount: 2
Fore
SplineSet
311 699 m 1,0,-1
 39 1377 l 1,1,-1
 298 1377 l 1,2,-1
 445 926 l 1,3,-1
 447 926 l 1,4,-1
 603 1377 l 1,5,-1
 845 1377 l 1,6,-1
 584 723 l 1,7,-1
 877 0 l 1,8,-1
 618 0 l 1,9,-1
 448 475 l 1,10,-1
 440 475 l 1,11,-1
 268 0 l 1,12,-1
 25 0 l 1,13,-1
 311 699 l 1,0,-1
EndSplineSet
EndChar

StartChar: c
Encoding: 99 99 29
Width: 871
Flags: W
LayerCount: 2
Fore
SplineSet
451 -15 m 0,0,1
 277 -15 277 -15 185.5 128 c 128,-1,2
 94 271 94 271 94 564 c 2,3,-1
 94 824 l 2,4,5
 94 955 94 955 113 1048.5 c 128,-1,6
 132 1142 132 1142 163.5 1205.5 c 128,-1,7
 195 1269 195 1269 235.5 1306 c 128,-1,8
 276 1343 276 1343 319 1362.5 c 128,-1,9
 362 1382 362 1382 404 1387.5 c 128,-1,10
 446 1393 446 1393 481 1393 c 0,11,12
 551 1393 551 1393 609 1374.5 c 128,-1,13
 667 1356 667 1356 709 1318.5 c 128,-1,14
 751 1281 751 1281 774 1224 c 128,-1,15
 797 1167 797 1167 797 1090 c 0,16,17
 797 1042 797 1042 792.5 1007.5 c 128,-1,18
 788 973 788 973 780 941 c 1,19,-1
 578 941 l 1,20,-1
 578 987 l 2,21,22
 578 1091 578 1091 553.5 1149.5 c 128,-1,23
 529 1208 529 1208 473 1208 c 0,24,25
 442 1208 442 1208 419 1193.5 c 128,-1,26
 396 1179 396 1179 380.5 1144 c 128,-1,27
 365 1109 365 1109 357.5 1050 c 128,-1,28
 350 991 350 991 350 902 c 2,29,-1
 350 511 l 2,30,31
 350 421 350 421 356 358 c 128,-1,32
 362 295 362 295 377 255.5 c 128,-1,33
 392 216 392 216 417 198 c 128,-1,34
 442 180 442 180 479 180 c 0,35,36
 498 180 498 180 516 189.5 c 128,-1,37
 534 199 534 199 547.5 221 c 128,-1,38
 561 243 561 243 569.5 279.5 c 128,-1,39
 578 316 578 316 578 370 c 2,40,-1
 578 413 l 1,41,-1
 796 413 l 1,42,-1
 796 360 l 2,43,44
 796 164 796 164 709.5 74.5 c 128,-1,45
 623 -15 623 -15 451 -15 c 0,0,1
EndSplineSet
EndChar

StartChar: f
Encoding: 102 102 30
Width: 616
Flags: W
LayerCount: 2
Fore
SplineSet
164 1197 m 1,0,-1
 45 1197 l 1,1,-1
 45 1377 l 1,2,-1
 164 1377 l 1,3,-1
 164 1476 l 2,4,5
 164 1588 164 1588 187 1658.5 c 128,-1,6
 210 1729 210 1729 250.5 1768.5 c 128,-1,7
 291 1808 291 1808 345.5 1822 c 128,-1,8
 400 1836 400 1836 463 1836 c 0,9,10
 481 1836 481 1836 503.5 1834 c 128,-1,11
 526 1832 526 1832 548.5 1827.5 c 128,-1,12
 571 1823 571 1823 592.5 1817 c 128,-1,13
 614 1811 614 1811 631 1802 c 1,14,-1
 631 1624 l 1,15,16
 589 1635 589 1635 537 1635 c 0,17,18
 512 1635 512 1635 489.5 1627 c 128,-1,19
 467 1619 467 1619 450 1600.5 c 128,-1,20
 433 1582 433 1582 423 1551.5 c 128,-1,21
 413 1521 413 1521 413 1476 c 2,22,-1
 413 1377 l 1,23,-1
 604 1377 l 1,24,-1
 604 1197 l 1,25,-1
 413 1197 l 1,26,-1
 413 0 l 1,27,-1
 164 0 l 1,28,-1
 164 1197 l 1,0,-1
EndSplineSet
EndChar

StartChar: y
Encoding: 121 121 31
Width: 898
Flags: W
LayerCount: 2
Fore
SplineSet
78 -265 m 1,0,1
 135 -273 135 -273 183 -261.5 c 128,-1,2
 231 -250 231 -250 265.5 -218 c 128,-1,3
 300 -186 300 -186 320.5 -133.5 c 128,-1,4
 341 -81 341 -81 344 -8 c 1,5,-1
 18 1377 l 1,6,-1
 275 1377 l 1,7,-1
 420 615 l 1,8,-1
 462 352 l 1,9,-1
 470 352 l 1,10,-1
 499 615 l 1,11,-1
 616 1377 l 1,12,-1
 865 1377 l 1,13,-1
 575 -51 l 1,14,15
 556 -150 556 -150 526.5 -224 c 128,-1,16
 497 -298 497 -298 453.5 -347 c 128,-1,17
 410 -396 410 -396 350 -420.5 c 128,-1,18
 290 -445 290 -445 210 -445 c 0,19,20
 145 -445 145 -445 77 -420 c 1,21,-1
 78 -265 l 1,22,-1
 78 -265 l 1,0,1
EndSplineSet
EndChar

StartChar: t
Encoding: 116 116 32
Width: 675
Flags: W
LayerCount: 2
Fore
SplineSet
159 1197 m 1,0,-1
 52 1197 l 1,1,-1
 52 1377 l 1,2,-1
 181 1377 l 1,3,-1
 232 1734 l 1,4,-1
 412 1734 l 1,5,-1
 412 1377 l 1,6,-1
 632 1377 l 1,7,-1
 632 1197 l 1,8,-1
 412 1197 l 1,9,-1
 412 321 l 2,10,11
 412 276 412 276 420.5 248.5 c 128,-1,12
 429 221 429 221 444 205.5 c 128,-1,13
 459 190 459 190 479 185 c 128,-1,14
 499 180 499 180 521 180 c 0,15,16
 558 180 558 180 586.5 189 c 128,-1,17
 615 198 615 198 641 214 c 1,18,-1
 641 74 l 1,19,20
 619 47 619 47 593.5 30 c 128,-1,21
 568 13 568 13 541 2.5 c 128,-1,22
 514 -8 514 -8 486 -12 c 128,-1,23
 458 -16 458 -16 431 -16 c 0,24,25
 378 -16 378 -16 329 -2 c 128,-1,26
 280 12 280 12 242 51.5 c 128,-1,27
 204 91 204 91 181.5 161 c 128,-1,28
 159 231 159 231 159 343 c 2,29,-1
 159 1197 l 1,0,-1
EndSplineSet
EndChar

StartChar: T
Encoding: 84 84 34
Width: 866
Flags: W
LayerCount: 2
Fore
SplineSet
304 1504 m 1,0,-1
 29 1504 l 1,1,-1
 29 1708 l 1,2,-1
 837 1708 l 1,3,-1
 837 1504 l 1,4,-1
 563 1504 l 1,5,-1
 563 0 l 1,6,-1
 304 0 l 1,7,-1
 304 1504 l 1,0,-1
EndSplineSet
EndChar

StartChar: V
Encoding: 86 86 35
Width: 955
Flags: W
LayerCount: 2
Fore
SplineSet
19 1708 m 1,0,-1
 284 1708 l 1,1,-1
 472 355 l 1,2,-1
 483 355 l 1,3,-1
 672 1708 l 1,4,-1
 936 1708 l 1,5,-1
 625 0 l 1,6,-1
 329 0 l 1,7,-1
 19 1708 l 1,0,-1
EndSplineSet
EndChar

StartChar: Z
Encoding: 90 90 36
Width: 865
Flags: W
LayerCount: 2
Fore
SplineSet
39 137 m 1,0,-1
 545 1504 l 1,1,-1
 115 1504 l 1,2,-1
 115 1708 l 1,3,-1
 836 1708 l 1,4,-1
 836 1571 l 1,5,-1
 329 204 l 1,6,-1
 806 204 l 1,7,-1
 806 0 l 1,8,-1
 39 0 l 1,9,-1
 39 137 l 1,0,-1
EndSplineSet
EndChar

StartChar: X
Encoding: 88 88 37
Width: 939
Flags: W
LayerCount: 2
Fore
SplineSet
345 860 m 1,0,-1
 33 1708 l 1,1,-1
 310 1708 l 1,2,-1
 469 1162 l 1,3,-1
 479 1162 l 1,4,-1
 638 1708 l 1,5,-1
 906 1708 l 1,6,-1
 593 859 l 1,7,-1
 906 0 l 1,8,-1
 639 0 l 1,9,-1
 477 549 l 1,10,-1
 460 549 l 1,11,-1
 291 0 l 1,12,-1
 33 0 l 1,13,-1
 345 860 l 1,0,-1
EndSplineSet
EndChar

StartChar: L
Encoding: 76 76 38
Width: 776
Flags: W
LayerCount: 2
Fore
SplineSet
146 1708 m 1,0,-1
 405 1708 l 1,1,-1
 405 204 l 1,2,-1
 758 204 l 1,3,-1
 758 0 l 1,4,-1
 146 0 l 1,5,-1
 146 1708 l 1,0,-1
EndSplineSet
EndChar

StartChar: J
Encoding: 74 74 39
Width: 850
Flags: W
LayerCount: 2
Fore
SplineSet
351 -16 m 0,0,1
 255 -16 255 -16 190 14 c 128,-1,2
 125 44 125 44 85.5 95.5 c 128,-1,3
 46 147 46 147 29 216 c 128,-1,4
 12 285 12 285 12 362 c 0,5,6
 12 416 12 416 19 483.5 c 128,-1,7
 26 551 26 551 40 619 c 1,8,-1
 247 619 l 1,9,-1
 244 411 l 2,10,11
 244 345 244 345 250 300.5 c 128,-1,12
 256 256 256 256 268.5 229.5 c 128,-1,13
 281 203 281 203 300.5 191.5 c 128,-1,14
 320 180 320 180 348 180 c 0,15,16
 371 180 371 180 389.5 189 c 128,-1,17
 408 198 408 198 421 220.5 c 128,-1,18
 434 243 434 243 441 281.5 c 128,-1,19
 448 320 448 320 448 378 c 2,20,-1
 451 1708 l 1,21,-1
 710 1708 l 1,22,-1
 710 414 l 2,23,24
 710 282 710 282 680 198 c 128,-1,25
 650 114 650 114 599.5 66.5 c 128,-1,26
 549 19 549 19 484.5 1.5 c 128,-1,27
 420 -16 420 -16 351 -16 c 0,0,1
EndSplineSet
EndChar

StartChar: W
Encoding: 87 87 40
Width: 1479
Flags: W
LayerCount: 2
Fore
SplineSet
37 1708 m 1,0,-1
 285 1708 l 1,1,-1
 400 676 l 1,2,-1
 413 435 l 1,3,-1
 438 435 l 1,4,-1
 462 706 l 1,5,-1
 646 1708 l 1,6,-1
 853 1708 l 1,7,-1
 1029 706 l 1,8,-1
 1049 435 l 1,9,-1
 1075 435 l 1,10,-1
 1087 676 l 1,11,-1
 1192 1708 l 1,12,-1
 1441 1708 l 1,13,-1
 1202 0 l 1,14,-1
 939 0 l 1,15,-1
 798 821 l 1,16,-1
 754 1178 l 1,17,-1
 734 1178 l 1,18,-1
 691 821 l 1,19,-1
 543 0 l 1,20,-1
 283 0 l 1,21,-1
 37 1708 l 1,0,-1
EndSplineSet
EndChar

StartChar: Y
Encoding: 89 89 41
Width: 959
Flags: W
LayerCount: 2
Fore
SplineSet
349 569 m 1,0,-1
 5 1708 l 1,1,-1
 266 1708 l 1,2,-1
 475 891 l 1,3,-1
 487 891 l 1,4,-1
 694 1708 l 1,5,-1
 954 1708 l 1,6,-1
 608 569 l 1,7,-1
 608 0 l 1,8,-1
 349 0 l 1,9,-1
 349 569 l 1,0,-1
EndSplineSet
EndChar

StartChar: Q
Encoding: 81 81 42
Width: 1064
Flags: W
LayerCount: 2
Fore
SplineSet
429 -5 m 1,0,1
 372 6 372 6 315 37 c 128,-1,2
 258 68 258 68 212 132 c 128,-1,3
 166 196 166 196 137.5 298.5 c 128,-1,4
 109 401 109 401 109 556 c 2,5,-1
 109 1161 l 2,6,7
 109 1290 109 1290 129.5 1381.5 c 128,-1,8
 150 1473 150 1473 184 1535.5 c 128,-1,9
 218 1598 218 1598 261.5 1635 c 128,-1,10
 305 1672 305 1672 352.5 1691.5 c 128,-1,11
 400 1711 400 1711 447 1717 c 128,-1,12
 494 1723 494 1723 534 1723 c 0,13,14
 572 1723 572 1723 618.5 1717.5 c 128,-1,15
 665 1712 665 1712 711.5 1693.5 c 128,-1,16
 758 1675 758 1675 802 1638.5 c 128,-1,17
 846 1602 846 1602 880 1539.5 c 128,-1,18
 914 1477 914 1477 934.5 1384.5 c 128,-1,19
 955 1292 955 1292 955 1161 c 2,20,-1
 955 556 l 2,21,22
 955 408 955 408 927 307.5 c 128,-1,23
 899 207 899 207 854.5 143 c 128,-1,24
 810 79 810 79 755.5 45.5 c 128,-1,25
 701 12 701 12 647 -1 c 1,26,-1
 647 -16 l 2,27,28
 647 -65 647 -65 658.5 -95 c 128,-1,29
 670 -125 670 -125 692.5 -141.5 c 128,-1,30
 715 -158 715 -158 748.5 -163.5 c 128,-1,31
 782 -169 782 -169 826 -169 c 0,32,33
 840 -169 840 -169 854 -169 c 128,-1,34
 868 -169 868 -169 880 -168 c 1,35,-1
 880 -308 l 1,36,37
 831 -330 831 -330 788 -338 c 128,-1,38
 745 -346 745 -346 697 -346 c 0,39,40
 676 -346 676 -346 648 -343.5 c 128,-1,41
 620 -341 620 -341 590 -331.5 c 128,-1,42
 560 -322 560 -322 531.5 -304.5 c 128,-1,43
 503 -287 503 -287 480 -256.5 c 128,-1,44
 457 -226 457 -226 443 -181 c 128,-1,45
 429 -136 429 -136 429 -72 c 2,46,-1
 429 -5 l 1,0,1
534 180 m 0,47,48
 572 180 572 180 600.5 193 c 128,-1,49
 629 206 629 206 647.5 238 c 128,-1,50
 666 270 666 270 675.5 322.5 c 128,-1,51
 685 375 685 375 685 455 c 2,52,-1
 685 1232 l 2,53,54
 685 1314 685 1314 675.5 1369 c 128,-1,55
 666 1424 666 1424 647.5 1457.5 c 128,-1,56
 629 1491 629 1491 600.5 1505 c 128,-1,57
 572 1519 572 1519 534 1519 c 0,58,59
 495 1519 495 1519 466 1505 c 128,-1,60
 437 1491 437 1491 418 1457.5 c 128,-1,61
 399 1424 399 1424 389.5 1369 c 128,-1,62
 380 1314 380 1314 380 1232 c 2,63,-1
 380 455 l 2,64,65
 380 375 380 375 389.5 322.5 c 128,-1,66
 399 270 399 270 418 238 c 128,-1,67
 437 206 437 206 466 193 c 128,-1,68
 495 180 495 180 534 180 c 0,47,48
EndSplineSet
EndChar

StartChar: M
Encoding: 77 77 43
Width: 1442
Flags: W
LayerCount: 2
Fore
SplineSet
146 1708 m 1,0,-1
 484 1708 l 1,1,-1
 648 1047 l 1,2,3
 674 937 674 937 689 837.5 c 128,-1,4
 704 738 704 738 718 650 c 1,5,-1
 726 650 l 1,6,7
 740 738 740 738 755 837.5 c 128,-1,8
 770 937 770 937 796 1047 c 1,9,-1
 965 1708 l 1,10,-1
 1296 1708 l 1,11,-1
 1296 0 l 1,12,-1
 1054 0 l 1,13,-1
 1054 565 l 2,14,15
 1054 695 1054 695 1056.5 815 c 128,-1,16
 1059 935 1059 935 1063 1035.5 c 128,-1,17
 1067 1136 1067 1136 1072 1213 c 128,-1,18
 1077 1290 1077 1290 1081 1335 c 1,19,-1
 1062 1335 l 1,20,-1
 804 220 l 1,21,-1
 640 220 l 1,22,-1
 380 1335 l 1,23,-1
 361 1335 l 1,24,25
 365 1290 365 1290 370 1213 c 128,-1,26
 375 1136 375 1136 379 1035.5 c 128,-1,27
 383 935 383 935 385.5 815 c 128,-1,28
 388 695 388 695 388 565 c 2,29,-1
 388 0 l 1,30,-1
 146 0 l 1,31,-1
 146 1708 l 1,0,-1
EndSplineSet
EndChar

StartChar: K
Encoding: 75 75 44
Width: 1005
Flags: W
LayerCount: 2
Fore
SplineSet
146 1708 m 1,0,-1
 405 1708 l 1,1,-1
 405 962 l 1,2,-1
 413 962 l 1,3,-1
 709 1708 l 1,4,-1
 967 1708 l 1,5,-1
 637 907 l 1,6,-1
 1004 0 l 1,7,-1
 727 0 l 1,8,-1
 413 813 l 1,9,-1
 405 813 l 1,10,-1
 405 0 l 1,11,-1
 146 0 l 1,12,-1
 146 1708 l 1,0,-1
EndSplineSet
EndChar

StartChar: F
Encoding: 70 70 45
Width: 826
Flags: W
LayerCount: 2
Fore
SplineSet
146 1708 m 1,0,-1
 799 1708 l 1,1,-1
 799 1504 l 1,2,-1
 405 1504 l 1,3,-1
 405 993 l 1,4,-1
 714 993 l 1,5,-1
 714 789 l 1,6,-1
 405 789 l 1,7,-1
 405 0 l 1,8,-1
 146 0 l 1,9,-1
 146 1708 l 1,0,-1
EndSplineSet
EndChar

StartChar: P
Encoding: 80 80 46
Width: 982
Flags: W
LayerCount: 2
Fore
SplineSet
146 1708 m 1,0,-1
 405 1708 l 2,1,2
 454 1708 454 1708 512.5 1703.5 c 128,-1,3
 571 1699 571 1699 629.5 1682.5 c 128,-1,4
 688 1666 688 1666 742.5 1632 c 128,-1,5
 797 1598 797 1598 839 1539.5 c 128,-1,6
 881 1481 881 1481 906.5 1393 c 128,-1,7
 932 1305 932 1305 932 1179 c 2,8,-1
 932 1119 l 2,9,10
 932 982 932 982 908.5 884.5 c 128,-1,11
 885 787 885 787 846 720.5 c 128,-1,12
 807 654 807 654 755.5 614 c 128,-1,13
 704 574 704 574 648.5 553.5 c 128,-1,14
 593 533 593 533 536.5 526.5 c 128,-1,15
 480 520 480 520 430 520 c 2,16,-1
 405 520 l 1,17,-1
 405 0 l 1,18,-1
 146 0 l 1,19,-1
 146 1708 l 1,0,-1
418 710 m 2,20,21
 488 710 488 710 536 730.5 c 128,-1,22
 584 751 584 751 612.5 794.5 c 128,-1,23
 641 838 641 838 653.5 906.5 c 128,-1,24
 666 975 666 975 666 1071 c 2,25,-1
 666 1225 l 2,26,27
 666 1301 666 1301 655 1356.5 c 128,-1,28
 644 1412 644 1412 615.5 1448 c 128,-1,29
 587 1484 587 1484 539 1501.5 c 128,-1,30
 491 1519 491 1519 418 1519 c 2,31,-1
 405 1519 l 1,32,-1
 405 710 l 1,33,-1
 418 710 l 2,20,21
EndSplineSet
EndChar

StartChar: R
Encoding: 82 82 47
Width: 1048
Flags: W
LayerCount: 2
Fore
SplineSet
146 1708 m 1,0,-1
 427 1708 l 2,1,2
 475 1708 475 1708 532.5 1704 c 128,-1,3
 590 1700 590 1700 647.5 1684.5 c 128,-1,4
 705 1669 705 1669 758.5 1638 c 128,-1,5
 812 1607 812 1607 853.5 1553 c 128,-1,6
 895 1499 895 1499 920 1417.5 c 128,-1,7
 945 1336 945 1336 945 1220 c 2,8,-1
 945 1177 l 2,9,10
 945 982 945 982 889 859.5 c 128,-1,11
 833 737 833 737 724 683 c 1,12,-1
 998 0 l 1,13,-1
 724 0 l 1,14,-1
 497 639 l 1,15,-1
 400 639 l 1,16,-1
 400 0 l 1,17,-1
 146 0 l 1,18,-1
 146 1708 l 1,0,-1
439 826 m 2,19,20
 507 826 507 826 554 841 c 128,-1,21
 601 856 601 856 630 891.5 c 128,-1,22
 659 927 659 927 672 985.5 c 128,-1,23
 685 1044 685 1044 685 1130 c 2,24,-1
 685 1265 l 2,25,26
 685 1331 685 1331 673 1379 c 128,-1,27
 661 1427 661 1427 632.5 1458 c 128,-1,28
 604 1489 604 1489 557 1504 c 128,-1,29
 510 1519 510 1519 439 1519 c 2,30,-1
 400 1519 l 1,31,-1
 400 826 l 1,32,-1
 439 826 l 2,19,20
EndSplineSet
EndChar

StartChar: U
Encoding: 85 85 48
Width: 1094
Flags: W
LayerCount: 2
Fore
SplineSet
140 1708 m 1,0,-1
 401 1708 l 1,1,-1
 401 456 l 2,2,3
 401 376 401 376 409 323 c 128,-1,4
 417 270 417 270 434.5 238.5 c 128,-1,5
 452 207 452 207 479.5 193.5 c 128,-1,6
 507 180 507 180 545 180 c 256,7,8
 583 180 583 180 611.5 193.5 c 128,-1,9
 640 207 640 207 658.5 238.5 c 128,-1,10
 677 270 677 270 686.5 323 c 128,-1,11
 696 376 696 376 696 456 c 2,12,-1
 696 1708 l 1,13,-1
 954 1708 l 1,14,-1
 954 525 l 2,15,16
 954 400 954 400 934 311 c 128,-1,17
 914 222 914 222 881 162 c 128,-1,18
 848 102 848 102 805.5 67 c 128,-1,19
 763 32 763 32 717.5 13.5 c 128,-1,20
 672 -5 672 -5 627 -10 c 128,-1,21
 582 -15 582 -15 545 -15 c 256,22,23
 508 -15 508 -15 463.5 -10 c 128,-1,24
 419 -5 419 -5 374 13.5 c 128,-1,25
 329 32 329 32 287 67 c 128,-1,26
 245 102 245 102 212 162 c 128,-1,27
 179 222 179 222 159.5 310.5 c 128,-1,28
 140 399 140 399 140 525 c 2,29,-1
 140 1708 l 1,0,-1
EndSplineSet
EndChar

StartChar: B
Encoding: 66 66 49
Width: 1047
Flags: W
LayerCount: 2
Fore
SplineSet
146 1708 m 1,0,-1
 408 1708 l 2,1,2
 466 1708 466 1708 528 1704 c 128,-1,3
 590 1700 590 1700 649 1687 c 128,-1,4
 708 1674 708 1674 761 1648.5 c 128,-1,5
 814 1623 814 1623 853.5 1580 c 128,-1,6
 893 1537 893 1537 916.5 1473.5 c 128,-1,7
 940 1410 940 1410 940 1321 c 2,8,-1
 940 1238 l 2,9,10
 940 1170 940 1170 920.5 1113 c 128,-1,11
 901 1056 901 1056 869 1012.5 c 128,-1,12
 837 969 837 969 796 940.5 c 128,-1,13
 755 912 755 912 712 902 c 1,14,-1
 712 894 l 1,15,16
 839 871 839 871 903.5 773.5 c 128,-1,17
 968 676 968 676 968 524 c 2,18,-1
 968 437 l 2,19,20
 968 344 968 344 947.5 275.5 c 128,-1,21
 927 207 927 207 890 158.5 c 128,-1,22
 853 110 853 110 802 79 c 128,-1,23
 751 48 751 48 690 30.5 c 128,-1,24
 629 13 629 13 560 6.5 c 128,-1,25
 491 0 491 0 418 0 c 2,26,-1
 146 0 l 1,27,-1
 146 1708 l 1,0,-1
450 977 m 2,28,29
 502 977 502 977 545 989.5 c 128,-1,30
 588 1002 588 1002 618.5 1028.5 c 128,-1,31
 649 1055 649 1055 665.5 1097.5 c 128,-1,32
 682 1140 682 1140 682 1200 c 2,33,-1
 682 1270 l 2,34,35
 682 1330 682 1330 670 1376 c 128,-1,36
 658 1422 658 1422 630.5 1454 c 128,-1,37
 603 1486 603 1486 558.5 1502.5 c 128,-1,38
 514 1519 514 1519 450 1519 c 2,39,-1
 400 1519 l 1,40,-1
 400 977 l 1,41,-1
 450 977 l 2,28,29
474 180 m 2,42,43
 526 180 526 180 568.5 193.5 c 128,-1,44
 611 207 611 207 641.5 235.5 c 128,-1,45
 672 264 672 264 688.5 308 c 128,-1,46
 705 352 705 352 705 412 c 2,47,-1
 705 545 l 2,48,49
 705 605 705 605 693 651.5 c 128,-1,50
 681 698 681 698 653.5 729.5 c 128,-1,51
 626 761 626 761 582 777.5 c 128,-1,52
 538 794 538 794 474 794 c 2,53,-1
 400 794 l 1,54,-1
 400 180 l 1,55,-1
 474 180 l 2,42,43
EndSplineSet
EndChar

StartChar: l
Encoding: 108 108 50
Width: 521
Flags: W
LayerCount: 2
Fore
SplineSet
134 1819 m 1,0,-1
 387 1819 l 1,1,-1
 387 0 l 1,2,-1
 134 0 l 1,3,-1
 134 1819 l 1,0,-1
EndSplineSet
EndChar

StartChar: g
Encoding: 103 103 51
Width: 993
Flags: W
LayerCount: 2
Fore
SplineSet
336 -94 m 1,0,1
 336 -183 336 -183 369 -220 c 128,-1,2
 402 -257 402 -257 471 -257 c 0,3,4
 499 -257 499 -257 525 -248.5 c 128,-1,5
 551 -240 551 -240 570.5 -217.5 c 128,-1,6
 590 -195 590 -195 602 -155 c 128,-1,7
 614 -115 614 -115 614 -52 c 2,8,-1
 614 165 l 1,9,10
 580 121 580 121 526.5 89.5 c 128,-1,11
 473 58 473 58 394 58 c 0,12,13
 371 58 371 58 340 62.5 c 128,-1,14
 309 67 309 67 276 83 c 128,-1,15
 243 99 243 99 211 131.5 c 128,-1,16
 179 164 179 164 154 219 c 128,-1,17
 129 274 129 274 113.5 356.5 c 128,-1,18
 98 439 98 439 98 556 c 2,19,-1
 98 918 l 2,20,21
 98 1030 98 1030 113.5 1108.5 c 128,-1,22
 129 1187 129 1187 154 1240 c 128,-1,23
 179 1293 179 1293 211.5 1323 c 128,-1,24
 244 1353 244 1353 277.5 1368.5 c 128,-1,25
 311 1384 311 1384 343 1388 c 128,-1,26
 375 1392 375 1392 400 1392 c 0,27,28
 450 1392 450 1392 488.5 1379 c 128,-1,29
 527 1366 527 1366 555.5 1344.5 c 128,-1,30
 584 1323 584 1323 604 1296 c 128,-1,31
 624 1269 624 1269 638 1242 c 1,32,-1
 661 1378 l 1,33,-1
 858 1378 l 1,34,-1
 858 56 l 2,35,36
 858 -59 858 -59 836 -151.5 c 128,-1,37
 814 -244 814 -244 767 -309.5 c 128,-1,38
 720 -375 720 -375 647.5 -410 c 128,-1,39
 575 -445 575 -445 474 -445 c 0,40,41
 406 -445 406 -445 346 -433 c 128,-1,42
 286 -421 286 -421 241 -390.5 c 128,-1,43
 196 -360 196 -360 170 -307.5 c 128,-1,44
 144 -255 144 -255 144 -174 c 0,45,46
 144 -160 144 -160 147 -139 c 128,-1,47
 150 -118 150 -118 157 -94 c 1,48,-1
 336 -94 l 1,0,1
480 254 m 0,49,50
 505 254 505 254 524.5 262.5 c 128,-1,51
 544 271 544 271 559.5 285 c 128,-1,52
 575 299 575 299 586.5 317 c 128,-1,53
 598 335 598 335 606 354 c 1,54,-1
 606 1107 l 1,55,56
 587 1149 587 1149 555.5 1178.5 c 128,-1,57
 524 1208 524 1208 479 1208 c 0,58,59
 451 1208 451 1208 428 1198 c 128,-1,60
 405 1188 405 1188 388 1160.5 c 128,-1,61
 371 1133 371 1133 361.5 1084.5 c 128,-1,62
 352 1036 352 1036 352 959 c 2,63,-1
 352 506 l 2,64,65
 352 429 352 429 361.5 380 c 128,-1,66
 371 331 371 331 388 303 c 128,-1,67
 405 275 405 275 428.5 264.5 c 128,-1,68
 452 254 452 254 480 254 c 0,49,50
EndSplineSet
EndChar

StartChar: dotlessi
Encoding: 305 305 52
Width: 521
Flags: W
LayerCount: 2
Fore
SplineSet
134 1377 m 1,0,-1
 387 1377 l 1,1,-1
 387 0 l 1,2,-1
 134 0 l 1,3,-1
 134 1377 l 1,0,-1
EndSplineSet
EndChar

StartChar: bracketleft
Encoding: 91 91 53
Width: 776
Flags: W
LayerCount: 2
Fore
SplineSet
139 1963 m 1,0,-1
 644 1963 l 1,1,-1
 644 1771 l 1,2,-1
 361 1771 l 1,3,-1
 361 -66 l 1,4,-1
 644 -66 l 1,5,-1
 644 -256 l 1,6,-1
 139 -256 l 1,7,-1
 139 1963 l 1,0,-1
EndSplineSet
EndChar

StartChar: dotlessj
Encoding: 567 567 54
Width: 521
Flags: W
LayerCount: 2
Fore
SplineSet
134 1377 m 1,0,-1
 387 1377 l 1,1,-1
 387 -84 l 2,2,3
 387 -197 387 -197 364.5 -267 c 128,-1,4
 342 -337 342 -337 304 -376.5 c 128,-1,5
 266 -416 266 -416 217 -430 c 128,-1,6
 168 -444 168 -444 115 -444 c 0,7,8
 85 -444 85 -444 54 -439 c 128,-1,9
 23 -434 23 -434 -7 -420 c 1,10,-1
 -7 -273 l 1,11,12
 1 -274 1 -274 9 -274.5 c 128,-1,13
 17 -275 17 -275 25 -275 c 0,14,15
 47 -275 47 -275 67 -267 c 128,-1,16
 87 -259 87 -259 102 -240.5 c 128,-1,17
 117 -222 117 -222 125.5 -191.5 c 128,-1,18
 134 -161 134 -161 134 -116 c 2,19,-1
 134 1377 l 1,0,-1
EndSplineSet
EndChar

StartChar: r
Encoding: 114 114 55
Width: 788
Flags: W
LayerCount: 2
Fore
SplineSet
130 1377 m 1,0,-1
 315 1377 l 1,1,-1
 337 1237 l 1,2,3
 379 1315 379 1315 433.5 1354 c 128,-1,4
 488 1393 488 1393 545 1393 c 0,5,6
 654 1393 654 1393 706 1326 c 128,-1,7
 758 1259 758 1259 758 1125 c 0,8,9
 758 1108 758 1108 755.5 1084.5 c 128,-1,10
 753 1061 753 1061 748.5 1035.5 c 128,-1,11
 744 1010 744 1010 737.5 984.5 c 128,-1,12
 731 959 731 959 724 938 c 1,13,-1
 548 938 l 1,14,-1
 548 1066 l 2,15,16
 548 1108 548 1108 542.5 1135 c 128,-1,17
 537 1162 537 1162 528 1178.5 c 128,-1,18
 519 1195 519 1195 507 1201.5 c 128,-1,19
 495 1208 495 1208 481 1208 c 0,20,21
 451 1208 451 1208 425.5 1188.5 c 128,-1,22
 400 1169 400 1169 383 1134 c 1,23,-1
 383 0 l 1,24,-1
 130 0 l 1,25,-1
 130 1377 l 1,0,-1
EndSplineSet
EndChar

StartChar: C
Encoding: 67 67 56
Width: 936
Flags: W
LayerCount: 2
Fore
SplineSet
514 -15 m 0,0,1
 474 -15 474 -15 427.5 -8.5 c 128,-1,2
 381 -2 381 -2 334.5 19 c 128,-1,3
 288 40 288 40 245.5 78.5 c 128,-1,4
 203 117 203 117 170.5 180 c 128,-1,5
 138 243 138 243 118.5 335.5 c 128,-1,6
 99 428 99 428 99 556 c 2,7,-1
 99 1161 l 2,8,9
 99 1290 99 1290 119 1381.5 c 128,-1,10
 139 1473 139 1473 172 1535.5 c 128,-1,11
 205 1598 205 1598 248 1635 c 128,-1,12
 291 1672 291 1672 337 1691.5 c 128,-1,13
 383 1711 383 1711 428.5 1717 c 128,-1,14
 474 1723 474 1723 513 1723 c 0,15,16
 615 1723 615 1723 683.5 1694.5 c 128,-1,17
 752 1666 752 1666 793.5 1616.5 c 128,-1,18
 835 1567 835 1567 852.5 1501 c 128,-1,19
 870 1435 870 1435 870 1361 c 0,20,21
 870 1306 870 1306 864.5 1259.5 c 128,-1,22
 859 1213 859 1213 848 1157 c 1,23,-1
 638 1157 l 1,24,-1
 638 1244 l 2,25,26
 638 1385 638 1385 607 1455 c 128,-1,27
 576 1525 576 1525 516 1525 c 0,28,29
 480 1525 480 1525 453 1511 c 128,-1,30
 426 1497 426 1497 408 1463.5 c 128,-1,31
 390 1430 390 1430 380.5 1375 c 128,-1,32
 371 1320 371 1320 371 1238 c 2,33,-1
 371 458 l 2,34,35
 371 378 371 378 378.5 325 c 128,-1,36
 386 272 386 272 403 240 c 128,-1,37
 420 208 420 208 447.5 194.5 c 128,-1,38
 475 181 475 181 514 181 c 0,39,40
 539 181 539 181 562 192.5 c 128,-1,41
 585 204 585 204 602.5 228.5 c 128,-1,42
 620 253 620 253 630.5 290.5 c 128,-1,43
 641 328 641 328 641 379 c 2,44,-1
 641 546 l 1,45,-1
 878 546 l 1,46,-1
 878 388 l 2,47,48
 878 182 878 182 784 84 c 128,-1,49
 690 -14 690 -14 514 -15 c 0,0,1
EndSplineSet
EndChar

StartChar: G
Encoding: 71 71 57
Width: 1047
Flags: W
LayerCount: 2
Fore
SplineSet
491 -16 m 0,0,1
 461 -16 461 -16 421 -9.5 c 128,-1,2
 381 -3 381 -3 338.5 18 c 128,-1,3
 296 39 296 39 255 77.5 c 128,-1,4
 214 116 214 116 181.5 179.5 c 128,-1,5
 149 243 149 243 129 335.5 c 128,-1,6
 109 428 109 428 109 556 c 2,7,-1
 109 1161 l 2,8,9
 109 1290 109 1290 130 1381.5 c 128,-1,10
 151 1473 151 1473 186 1535.5 c 128,-1,11
 221 1598 221 1598 266.5 1635 c 128,-1,12
 312 1672 312 1672 361 1691.5 c 128,-1,13
 410 1711 410 1711 458 1717 c 128,-1,14
 506 1723 506 1723 547 1723 c 0,15,16
 651 1723 651 1723 722.5 1694.5 c 128,-1,17
 794 1666 794 1666 838.5 1616.5 c 128,-1,18
 883 1567 883 1567 902.5 1501 c 128,-1,19
 922 1435 922 1435 922 1361 c 0,20,21
 922 1306 922 1306 915.5 1259.5 c 128,-1,22
 909 1213 909 1213 898 1157 c 1,23,-1
 691 1157 l 1,24,-1
 691 1238 l 2,25,26
 691 1519 691 1519 540 1519 c 0,27,28
 499 1519 499 1519 469 1505 c 128,-1,29
 439 1491 439 1491 419 1457.5 c 128,-1,30
 399 1424 399 1424 389.5 1369 c 128,-1,31
 380 1314 380 1314 380 1232 c 2,32,-1
 380 458 l 2,33,34
 380 378 380 378 389.5 325 c 128,-1,35
 399 272 399 272 418.5 240 c 128,-1,36
 438 208 438 208 467.5 194.5 c 128,-1,37
 497 181 497 181 538 181 c 0,38,39
 581 181 581 181 612 203.5 c 128,-1,40
 643 226 643 226 663 265 c 128,-1,41
 683 304 683 304 692.5 357 c 128,-1,42
 702 410 702 410 702 472 c 2,43,-1
 702 695 l 1,44,-1
 569 695 l 1,45,-1
 569 865 l 1,46,-1
 954 865 l 1,47,-1
 954 0 l 1,48,-1
 782 0 l 1,49,-1
 754 162 l 1,50,51
 705 67 705 67 641.5 25.5 c 128,-1,52
 578 -16 578 -16 491 -16 c 0,0,1
EndSplineSet
EndChar

StartChar: Oslash
Encoding: 216 216 58
Width: 1039
Flags: W
LayerCount: 2
Fore
SplineSet
243 83 m 1,0,1
 212 113 212 113 186 155.5 c 128,-1,2
 160 198 160 198 140.5 255.5 c 128,-1,3
 121 313 121 313 110 387.5 c 128,-1,4
 99 462 99 462 99 556 c 2,5,-1
 99 1161 l 2,6,7
 99 1290 99 1290 119.5 1381.5 c 128,-1,8
 140 1473 140 1473 174 1535.5 c 128,-1,9
 208 1598 208 1598 251.5 1635 c 128,-1,10
 295 1672 295 1672 342.5 1691.5 c 128,-1,11
 390 1711 390 1711 437 1717 c 128,-1,12
 484 1723 484 1723 524 1723 c 0,13,14
 559 1723 559 1723 600.5 1718.5 c 128,-1,15
 642 1714 642 1714 686 1699 c 1,16,-1
 735 1878 l 1,17,-1
 860 1878 l 1,18,-1
 794 1636 l 1,19,20
 826 1608 826 1608 853.5 1567 c 128,-1,21
 881 1526 881 1526 901.5 1468 c 128,-1,22
 922 1410 922 1410 933.5 1334 c 128,-1,23
 945 1258 945 1258 945 1161 c 2,24,-1
 945 556 l 2,25,26
 945 429 945 429 924 337.5 c 128,-1,27
 903 246 903 246 869 182.5 c 128,-1,28
 835 119 835 119 790.5 80.5 c 128,-1,29
 746 42 746 42 699.5 20.5 c 128,-1,30
 653 -1 653 -1 607 -8 c 128,-1,31
 561 -15 561 -15 524 -15 c 0,32,33
 484 -15 484 -15 439.5 -9 c 128,-1,34
 395 -3 395 -3 350 15 c 1,35,-1
 299 -171 l 1,36,-1
 174 -171 l 1,37,-1
 243 83 l 1,0,1
625 1476 m 1,38,39
 606 1499 606 1499 581 1509 c 128,-1,40
 556 1519 556 1519 524 1519 c 0,41,42
 485 1519 485 1519 456 1505 c 128,-1,43
 427 1491 427 1491 408 1457.5 c 128,-1,44
 389 1424 389 1424 379.5 1369 c 128,-1,45
 370 1314 370 1314 370 1232 c 2,46,-1
 370 545 l 1,47,-1
 625 1476 l 1,38,39
410 234 m 1,48,49
 429 205 429 205 457.5 192.5 c 128,-1,50
 486 180 486 180 524 180 c 256,51,52
 562 180 562 180 590.5 193 c 128,-1,53
 619 206 619 206 637.5 238 c 128,-1,54
 656 270 656 270 665.5 322.5 c 128,-1,55
 675 375 675 375 675 455 c 2,56,-1
 675 1202 l 1,57,-1
 410 234 l 1,48,49
EndSplineSet
EndChar

StartChar: oslash
Encoding: 248 248 59
Width: 958
Flags: W
LayerCount: 2
Fore
SplineSet
203 104 m 1,0,1
 154 169 154 169 124 286 c 128,-1,2
 94 403 94 403 94 591 c 2,3,-1
 94 807 l 2,4,5
 94 941 94 941 110.5 1036.5 c 128,-1,6
 127 1132 127 1132 155.5 1197 c 128,-1,7
 184 1262 184 1262 222 1300.5 c 128,-1,8
 260 1339 260 1339 302.5 1359.5 c 128,-1,9
 345 1380 345 1380 390 1386.5 c 128,-1,10
 435 1393 435 1393 478 1393 c 0,11,12
 524 1393 524 1393 573 1385.5 c 128,-1,13
 622 1378 622 1378 669 1351 c 1,14,-1
 740 1541 l 1,15,-1
 857 1541 l 1,16,-1
 755 1270 l 1,17,18
 777 1238 777 1238 796 1195 c 128,-1,19
 815 1152 815 1152 828 1095.5 c 128,-1,20
 841 1039 841 1039 848.5 967.5 c 128,-1,21
 856 896 856 896 856 807 c 2,22,-1
 856 591 l 2,23,24
 856 457 856 457 839 360 c 128,-1,25
 822 263 822 263 793 196 c 128,-1,26
 764 129 764 129 726 87.5 c 128,-1,27
 688 46 688 46 646 23 c 128,-1,28
 604 0 604 0 560.5 -7.5 c 128,-1,29
 517 -15 517 -15 477 -15 c 0,30,31
 430 -15 430 -15 382.5 -7 c 128,-1,32
 335 1 335 1 290 26 c 1,33,-1
 217 -171 l 1,34,-1
 100 -171 l 1,35,-1
 203 104 l 1,0,1
580 1114 m 1,36,37
 566 1165 566 1165 541.5 1186.5 c 128,-1,38
 517 1208 517 1208 479 1208 c 0,39,40
 443 1208 443 1208 418.5 1190 c 128,-1,41
 394 1172 394 1172 378 1131.5 c 128,-1,42
 362 1091 362 1091 355 1025 c 128,-1,43
 348 959 348 959 348 862 c 2,44,-1
 348 523 l 1,45,-1
 348 493 l 1,46,-1
 580 1114 l 1,36,37
377 257 m 1,47,48
 393 215 393 215 418 197.5 c 128,-1,49
 443 180 443 180 479 180 c 0,50,51
 513 180 513 180 536.5 197.5 c 128,-1,52
 560 215 560 215 574.5 255 c 128,-1,53
 589 295 589 295 595.5 360.5 c 128,-1,54
 602 426 602 426 602 523 c 2,55,-1
 602 859 l 1,56,-1
 377 257 l 1,47,48
EndSplineSet
EndChar

StartChar: kgreenlandic
Encoding: 312 312 60
Width: 959
Flags: W
LayerCount: 2
Fore
SplineSet
134 1370 m 1,0,-1
 387 1370 l 1,1,-1
 387 727 l 1,2,-1
 395 727 l 1,3,-1
 671 1370 l 1,4,-1
 914 1370 l 1,5,-1
 619 714 l 1,6,-1
 943 0 l 1,7,-1
 687 0 l 1,8,-1
 395 639 l 1,9,-1
 387 639 l 1,10,-1
 387 0 l 1,11,-1
 134 0 l 1,12,-1
 134 1370 l 1,0,-1
EndSplineSet
EndChar

StartChar: thorn
Encoding: 254 254 61
Width: 989
Flags: W
LayerCount: 2
Fore
SplineSet
383 -59 m 1,0,-1
 383 -443 l 1,1,-1
 130 -443 l 1,2,-1
 130 1810 l 1,3,-1
 383 1810 l 1,4,-1
 383 1445 l 1,5,-1
 375 1264 l 1,6,-1
 376 1263 l 1,7,8
 393 1287 393 1287 415.5 1309 c 128,-1,9
 438 1331 438 1331 466.5 1348 c 128,-1,10
 495 1365 495 1365 529.5 1375 c 128,-1,11
 564 1385 564 1385 605 1385 c 0,12,13
 626 1385 626 1385 655.5 1381 c 128,-1,14
 685 1377 685 1377 716.5 1361 c 128,-1,15
 748 1345 748 1345 779.5 1314 c 128,-1,16
 811 1283 811 1283 835.5 1228 c 128,-1,17
 860 1173 860 1173 875.5 1091.5 c 128,-1,18
 891 1010 891 1010 891 894 c 2,19,-1
 891 479 l 2,20,21
 891 363 891 363 875.5 281 c 128,-1,22
 860 199 860 199 835 144 c 128,-1,23
 810 89 810 89 778 57 c 128,-1,24
 746 25 746 25 713 9 c 128,-1,25
 680 -7 680 -7 649 -11.5 c 128,-1,26
 618 -16 618 -16 595 -16 c 0,27,28
 556 -16 556 -16 521.5 -6 c 128,-1,29
 487 4 487 4 458 20 c 128,-1,30
 429 36 429 36 406.5 56 c 128,-1,31
 384 76 384 76 369 95 c 1,32,-1
 383 -59 l 1,0,-1
383 279 m 1,33,34
 391 260 391 260 402.5 242 c 128,-1,35
 414 224 414 224 429 210.5 c 128,-1,36
 444 197 444 197 464 188.5 c 128,-1,37
 484 180 484 180 509 180 c 0,38,39
 537 180 537 180 560 190.5 c 128,-1,40
 583 201 583 201 600 228.5 c 128,-1,41
 617 256 617 256 626.5 304.5 c 128,-1,42
 636 353 636 353 636 430 c 2,43,-1
 636 948 l 2,44,45
 636 1024 636 1024 626.5 1072.5 c 128,-1,46
 617 1121 617 1121 600.5 1149 c 128,-1,47
 584 1177 584 1177 561 1187 c 128,-1,48
 538 1197 538 1197 510 1197 c 0,49,50
 463 1197 463 1197 432.5 1172.5 c 128,-1,51
 402 1148 402 1148 383 1115 c 1,52,-1
 383 279 l 1,33,34
EndSplineSet
EndChar

StartChar: ae
Encoding: 230 230 62
Width: 1349
Flags: W
LayerCount: 2
Fore
SplineSet
42 314 m 0,0,1
 42 398 42 398 62.5 464 c 128,-1,2
 83 530 83 530 123 583 c 128,-1,3
 163 636 163 636 222.5 679 c 128,-1,4
 282 722 282 722 361 761 c 0,5,6
 399 780 399 780 443 799.5 c 128,-1,7
 487 819 487 819 524 833 c 1,8,-1
 524 1010 l 2,9,10
 524 1048 524 1048 522 1084 c 128,-1,11
 520 1120 520 1120 510 1147.5 c 128,-1,12
 500 1175 500 1175 478 1191.5 c 128,-1,13
 456 1208 456 1208 416 1208 c 0,14,15
 389 1208 389 1208 363.5 1198 c 128,-1,16
 338 1188 338 1188 318.5 1164 c 128,-1,17
 299 1140 299 1140 287.5 1100.5 c 128,-1,18
 276 1061 276 1061 276 1002 c 2,19,-1
 276 936 l 1,20,-1
 83 936 l 1,21,22
 74 975 74 975 69.5 1007.5 c 128,-1,23
 65 1040 65 1040 65 1072 c 0,24,25
 65 1148 65 1148 91.5 1206.5 c 128,-1,26
 118 1265 118 1265 165.5 1305 c 128,-1,27
 213 1345 213 1345 279 1365 c 128,-1,28
 345 1385 345 1385 424 1385 c 0,29,30
 472 1385 472 1385 510.5 1376 c 128,-1,31
 549 1367 549 1367 580.5 1352 c 128,-1,32
 612 1337 612 1337 636.5 1316.5 c 128,-1,33
 661 1296 661 1296 680 1273 c 1,34,-1
 688 1273 l 1,35,36
 715 1305 715 1305 745.5 1326.5 c 128,-1,37
 776 1348 776 1348 808.5 1361.5 c 128,-1,38
 841 1375 841 1375 872.5 1380.5 c 128,-1,39
 904 1386 904 1386 933 1386 c 0,40,41
 995 1386 995 1386 1054 1365.5 c 128,-1,42
 1113 1345 1113 1345 1158.5 1296 c 128,-1,43
 1204 1247 1204 1247 1231.5 1164.5 c 128,-1,44
 1259 1082 1259 1082 1259 958 c 0,45,46
 1259 875 1259 875 1249.5 789.5 c 128,-1,47
 1240 704 1240 704 1225 638 c 1,48,-1
 777 638 l 1,49,-1
 777 499 l 2,50,51
 777 409 777 409 783.5 347 c 128,-1,52
 790 285 790 285 806.5 246 c 128,-1,53
 823 207 823 207 851.5 189.5 c 128,-1,54
 880 172 880 172 923 172 c 0,55,56
 946 172 946 172 968 181.5 c 128,-1,57
 990 191 990 191 1007.5 212.5 c 128,-1,58
 1025 234 1025 234 1035.5 270.5 c 128,-1,59
 1046 307 1046 307 1046 361 c 2,60,-1
 1046 411 l 1,61,-1
 1251 411 l 1,62,-1
 1251 358 l 2,63,64
 1251 164 1251 164 1165 74 c 128,-1,65
 1079 -16 1079 -16 915 -16 c 0,66,67
 820 -16 820 -16 749.5 27 c 128,-1,68
 679 70 679 70 636 151 c 1,69,-1
 628 151 l 1,70,71
 577 72 577 72 500.5 28 c 128,-1,72
 424 -16 424 -16 339 -16 c 0,73,74
 259 -16 259 -16 202.5 10.5 c 128,-1,75
 146 37 146 37 110.5 82.5 c 128,-1,76
 75 128 75 128 58.5 188 c 128,-1,77
 42 248 42 248 42 314 c 0,0,1
1024 807 m 1,78,79
 1025 818 1025 818 1026 837 c 128,-1,80
 1027 856 1027 856 1027.5 877.5 c 128,-1,81
 1028 899 1028 899 1028 919 c 128,-1,82
 1028 939 1028 939 1028 953 c 0,83,84
 1028 1089 1028 1089 999 1148 c 128,-1,85
 970 1207 970 1207 907 1208 c 0,86,87
 874 1208 874 1208 849.5 1192.5 c 128,-1,88
 825 1177 825 1177 809 1140.5 c 128,-1,89
 793 1104 793 1104 785 1044.5 c 128,-1,90
 777 985 777 985 777 897 c 2,91,-1
 777 807 l 1,92,-1
 1024 807 l 1,78,79
417 176 m 0,93,94
 449 176 449 176 476 192.5 c 128,-1,95
 503 209 503 209 524 233 c 1,96,-1
 524 665 l 1,97,98
 504 657 504 657 482.5 646 c 128,-1,99
 461 635 461 635 432 617 c 0,100,101
 405 600 405 600 379 576 c 128,-1,102
 353 552 353 552 332.5 519 c 128,-1,103
 312 486 312 486 299.5 445 c 128,-1,104
 287 404 287 404 287 353 c 0,105,106
 287 275 287 275 318 225.5 c 128,-1,107
 349 176 349 176 417 176 c 0,93,94
EndSplineSet
EndChar

StartChar: oe
Encoding: 339 339 63
Width: 1428
Flags: W
LayerCount: 2
Fore
SplineSet
479 -15 m 0,0,1
 435 -15 435 -15 389.5 -8 c 128,-1,2
 344 -1 344 -1 302 21 c 128,-1,3
 260 43 260 43 222.5 83.5 c 128,-1,4
 185 124 185 124 157.5 191 c 128,-1,5
 130 258 130 258 114 355.5 c 128,-1,6
 98 453 98 453 98 588 c 2,7,-1
 98 803 l 2,8,9
 98 936 98 936 114.5 1031 c 128,-1,10
 131 1126 131 1126 159 1190.5 c 128,-1,11
 187 1255 187 1255 225 1294 c 128,-1,12
 263 1333 263 1333 305 1353.5 c 128,-1,13
 347 1374 347 1374 392 1380 c 128,-1,14
 437 1386 437 1386 480 1386 c 0,15,16
 510 1386 510 1386 543.5 1381.5 c 128,-1,17
 577 1377 577 1377 610 1364.5 c 128,-1,18
 643 1352 643 1352 674.5 1330 c 128,-1,19
 706 1308 706 1308 733 1273 c 1,20,-1
 741 1273 l 1,21,22
 772 1309 772 1309 806.5 1331 c 128,-1,23
 841 1353 841 1353 874.5 1365 c 128,-1,24
 908 1377 908 1377 940.5 1381.5 c 128,-1,25
 973 1386 973 1386 1002 1386 c 0,26,27
 1070 1386 1070 1386 1131 1365.5 c 128,-1,28
 1192 1345 1192 1345 1238 1296 c 128,-1,29
 1284 1247 1284 1247 1311 1164.5 c 128,-1,30
 1338 1082 1338 1082 1338 958 c 0,31,32
 1338 875 1338 875 1329 789.5 c 128,-1,33
 1320 704 1320 704 1305 638 c 1,34,-1
 856 638 l 1,35,-1
 856 499 l 2,36,37
 856 409 856 409 863 347 c 128,-1,38
 870 285 870 285 886.5 246 c 128,-1,39
 903 207 903 207 931.5 189.5 c 128,-1,40
 960 172 960 172 1003 172 c 0,41,42
 1026 172 1026 172 1048 181.5 c 128,-1,43
 1070 191 1070 191 1087.5 212.5 c 128,-1,44
 1105 234 1105 234 1115.5 270.5 c 128,-1,45
 1126 307 1126 307 1126 361 c 2,46,-1
 1126 411 l 1,47,-1
 1331 411 l 1,48,-1
 1331 358 l 2,49,50
 1331 164 1331 164 1246 74.5 c 128,-1,51
 1161 -15 1161 -15 980 -15 c 0,52,53
 905 -15 905 -15 841 16 c 128,-1,54
 777 47 777 47 733 98 c 1,55,-1
 725 98 l 1,56,57
 698 65 698 65 667.5 43 c 128,-1,58
 637 21 637 21 605 8.5 c 128,-1,59
 573 -4 573 -4 541 -9.5 c 128,-1,60
 509 -15 509 -15 479 -15 c 0,0,1
1104 807 m 1,61,62
 1105 818 1105 818 1106 837 c 128,-1,63
 1107 856 1107 856 1107.5 877.5 c 128,-1,64
 1108 899 1108 899 1108 919 c 128,-1,65
 1108 939 1108 939 1108 953 c 0,66,67
 1108 1089 1108 1089 1079 1148 c 128,-1,68
 1050 1207 1050 1207 987 1208 c 0,69,70
 954 1208 954 1208 929 1192.5 c 128,-1,71
 904 1177 904 1177 888 1140.5 c 128,-1,72
 872 1104 872 1104 864 1044.5 c 128,-1,73
 856 985 856 985 856 897 c 2,74,-1
 856 807 l 1,75,-1
 1104 807 l 1,61,62
481 172 m 0,76,77
 515 172 515 172 538 189.5 c 128,-1,78
 561 207 561 207 575.5 246.5 c 128,-1,79
 590 286 590 286 596 351.5 c 128,-1,80
 602 417 602 417 602 513 c 2,81,-1
 602 864 l 2,82,83
 602 960 602 960 596 1025.5 c 128,-1,84
 590 1091 590 1091 575.5 1131.5 c 128,-1,85
 561 1172 561 1172 538 1190 c 128,-1,86
 515 1208 515 1208 481 1208 c 0,87,88
 445 1208 445 1208 420.5 1190 c 128,-1,89
 396 1172 396 1172 381 1131.5 c 128,-1,90
 366 1091 366 1091 359 1025.5 c 128,-1,91
 352 960 352 960 352 864 c 2,92,-1
 352 513 l 2,93,94
 352 417 352 417 359 351.5 c 128,-1,95
 366 286 366 286 381 246.5 c 128,-1,96
 396 207 396 207 420.5 189.5 c 128,-1,97
 445 172 445 172 481 172 c 0,76,77
EndSplineSet
EndChar

StartChar: hbar
Encoding: 295 295 64
Width: 1018
Flags: W
LayerCount: 2
Fore
SplineSet
130 1505 m 1,0,-1
 6 1505 l 1,1,-1
 6 1676 l 1,2,-1
 130 1676 l 1,3,-1
 130 1810 l 1,4,-1
 383 1810 l 1,5,-1
 383 1676 l 1,6,-1
 604 1676 l 1,7,-1
 604 1505 l 1,8,-1
 383 1505 l 1,9,-1
 383 1488 l 1,10,-1
 370 1259 l 1,11,12
 398 1297 398 1297 430.5 1323 c 128,-1,13
 463 1349 463 1349 497.5 1364.5 c 128,-1,14
 532 1380 532 1380 567.5 1386.5 c 128,-1,15
 603 1393 603 1393 638 1393 c 0,16,17
 759 1393 759 1393 824.5 1308 c 128,-1,18
 890 1223 890 1223 890 1055 c 2,19,-1
 890 0 l 1,20,-1
 637 0 l 1,21,-1
 637 1047 l 2,22,23
 637 1137 637 1137 609 1172.5 c 128,-1,24
 581 1208 581 1208 527 1208 c 0,25,26
 489 1208 489 1208 450.5 1181 c 128,-1,27
 412 1154 412 1154 383 1115 c 1,28,-1
 383 0 l 1,29,-1
 130 0 l 1,30,-1
 130 1505 l 1,0,-1
EndSplineSet
EndChar

StartChar: ldot
Encoding: 320 320 65
Width: 767
Flags: W
LayerCount: 2
Fore
SplineSet
134 1810 m 1,0,-1
 387 1810 l 1,1,-1
 387 0 l 1,2,-1
 134 0 l 1,3,-1
 134 1810 l 1,0,-1
619 712 m 0,4,5
 557 712 557 712 518.5 758.5 c 128,-1,6
 480 805 480 805 480 890 c 0,7,8
 480 937 480 937 490 970 c 128,-1,9
 500 1003 500 1003 518.5 1023.5 c 128,-1,10
 537 1044 537 1044 562.5 1053 c 128,-1,11
 588 1062 588 1062 620 1062 c 0,12,13
 685 1062 685 1062 718.5 1020.5 c 128,-1,14
 752 979 752 979 752 890 c 0,15,16
 752 807 752 807 718.5 759.5 c 128,-1,17
 685 712 685 712 619 712 c 0,4,5
EndSplineSet
EndChar

StartChar: lslash
Encoding: 322 322 66
Width: 607
Flags: W
LayerCount: 2
Fore
SplineSet
175 631 m 1,0,-1
 85 539 l 1,1,-1
 -33 660 l 1,2,-1
 175 873 l 1,3,-1
 175 1810 l 1,4,-1
 427 1810 l 1,5,-1
 427 1131 l 1,6,-1
 522 1228 l 1,7,-1
 640 1106 l 1,8,-1
 427 888 l 1,9,-1
 427 0 l 1,10,-1
 175 0 l 1,11,-1
 175 631 l 1,0,-1
EndSplineSet
EndChar

StartChar: Thorn
Encoding: 222 222 67
Width: 1002
Flags: W
LayerCount: 2
Fore
SplineSet
146 1708 m 1,0,-1
 403 1708 l 1,1,-1
 403 1453 l 1,2,-1
 414 1453 l 2,3,4
 462 1453 462 1453 519.5 1449 c 128,-1,5
 577 1445 577 1445 634.5 1428 c 128,-1,6
 692 1411 692 1411 745.5 1377.5 c 128,-1,7
 799 1344 799 1344 840.5 1285.5 c 128,-1,8
 882 1227 882 1227 907 1139 c 128,-1,9
 932 1051 932 1051 932 925 c 2,10,-1
 932 864 l 2,11,12
 932 727 932 727 908.5 629.5 c 128,-1,13
 885 532 885 532 846 465.5 c 128,-1,14
 807 399 807 399 755.5 359 c 128,-1,15
 704 319 704 319 648.5 298 c 128,-1,16
 593 277 593 277 536.5 270.5 c 128,-1,17
 480 264 480 264 430 264 c 2,18,-1
 405 264 l 1,19,-1
 405 0 l 1,20,-1
 146 0 l 1,21,-1
 146 1708 l 1,0,-1
418 455 m 2,22,23
 488 455 488 455 536 475.5 c 128,-1,24
 584 496 584 496 612.5 539.5 c 128,-1,25
 641 583 641 583 653.5 651.5 c 128,-1,26
 666 720 666 720 666 817 c 2,27,-1
 666 970 l 2,28,29
 666 1046 666 1046 655 1101.5 c 128,-1,30
 644 1157 644 1157 615.5 1193.5 c 128,-1,31
 587 1230 587 1230 539 1247.5 c 128,-1,32
 491 1265 491 1265 418 1265 c 2,33,-1
 405 1265 l 1,34,-1
 405 455 l 1,35,-1
 418 455 l 2,22,23
EndSplineSet
EndChar

StartChar: OE
Encoding: 338 338 68
Width: 1370
Flags: W
LayerCount: 2
Fore
SplineSet
103 1077 m 2,0,1
 103 1227 103 1227 129.5 1332.5 c 128,-1,2
 156 1438 156 1438 199.5 1508 c 128,-1,3
 243 1578 243 1578 299.5 1618 c 128,-1,4
 356 1658 356 1658 416 1678 c 128,-1,5
 476 1698 476 1698 535.5 1703 c 128,-1,6
 595 1708 595 1708 644 1708 c 2,7,-1
 1298 1708 l 1,8,-1
 1298 1503 l 1,9,-1
 904 1503 l 1,10,-1
 904 995 l 1,11,-1
 1211 995 l 1,12,-1
 1211 771 l 1,13,-1
 904 771 l 1,14,-1
 904 205 l 1,15,-1
 1298 205 l 1,16,-1
 1298 0 l 1,17,-1
 644 0 l 2,18,19
 595 0 595 0 535.5 5 c 128,-1,20
 476 10 476 10 416 29.5 c 128,-1,21
 356 49 356 49 299.5 89 c 128,-1,22
 243 129 243 129 199.5 199.5 c 128,-1,23
 156 270 156 270 129.5 375 c 128,-1,24
 103 480 103 480 103 631 c 2,25,-1
 103 1077 l 2,0,1
647 187 m 1,26,-1
 647 1521 l 1,27,-1
 631 1521 l 2,28,29
 557 1521 557 1521 507 1497 c 128,-1,30
 457 1473 457 1473 427 1423.5 c 128,-1,31
 397 1374 397 1374 384 1299.5 c 128,-1,32
 371 1225 371 1225 371 1123 c 2,33,-1
 371 582 l 2,34,35
 371 477 371 477 385 402.5 c 128,-1,36
 399 328 399 328 430.5 280 c 128,-1,37
 462 232 462 232 511 209.5 c 128,-1,38
 560 187 560 187 631 187 c 2,39,-1
 647 187 l 1,26,-1
EndSplineSet
EndChar

StartChar: AE
Encoding: 198 198 69
Width: 1266
Flags: W
LayerCount: 2
Fore
SplineSet
443 1708 m 1,0,-1
 1240 1708 l 1,1,-1
 1240 1503 l 1,2,-1
 846 1503 l 1,3,-1
 846 995 l 1,4,-1
 1153 995 l 1,5,-1
 1153 771 l 1,6,-1
 846 771 l 1,7,-1
 846 205 l 1,8,-1
 1240 205 l 1,9,-1
 1240 0 l 1,10,-1
 590 0 l 1,11,-1
 590 306 l 1,12,-1
 335 306 l 1,13,-1
 272 0 l 1,14,-1
 11 0 l 1,15,-1
 443 1708 l 1,0,-1
590 492 m 1,16,-1
 590 1356 l 1,17,-1
 553 1356 l 1,18,-1
 374 492 l 1,19,-1
 590 492 l 1,16,-1
EndSplineSet
EndChar

StartChar: plus
Encoding: 43 43 71
Width: 835
Flags: W
LayerCount: 2
Fore
SplineSet
317 691 m 1,0,-1
 45 691 l 1,1,-1
 45 887 l 1,2,-1
 317 887 l 1,3,-1
 317 1200 l 1,4,-1
 516 1200 l 1,5,-1
 516 887 l 1,6,-1
 790 887 l 1,7,-1
 790 691 l 1,8,-1
 516 691 l 1,9,-1
 516 368 l 1,10,-1
 317 368 l 1,11,-1
 317 691 l 1,0,-1
EndSplineSet
EndChar

StartChar: divide
Encoding: 247 247 72
Width: 835
Flags: W
LayerCount: 2
Fore
SplineSet
418 1043 m 0,0,1
 358 1043 358 1043 320.5 1085 c 128,-1,2
 283 1127 283 1127 283 1205 c 0,3,4
 283 1292 283 1292 320 1327.5 c 128,-1,5
 357 1363 357 1363 419 1363 c 0,6,7
 482 1363 482 1363 514.5 1324.5 c 128,-1,8
 547 1286 547 1286 547 1205 c 0,9,10
 547 1130 547 1130 514 1086.5 c 128,-1,11
 481 1043 481 1043 418 1043 c 0,0,1
45 887 m 1,12,-1
 790 887 l 1,13,-1
 790 691 l 1,14,-1
 45 691 l 1,15,-1
 45 887 l 1,12,-1
417 215 m 0,16,17
 357 215 357 215 319.5 257 c 128,-1,18
 282 299 282 299 282 377 c 0,19,20
 282 464 282 464 319 499.5 c 128,-1,21
 356 535 356 535 418 535 c 0,22,23
 481 535 481 535 513.5 496.5 c 128,-1,24
 546 458 546 458 546 377 c 0,25,26
 546 302 546 302 513 258.5 c 128,-1,27
 480 215 480 215 417 215 c 0,16,17
EndSplineSet
EndChar

StartChar: plusminus
Encoding: 177 177 73
Width: 916
Flags: W
LayerCount: 2
Fore
SplineSet
357 860 m 1,0,-1
 86 860 l 1,1,-1
 86 1055 l 1,2,-1
 357 1055 l 1,3,-1
 357 1369 l 1,4,-1
 556 1369 l 1,5,-1
 556 1055 l 1,6,-1
 830 1055 l 1,7,-1
 830 860 l 1,8,-1
 556 860 l 1,9,-1
 556 537 l 1,10,-1
 357 537 l 1,11,-1
 357 860 l 1,0,-1
86 364 m 1,12,-1
 830 364 l 1,13,-1
 830 169 l 1,14,-1
 86 169 l 1,15,-1
 86 364 l 1,12,-1
EndSplineSet
EndChar

StartChar: hyphen
Encoding: 45 45 74
Width: 997
Flags: W
LayerCount: 2
Fore
SplineSet
126 888 m 1,0,-1
 871 888 l 1,1,-1
 871 685 l 1,2,-1
 126 685 l 1,3,-1
 126 888 l 1,0,-1
EndSplineSet
EndChar

StartChar: endash
Encoding: 8211 8211 75
Width: 1381
Flags: W
LayerCount: 2
Fore
SplineSet
126 888 m 1,0,-1
 1254 888 l 1,1,-1
 1254 685 l 1,2,-1
 126 685 l 1,3,-1
 126 888 l 1,0,-1
EndSplineSet
EndChar

StartChar: emdash
Encoding: 8212 8212 76
Width: 1647
Flags: W
LayerCount: 2
Fore
SplineSet
126 888 m 1,0,-1
 1521 888 l 1,1,-1
 1521 685 l 1,2,-1
 126 685 l 1,3,-1
 126 888 l 1,0,-1
EndSplineSet
EndChar

StartChar: comma
Encoding: 44 44 79
Width: 512
Flags: W
LayerCount: 2
Fore
SplineSet
155 350 m 1,0,-1
 412 350 l 1,1,-1
 266 -327 l 1,2,-1
 55 -327 l 1,3,-1
 155 350 l 1,0,-1
EndSplineSet
EndChar

StartChar: bullet
Encoding: 8226 8226 80
Width: 711
Flags: W
LayerCount: 2
Fore
SplineSet
350 532 m 0,0,1
 295 532 295 532 254.5 551.5 c 128,-1,2
 214 571 214 571 187 603.5 c 128,-1,3
 160 636 160 636 147 678 c 128,-1,4
 134 720 134 720 134 764 c 0,5,6
 134 812 134 812 147 856 c 128,-1,7
 160 900 160 900 186.5 933.5 c 128,-1,8
 213 967 213 967 253.5 987.5 c 128,-1,9
 294 1008 294 1008 350 1008 c 0,10,11
 407 1008 407 1008 449.5 988 c 128,-1,12
 492 968 492 968 520.5 934.5 c 128,-1,13
 549 901 549 901 563 856.5 c 128,-1,14
 577 812 577 812 577 764 c 0,15,16
 577 722 577 722 563 680.5 c 128,-1,17
 549 639 549 639 520.5 606 c 128,-1,18
 492 573 492 573 449.5 552.5 c 128,-1,19
 407 532 407 532 350 532 c 0,0,1
EndSplineSet
EndChar

StartChar: one
Encoding: 49 49 82
Width: 830
Flags: W
LayerCount: 2
Fore
SplineSet
152 195 m 1,0,-1
 350 195 l 1,1,-1
 350 1360 l 1,2,-1
 138 1173 l 1,3,-1
 26 1304 l 1,4,-1
 414 1708 l 1,5,-1
 607 1708 l 1,6,-1
 606 1706 l 1,7,-1
 607 1707 l 1,8,-1
 607 195 l 1,9,-1
 804 195 l 1,10,-1
 804 0 l 1,11,-1
 152 0 l 1,12,-1
 152 195 l 1,0,-1
EndSplineSet
Substitution2: "'sups' Superscript in Latin lookup 2 subtable" onesuperior
EndChar

StartChar: zero
Encoding: 48 48 83
Width: 1047
Flags: W
LayerCount: 2
Fore
SplineSet
105 1220 m 2,0,1
 105 1332 105 1332 125.5 1413.5 c 128,-1,2
 146 1495 146 1495 179.5 1550.5 c 128,-1,3
 213 1606 213 1606 257 1640 c 128,-1,4
 301 1674 301 1674 347.5 1692.5 c 128,-1,5
 394 1711 394 1711 440.5 1717 c 128,-1,6
 487 1723 487 1723 526 1723 c 0,7,8
 563 1723 563 1723 608.5 1717.5 c 128,-1,9
 654 1712 654 1712 700.5 1694.5 c 128,-1,10
 747 1677 747 1677 790.5 1643.5 c 128,-1,11
 834 1610 834 1610 867.5 1554 c 128,-1,12
 901 1498 901 1498 921.5 1416 c 128,-1,13
 942 1334 942 1334 942 1220 c 2,14,-1
 942 498 l 2,15,16
 942 386 942 386 921.5 304.5 c 128,-1,17
 901 223 901 223 867 166 c 128,-1,18
 833 109 833 109 789 73.5 c 128,-1,19
 745 38 745 38 699 18.5 c 128,-1,20
 653 -1 653 -1 607.5 -8 c 128,-1,21
 562 -15 562 -15 526 -15 c 0,22,23
 486 -15 486 -15 439 -8 c 128,-1,24
 392 -1 392 -1 345 18.5 c 128,-1,25
 298 38 298 38 254.5 73 c 128,-1,26
 211 108 211 108 178 165 c 128,-1,27
 145 222 145 222 125 304 c 128,-1,28
 105 386 105 386 105 498 c 2,29,-1
 105 1220 l 2,0,1
370 389 m 2,30,31
 370 283 370 283 408.5 235 c 128,-1,32
 447 187 447 187 526 187 c 0,33,34
 603 187 603 187 641 235 c 128,-1,35
 679 283 679 283 679 389 c 2,36,-1
 679 1314 l 2,37,38
 679 1426 679 1426 641 1477 c 128,-1,39
 603 1528 603 1528 526 1528 c 0,40,41
 447 1528 447 1528 408.5 1477 c 128,-1,42
 370 1426 370 1426 370 1314 c 2,43,-1
 370 389 l 2,30,31
EndSplineSet
EndChar

StartChar: eth
Encoding: 240 240 84
Width: 970
Flags: W
LayerCount: 2
Fore
SplineSet
489 -15 m 0,0,1
 445 -15 445 -15 398.5 -8.5 c 128,-1,2
 352 -2 352 -2 308 19.5 c 128,-1,3
 264 41 264 41 225.5 81.5 c 128,-1,4
 187 122 187 122 157.5 190 c 128,-1,5
 128 258 128 258 111 357.5 c 128,-1,6
 94 457 94 457 94 597 c 2,7,-1
 94 795 l 2,8,9
 94 932 94 932 113 1028.5 c 128,-1,10
 132 1125 132 1125 162 1189.5 c 128,-1,11
 192 1254 192 1254 230.5 1291.5 c 128,-1,12
 269 1329 269 1329 308.5 1348 c 128,-1,13
 348 1367 348 1367 384 1372 c 128,-1,14
 420 1377 420 1377 447 1377 c 0,15,16
 460 1377 460 1377 478.5 1376.5 c 128,-1,17
 497 1376 497 1376 514 1374.5 c 128,-1,18
 531 1373 531 1373 545 1371 c 128,-1,19
 559 1369 559 1369 563 1367 c 1,20,21
 543 1445 543 1445 506 1512 c 128,-1,22
 469 1579 469 1579 426 1632 c 1,23,-1
 323 1509 l 1,24,-1
 196 1615 l 1,25,-1
 299 1743 l 1,26,27
 258 1766 258 1766 213.5 1779 c 128,-1,28
 169 1792 169 1792 120 1793 c 1,29,-1
 120 1959 l 1,30,31
 201 1959 201 1959 274 1939 c 128,-1,32
 347 1919 347 1919 411 1882 c 1,33,-1
 522 2020 l 1,34,-1
 654 1904 l 1,35,-1
 547 1777 l 1,36,37
 627 1697 627 1697 688 1588.5 c 128,-1,38
 749 1480 749 1480 790 1352 c 128,-1,39
 831 1224 831 1224 852 1081 c 128,-1,40
 873 938 873 938 873 789 c 2,41,-1
 873 597 l 2,42,43
 873 460 873 460 855.5 361 c 128,-1,44
 838 262 838 262 808.5 194 c 128,-1,45
 779 126 779 126 740.5 85 c 128,-1,46
 702 44 702 44 659.5 21.5 c 128,-1,47
 617 -1 617 -1 573 -8 c 128,-1,48
 529 -15 529 -15 489 -15 c 0,0,1
491 180 m 0,49,50
 528 180 528 180 551 197.5 c 128,-1,51
 574 215 574 215 586.5 255.5 c 128,-1,52
 599 296 599 296 603 360.5 c 128,-1,53
 607 425 607 425 607 520 c 2,54,-1
 607 1158 l 1,55,56
 593 1182 593 1182 568 1195 c 128,-1,57
 543 1208 543 1208 491 1208 c 0,58,59
 459 1208 459 1208 436 1196 c 128,-1,60
 413 1184 413 1184 398 1148.5 c 128,-1,61
 383 1113 383 1113 375.5 1049 c 128,-1,62
 368 985 368 985 368 881 c 2,63,-1
 368 520 l 2,64,65
 368 425 368 425 372.5 360.5 c 128,-1,66
 377 296 377 296 390.5 255.5 c 128,-1,67
 404 215 404 215 428 197.5 c 128,-1,68
 452 180 452 180 491 180 c 0,49,50
EndSplineSet
EndChar

StartChar: paragraph
Encoding: 182 182 85
Width: 1101
Flags: W
LayerCount: 2
Fore
SplineSet
683 1708 m 1,0,-1
 941 1708 l 1,1,-1
 941 0 l 1,2,-1
 683 0 l 1,3,-1
 683 1708 l 1,0,-1
481 520 m 2,4,5
 447 520 447 520 405.5 524.5 c 128,-1,6
 364 529 364 529 322 548 c 128,-1,7
 280 567 280 567 239.5 604.5 c 128,-1,8
 199 642 199 642 168 709 c 128,-1,9
 137 776 137 776 118 876 c 128,-1,10
 99 976 99 976 99 1119 c 2,11,-1
 99 1179 l 2,12,13
 99 1305 99 1305 118 1393 c 128,-1,14
 137 1481 137 1481 168 1539.5 c 128,-1,15
 199 1598 199 1598 239.5 1632 c 128,-1,16
 280 1666 280 1666 322 1682.5 c 128,-1,17
 364 1699 364 1699 405.5 1703.5 c 128,-1,18
 447 1708 447 1708 481 1708 c 2,19,-1
 512 1708 l 1,20,-1
 512 520 l 1,21,-1
 481 520 l 2,4,5
EndSplineSet
EndChar

StartChar: section
Encoding: 167 167 86
Width: 1062
Flags: W
LayerCount: 2
Fore
SplineSet
166 -45 m 0,0,1
 166 11 166 11 172.5 57.5 c 128,-1,2
 179 104 179 104 193 160 c 1,3,-1
 373 160 l 1,4,-1
 373 51 l 2,5,6
 373 -10 373 -10 384.5 -54 c 128,-1,7
 396 -98 396 -98 416 -127 c 128,-1,8
 436 -156 436 -156 462.5 -170 c 128,-1,9
 489 -184 489 -184 519 -184 c 0,10,11
 553 -184 553 -184 578.5 -171.5 c 128,-1,12
 604 -159 604 -159 621 -137.5 c 128,-1,13
 638 -116 638 -116 647 -87 c 128,-1,14
 656 -58 656 -58 656 -25 c 0,15,16
 656 6 656 6 647 33.5 c 128,-1,17
 638 61 638 61 618.5 91 c 128,-1,18
 599 121 599 121 568 156.5 c 128,-1,19
 537 192 537 192 493 237 c 2,20,-1
 336 397 l 2,21,22
 288 446 288 446 250.5 491 c 128,-1,23
 213 536 213 536 187.5 582 c 128,-1,24
 162 628 162 628 149 678.5 c 128,-1,25
 136 729 136 729 136 791 c 0,26,27
 136 901 136 901 185.5 985 c 128,-1,28
 235 1069 235 1069 321 1120 c 1,29,30
 281 1165 281 1165 251.5 1208 c 128,-1,31
 222 1251 222 1251 203 1295 c 128,-1,32
 184 1339 184 1339 175 1385 c 128,-1,33
 166 1431 166 1431 166 1482 c 0,34,35
 166 1558 166 1558 191.5 1621 c 128,-1,36
 217 1684 217 1684 266 1730 c 128,-1,37
 315 1776 315 1776 384.5 1801.5 c 128,-1,38
 454 1827 454 1827 543 1827 c 0,39,40
 638 1827 638 1827 705.5 1798 c 128,-1,41
 773 1769 773 1769 815.5 1722.5 c 128,-1,42
 858 1676 858 1676 877.5 1618.5 c 128,-1,43
 897 1561 897 1561 897 1503 c 0,44,45
 897 1447 897 1447 890.5 1400 c 128,-1,46
 884 1353 884 1353 870 1297 c 1,47,-1
 690 1297 l 1,48,-1
 690 1406 l 2,49,50
 690 1467 690 1467 678.5 1511.5 c 128,-1,51
 667 1556 667 1556 646.5 1585 c 128,-1,52
 626 1614 626 1614 599.5 1628 c 128,-1,53
 573 1642 573 1642 543 1642 c 0,54,55
 509 1642 509 1642 483.5 1629.5 c 128,-1,56
 458 1617 458 1617 440.5 1595.5 c 128,-1,57
 423 1574 423 1574 414.5 1544.5 c 128,-1,58
 406 1515 406 1515 406 1482 c 0,59,60
 406 1452 406 1452 415 1424 c 128,-1,61
 424 1396 424 1396 443.5 1366 c 128,-1,62
 463 1336 463 1336 494 1301 c 128,-1,63
 525 1266 525 1266 570 1221 c 1,64,-1
 726 1060 l 2,65,66
 774 1011 774 1011 811.5 966.5 c 128,-1,67
 849 922 849 922 874.5 876 c 128,-1,68
 900 830 900 830 913 779 c 128,-1,69
 926 728 926 728 926 666 c 0,70,71
 926 556 926 556 876 471.5 c 128,-1,72
 826 387 826 387 741 336 c 1,73,74
 781 291 781 291 810.5 248 c 128,-1,75
 840 205 840 205 859 161.5 c 128,-1,76
 878 118 878 118 887.5 72 c 128,-1,77
 897 26 897 26 897 -25 c 0,78,79
 897 -100 897 -100 871 -163.5 c 128,-1,80
 845 -227 845 -227 796.5 -272.5 c 128,-1,81
 748 -318 748 -318 677.5 -343.5 c 128,-1,82
 607 -369 607 -369 519 -369 c 0,83,84
 424 -369 424 -369 357 -340 c 128,-1,85
 290 -311 290 -311 247.5 -265 c 128,-1,86
 205 -219 205 -219 185.5 -161 c 128,-1,87
 166 -103 166 -103 166 -45 c 0,0,1
619 461 m 1,88,89
 655 491 655 491 678 535.5 c 128,-1,90
 701 580 701 580 701 635 c 0,91,92
 701 665 701 665 693.5 693 c 128,-1,93
 686 721 686 721 670.5 749.5 c 128,-1,94
 655 778 655 778 630 808 c 128,-1,95
 605 838 605 838 569 873 c 2,96,-1
 442 996 l 1,97,98
 407 966 407 966 384.5 921.5 c 128,-1,99
 362 877 362 877 362 823 c 0,100,101
 362 793 362 793 369.5 765 c 128,-1,102
 377 737 377 737 392.5 708.5 c 128,-1,103
 408 680 408 680 433 649.5 c 128,-1,104
 458 619 458 619 494 584 c 2,105,-1
 619 461 l 1,88,89
EndSplineSet
EndChar

StartChar: equal
Encoding: 61 61 87
Width: 916
Flags: W
LayerCount: 2
Fore
SplineSet
86 1090 m 1,0,-1
 830 1090 l 1,1,-1
 830 895 l 1,2,-1
 86 895 l 1,3,-1
 86 1090 l 1,0,-1
86 683 m 1,4,-1
 830 683 l 1,5,-1
 830 488 l 1,6,-1
 86 488 l 1,7,-1
 86 683 l 1,4,-1
EndSplineSet
EndChar

StartChar: bar
Encoding: 124 124 88
Width: 714
Flags: W
LayerCount: 2
Fore
SplineSet
247 1884 m 1,0,-1
 467 1884 l 1,1,-1
 467 -326 l 1,2,-1
 247 -326 l 1,3,-1
 247 1884 l 1,0,-1
EndSplineSet
EndChar

StartChar: brokenbar
Encoding: 166 166 89
Width: 714
Flags: W
LayerCount: 2
Fore
SplineSet
247 1884 m 1,0,-1
 467 1884 l 1,1,-1
 467 940 l 1,2,-1
 247 940 l 1,3,-1
 247 1884 l 1,0,-1
247 683 m 1,4,-1
 467 683 l 1,5,-1
 467 -326 l 1,6,-1
 247 -326 l 1,7,-1
 247 683 l 1,4,-1
EndSplineSet
EndChar

StartChar: slash
Encoding: 47 47 90
Width: 552
Flags: W
LayerCount: 2
Fore
SplineSet
323 1884 m 1,0,-1
 542 1884 l 1,1,-1
 229 -326 l 1,2,-1
 10 -326 l 1,3,-1
 323 1884 l 1,0,-1
EndSplineSet
EndChar

StartChar: backslash
Encoding: 92 92 91
Width: 552
Flags: W
LayerCount: 2
Fore
SplineSet
10 1884 m 1,0,-1
 229 1884 l 1,1,-1
 542 -326 l 1,2,-1
 323 -326 l 1,3,-1
 10 1884 l 1,0,-1
EndSplineSet
EndChar

StartChar: numbersign
Encoding: 35 35 92
Width: 1108
Flags: W
LayerCount: 2
Fore
SplineSet
237 385 m 1,0,-1
 96 385 l 1,1,-1
 96 567 l 1,2,-1
 250 567 l 1,3,-1
 269 809 l 1,4,-1
 136 809 l 1,5,-1
 136 991 l 1,6,-1
 282 991 l 1,7,-1
 310 1369 l 1,8,-1
 489 1369 l 1,9,-1
 461 991 l 1,10,-1
 699 991 l 1,11,-1
 727 1369 l 1,12,-1
 906 1369 l 1,13,-1
 878 991 l 1,14,-1
 1012 991 l 1,15,-1
 1012 809 l 1,16,-1
 865 809 l 1,17,-1
 846 567 l 1,18,-1
 972 567 l 1,19,-1
 972 385 l 1,20,-1
 833 385 l 1,21,-1
 805 0 l 1,22,-1
 626 0 l 1,23,-1
 654 385 l 1,24,-1
 416 385 l 1,25,-1
 388 0 l 1,26,-1
 209 0 l 1,27,-1
 237 385 l 1,0,-1
668 567 m 1,28,-1
 686 809 l 1,29,-1
 447 809 l 1,30,-1
 429 567 l 1,31,-1
 668 567 l 1,28,-1
EndSplineSet
EndChar

StartChar: cent
Encoding: 162 162 93
Width: 899
Flags: W
LayerCount: 2
Fore
SplineSet
395 -8 m 1,0,1
 326 5 326 5 273.5 44.5 c 128,-1,2
 221 84 221 84 185 154 c 128,-1,3
 149 224 149 224 131 325.5 c 128,-1,4
 113 427 113 427 113 564 c 2,5,-1
 113 824 l 2,6,7
 113 926 113 926 124.5 1004.5 c 128,-1,8
 136 1083 136 1083 156.5 1142.5 c 128,-1,9
 177 1202 177 1202 204 1243.5 c 128,-1,10
 231 1285 231 1285 262.5 1313 c 128,-1,11
 294 1341 294 1341 327.5 1357 c 128,-1,12
 361 1373 361 1373 394 1381 c 1,13,-1
 394 1623 l 1,14,-1
 580 1623 l 1,15,-1
 580 1386 l 1,16,17
 633 1377 633 1377 676.5 1354 c 128,-1,18
 720 1331 720 1331 750.5 1294 c 128,-1,19
 781 1257 781 1257 797.5 1206.5 c 128,-1,20
 814 1156 814 1156 814 1090 c 0,21,22
 814 1042 814 1042 809.5 1007.5 c 128,-1,23
 805 973 805 973 797 941 c 1,24,-1
 605 941 l 1,25,-1
 605 987 l 2,26,27
 605 1091 605 1091 576.5 1149.5 c 128,-1,28
 548 1208 548 1208 492 1208 c 0,29,30
 461 1208 461 1208 437.5 1192.5 c 128,-1,31
 414 1177 414 1177 398.5 1140.5 c 128,-1,32
 383 1104 383 1104 375 1044 c 128,-1,33
 367 984 367 984 367 895 c 2,34,-1
 367 501 l 2,35,36
 367 411 367 411 373.5 349.5 c 128,-1,37
 380 288 380 288 395.5 250.5 c 128,-1,38
 411 213 411 213 436 196.5 c 128,-1,39
 461 180 461 180 498 180 c 0,40,41
 517 180 517 180 536 189.5 c 128,-1,42
 555 199 555 199 570.5 221 c 128,-1,43
 586 243 586 243 595.5 279.5 c 128,-1,44
 605 316 605 316 605 370 c 2,45,-1
 605 423 l 1,46,-1
 810 423 l 1,47,-1
 810 360 l 2,48,49
 810 198 810 198 753.5 110 c 128,-1,50
 697 22 697 22 581 -4 c 1,51,-1
 581 -258 l 1,52,-1
 395 -258 l 1,53,-1
 395 -8 l 1,54,-1
 395 -8 l 1,0,1
EndSplineSet
EndChar

StartChar: dollar
Encoding: 36 36 94
Width: 1006
Flags: W
LayerCount: 2
Fore
SplineSet
97 346 m 0,0,1
 97 401 97 401 103.5 447.5 c 128,-1,2
 110 494 110 494 123 548 c 1,3,-1
 324 548 l 1,4,-1
 324 466 l 2,5,6
 324 327 324 327 366 254 c 128,-1,7
 408 181 408 181 495 181 c 0,8,9
 569 181 569 181 605.5 218.5 c 128,-1,10
 642 256 642 256 642 328 c 0,11,12
 642 356 642 356 636.5 386.5 c 128,-1,13
 631 417 631 417 617.5 451 c 128,-1,14
 604 485 604 485 581 524 c 128,-1,15
 558 563 558 563 522 608 c 2,16,-1
 259 947 l 2,17,18
 188 1038 188 1038 148 1130.5 c 128,-1,19
 108 1223 108 1223 108 1336 c 0,20,21
 108 1411 108 1411 129.5 1475.5 c 128,-1,22
 151 1540 151 1540 191.5 1589.5 c 128,-1,23
 232 1639 232 1639 290.5 1671.5 c 128,-1,24
 349 1704 349 1704 424 1716 c 1,25,-1
 424 1944 l 1,26,-1
 610 1944 l 1,27,-1
 610 1714 l 1,28,29
 692 1700 692 1700 747.5 1664 c 128,-1,30
 803 1628 803 1628 837 1579.5 c 128,-1,31
 871 1531 871 1531 885.5 1474.5 c 128,-1,32
 900 1418 900 1418 900 1361 c 0,33,34
 900 1306 900 1306 892 1259.5 c 128,-1,35
 884 1213 884 1213 873 1157 c 1,36,-1
 673 1157 l 1,37,-1
 673 1239 l 2,38,39
 673 1375 673 1375 630 1447.5 c 128,-1,40
 587 1520 587 1520 506 1520 c 0,41,42
 433 1520 433 1520 395.5 1479.5 c 128,-1,43
 358 1439 358 1439 358 1371 c 0,44,45
 358 1313 358 1313 381.5 1265.5 c 128,-1,46
 405 1218 405 1218 443 1168 c 2,47,-1
 738 786 l 2,48,49
 779 732 779 732 811 682 c 128,-1,50
 843 632 843 632 864.5 582 c 128,-1,51
 886 532 886 532 897 479.5 c 128,-1,52
 908 427 908 427 908 368 c 0,53,54
 908 294 908 294 887.5 232 c 128,-1,55
 867 170 867 170 828.5 122 c 128,-1,56
 790 74 790 74 735 42 c 128,-1,57
 680 10 680 10 611 -4 c 1,58,-1
 611 -255 l 1,59,-1
 425 -255 l 1,60,-1
 425 -12 l 1,61,62
 330 -3 330 -3 267 31 c 128,-1,63
 204 65 204 65 166.5 114 c 128,-1,64
 129 163 129 163 113 223 c 128,-1,65
 97 283 97 283 97 346 c 0,0,1
EndSplineSet
EndChar

StartChar: bracketright
Encoding: 93 93 95
Width: 776
Flags: W
LayerCount: 2
Fore
SplineSet
415 -66 m 1,0,-1
 415 1771 l 1,1,-1
 131 1771 l 1,2,-1
 131 1963 l 1,3,-1
 636 1963 l 1,4,-1
 636 -256 l 1,5,-1
 131 -256 l 1,6,-1
 131 -66 l 1,7,-1
 415 -66 l 1,0,-1
EndSplineSet
EndChar

StartChar: parenright
Encoding: 41 41 96
Width: 776
Flags: W
LayerCount: 2
Fore
SplineSet
121 -83 m 1,0,1
 190 -83 190 -83 245 -36 c 128,-1,2
 300 11 300 11 337.5 109 c 128,-1,3
 375 207 375 207 395 356.5 c 128,-1,4
 415 506 415 506 415 712 c 2,5,-1
 415 1003 l 2,6,7
 415 1391 415 1391 340.5 1590.5 c 128,-1,8
 266 1790 266 1790 121 1790 c 1,9,-1
 121 1963 l 1,10,11
 157 1963 157 1963 199 1959 c 128,-1,12
 241 1955 241 1955 284.5 1941 c 128,-1,13
 328 1927 328 1927 371.5 1898.5 c 128,-1,14
 415 1870 415 1870 455 1821 c 128,-1,15
 495 1772 495 1772 529.5 1698.5 c 128,-1,16
 564 1625 564 1625 589.5 1520 c 128,-1,17
 615 1415 615 1415 629.5 1276 c 128,-1,18
 644 1137 644 1137 644 957 c 2,19,-1
 644 760 l 2,20,21
 644 576 644 576 629.5 435 c 128,-1,22
 615 294 615 294 589.5 188 c 128,-1,23
 564 82 564 82 529.5 8 c 128,-1,24
 495 -66 495 -66 455 -115.5 c 128,-1,25
 415 -165 415 -165 371.5 -193.5 c 128,-1,26
 328 -222 328 -222 284.5 -236 c 128,-1,27
 241 -250 241 -250 199 -253.5 c 128,-1,28
 157 -257 157 -257 121 -257 c 1,29,-1
 121 -83 l 1,30,-1
 121 -83 l 1,0,1
EndSplineSet
EndChar

StartChar: parenleft
Encoding: 40 40 97
Width: 776
Flags: W
LayerCount: 2
Fore
SplineSet
654 -257 m 1,0,1
 618 -257 618 -257 576.5 -253.5 c 128,-1,2
 535 -250 535 -250 491.5 -236 c 128,-1,3
 448 -222 448 -222 404.5 -193.5 c 128,-1,4
 361 -165 361 -165 320.5 -115.5 c 128,-1,5
 280 -66 280 -66 245.5 8 c 128,-1,6
 211 82 211 82 185.5 188 c 128,-1,7
 160 294 160 294 145.5 435 c 128,-1,8
 131 576 131 576 131 760 c 2,9,-1
 131 957 l 2,10,11
 131 1137 131 1137 145.5 1276 c 128,-1,12
 160 1415 160 1415 185.5 1520 c 128,-1,13
 211 1625 211 1625 245.5 1698.5 c 128,-1,14
 280 1772 280 1772 320.5 1821 c 128,-1,15
 361 1870 361 1870 404.5 1898.5 c 128,-1,16
 448 1927 448 1927 491.5 1941 c 128,-1,17
 535 1955 535 1955 576.5 1959 c 128,-1,18
 618 1963 618 1963 654 1963 c 1,19,-1
 654 1790 l 1,20,21
 509 1790 509 1790 435 1591.5 c 128,-1,22
 361 1393 361 1393 361 1003 c 2,23,-1
 361 712 l 2,24,25
 361 506 361 506 381 356.5 c 128,-1,26
 401 207 401 207 438.5 109 c 128,-1,27
 476 11 476 11 530.5 -36 c 128,-1,28
 585 -83 585 -83 654 -83 c 1,29,-1
 654 -257 l 1,0,1
EndSplineSet
EndChar

StartChar: yen
Encoding: 165 165 98
Width: 1006
Flags: W
LayerCount: 2
Fore
SplineSet
137 396 m 1,0,-1
 373 396 l 1,1,-1
 373 547 l 1,2,-1
 137 547 l 1,3,-1
 137 727 l 1,4,-1
 373 727 l 1,5,-1
 38 1708 l 1,6,-1
 299 1708 l 1,7,-1
 497 992 l 1,8,-1
 509 992 l 1,9,-1
 707 1708 l 1,10,-1
 968 1708 l 1,11,-1
 631 727 l 1,12,-1
 866 727 l 1,13,-1
 866 547 l 1,14,-1
 631 547 l 1,15,-1
 631 396 l 1,16,-1
 866 396 l 1,17,-1
 866 217 l 1,18,-1
 631 217 l 1,19,-1
 631 0 l 1,20,-1
 373 0 l 1,21,-1
 373 217 l 1,22,-1
 137 217 l 1,23,-1
 137 396 l 1,0,-1
EndSplineSet
EndChar

StartChar: Euro
Encoding: 8364 8364 99
Width: 1038
Flags: W
LayerCount: 2
Fore
SplineSet
4 726 m 1,0,-1
 158 726 l 1,1,-1
 158 877 l 1,2,-1
 4 877 l 1,3,-1
 4 1056 l 1,4,-1
 158 1056 l 1,5,-1
 158 1161 l 2,6,7
 158 1290 158 1290 179 1381.5 c 128,-1,8
 200 1473 200 1473 234.5 1535.5 c 128,-1,9
 269 1598 269 1598 313.5 1635 c 128,-1,10
 358 1672 358 1672 406.5 1691.5 c 128,-1,11
 455 1711 455 1711 503 1717 c 128,-1,12
 551 1723 551 1723 592 1723 c 0,13,14
 693 1723 693 1723 762 1697 c 128,-1,15
 831 1671 831 1671 874 1625 c 128,-1,16
 917 1579 917 1579 935.5 1517.5 c 128,-1,17
 954 1456 954 1456 954 1386 c 0,18,19
 954 1350 954 1350 951.5 1324 c 128,-1,20
 949 1298 949 1298 945.5 1276.5 c 128,-1,21
 942 1255 942 1255 937 1235.5 c 128,-1,22
 932 1216 932 1216 927 1194 c 1,23,-1
 727 1194 l 1,24,-1
 727 1259 l 2,25,26
 727 1398 727 1398 690.5 1459 c 128,-1,27
 654 1520 654 1520 585 1520 c 0,28,29
 547 1520 547 1520 517 1506 c 128,-1,30
 487 1492 487 1492 466 1458.5 c 128,-1,31
 445 1425 445 1425 434 1370 c 128,-1,32
 423 1315 423 1315 423 1233 c 2,33,-1
 423 1056 l 1,34,-1
 745 1056 l 1,35,-1
 716 877 l 1,36,-1
 423 877 l 1,37,-1
 423 726 l 1,38,-1
 690 726 l 1,39,-1
 658 546 l 1,40,-1
 423 546 l 1,41,-1
 423 456 l 2,42,43
 423 376 423 376 434.5 323.5 c 128,-1,44
 446 271 446 271 468.5 239 c 128,-1,45
 491 207 491 207 524.5 194 c 128,-1,46
 558 181 558 181 603 181 c 0,47,48
 637 181 637 181 665.5 192 c 128,-1,49
 694 203 694 203 715 225.5 c 128,-1,50
 736 248 736 248 747.5 283 c 128,-1,51
 759 318 759 318 759 366 c 2,52,-1
 759 439 l 1,53,-1
 977 439 l 1,54,-1
 977 378 l 2,55,56
 977 178 977 178 880 82 c 128,-1,57
 783 -14 783 -14 603 -15 c 0,58,59
 559 -15 559 -15 509.5 -8.5 c 128,-1,60
 460 -2 460 -2 411 18.5 c 128,-1,61
 362 39 362 39 316.5 76.5 c 128,-1,62
 271 114 271 114 236 176.5 c 128,-1,63
 201 239 201 239 180 329.5 c 128,-1,64
 159 420 159 420 158 546 c 1,65,-1
 4 546 l 1,66,-1
 4 726 l 1,0,-1
EndSplineSet
EndChar

StartChar: asciicircum
Encoding: 94 94 100
Width: 959
Flags: W
LayerCount: 2
Fore
SplineSet
358 1725 m 1,0,-1
 591 1725 l 1,1,-1
 924 277 l 1,2,-1
 705 277 l 1,3,-1
 543 1067 l 1,4,-1
 492 1402 l 1,5,-1
 467 1402 l 1,6,-1
 413 1067 l 1,7,-1
 254 277 l 1,8,-1
 35 277 l 1,9,-1
 358 1725 l 1,0,-1
EndSplineSet
EndChar

StartChar: quotesingle
Encoding: 39 39 101
Width: 661
Flags: W
LayerCount: 2
Fore
SplineSet
206 1876 m 1,0,-1
 455 1876 l 1,1,-1
 434 1180 l 1,2,-1
 231 1180 l 1,3,-1
 206 1876 l 1,0,-1
EndSplineSet
EndChar

StartChar: less
Encoding: 60 60 103
Width: 775
Flags: W
LayerCount: 2
Fore
SplineSet
45 862 m 1,0,-1
 689 1262 l 1,1,-1
 689 1027 l 1,2,-1
 273 792 l 1,3,-1
 273 784 l 1,4,-1
 689 548 l 1,5,-1
 689 314 l 1,6,-1
 45 715 l 1,7,-1
 45 862 l 1,0,-1
EndSplineSet
EndChar

StartChar: underscore
Encoding: 95 95 105
Width: 1381
Flags: W
LayerCount: 2
Fore
SplineSet
1386 -172 m 1,0,-1
 1386 -335 l 1,1,-1
 -5 -335 l 1,2,-1
 -5 -172 l 1,3,-1
 1386 -172 l 1,0,-1
EndSplineSet
EndChar

StartChar: minus
Encoding: 8722 8722 106
Width: 997
Flags: W
LayerCount: 2
Fore
SplineSet
126 887 m 1,0,-1
 871 887 l 1,1,-1
 871 691 l 1,2,-1
 126 691 l 1,3,-1
 126 887 l 1,0,-1
EndSplineSet
EndChar

StartChar: Ldot
Encoding: 319 319 107
Width: 790
Flags: W
LayerCount: 2
Fore
SplineSet
674 601 m 0,0,1
 638 601 638 601 611 615 c 128,-1,2
 584 629 584 629 566.5 652 c 128,-1,3
 549 675 549 675 540 704.5 c 128,-1,4
 531 734 531 734 531 765 c 0,5,6
 531 799 531 799 539.5 830.5 c 128,-1,7
 548 862 548 862 565.5 886 c 128,-1,8
 583 910 583 910 610 924.5 c 128,-1,9
 637 939 637 939 674 939 c 0,10,11
 712 939 712 939 740 924.5 c 128,-1,12
 768 910 768 910 787 886 c 128,-1,13
 806 862 806 862 815 830.5 c 128,-1,14
 824 799 824 799 824 765 c 0,15,16
 824 735 824 735 815 705.5 c 128,-1,17
 806 676 806 676 787 653 c 128,-1,18
 768 630 768 630 740 615.5 c 128,-1,19
 712 601 712 601 674 601 c 0,0,1
146 1708 m 1,20,-1
 405 1708 l 1,21,-1
 405 204 l 1,22,-1
 758 204 l 1,23,-1
 758 0 l 1,24,-1
 146 0 l 1,25,-1
 146 1708 l 1,20,-1
EndSplineSet
EndChar

StartChar: Lslash
Encoding: 321 321 108
Width: 773
Flags: W
LayerCount: 2
Fore
SplineSet
146 560 m 1,0,-1
 42 479 l 1,1,-1
 -76 634 l 1,2,-1
 146 812 l 1,3,-1
 146 1725 l 1,4,-1
 402 1725 l 1,5,-1
 402 1018 l 1,6,-1
 599 1178 l 1,7,-1
 729 1010 l 1,8,-1
 402 757 l 1,9,-1
 402 207 l 1,10,-1
 756 207 l 1,11,-1
 756 0 l 1,12,-1
 146 0 l 1,13,-1
 146 560 l 1,0,-1
EndSplineSet
EndChar

StartChar: acute
Encoding: 180 180 109
Width: 10
Flags: W
LayerCount: 2
Fore
SplineSet
-120 1567 m 1,0,-1
 170 1983 l 1,1,-1
 339 1846 l 1,2,-1
 5 1462 l 1,3,-1
 -120 1567 l 1,0,-1
EndSplineSet
EndChar

StartChar: acute.cap
Encoding: 65537 -1 110
Width: 10
Flags: W
LayerCount: 2
Fore
SplineSet
-100 1850 m 1,0,-1
 221 2066 l 1,1,-1
 350 1899 l 1,2,-1
 5 1733 l 1,3,-1
 -100 1850 l 1,0,-1
EndSplineSet
EndChar

StartChar: grave
Encoding: 96 96 111
Width: 10
Flags: W
LayerCount: 2
Fore
SplineSet
-329 1846 m 1,0,-1
 -160 1983 l 1,1,-1
 130 1567 l 1,2,-1
 5 1462 l 1,3,-1
 -329 1846 l 1,0,-1
EndSplineSet
EndChar

StartChar: grave.cap
Encoding: 65538 -1 112
Width: 10
Flags: W
LayerCount: 2
Fore
SplineSet
-339 1899 m 1,0,-1
 -210 2066 l 1,1,-1
 111 1850 l 1,2,-1
 6 1733 l 1,3,-1
 -339 1899 l 1,0,-1
EndSplineSet
EndChar

StartChar: dieresis
Encoding: 168 168 113
Width: 10
Flags: W
LayerCount: 2
Fore
SplineSet
220 1566 m 0,0,1
 142 1566 142 1566 113 1606.5 c 128,-1,2
 84 1647 84 1647 84 1728 c 0,3,4
 84 1771 84 1771 90.5 1803 c 128,-1,5
 97 1835 97 1835 112.5 1856.5 c 128,-1,6
 128 1878 128 1878 154 1888.5 c 128,-1,7
 180 1899 180 1899 220 1899 c 0,8,9
 302 1899 302 1899 334 1857.5 c 128,-1,10
 366 1816 366 1816 366 1728 c 0,11,12
 366 1651 366 1651 334 1608.5 c 128,-1,13
 302 1566 302 1566 220 1566 c 0,0,1
-217 1566 m 0,14,15
 -295 1566 -295 1566 -324.5 1606.5 c 128,-1,16
 -354 1647 -354 1647 -354 1728 c 0,17,18
 -354 1771 -354 1771 -347.5 1803 c 128,-1,19
 -341 1835 -341 1835 -325.5 1856.5 c 128,-1,20
 -310 1878 -310 1878 -283.5 1888.5 c 128,-1,21
 -257 1899 -257 1899 -217 1899 c 0,22,23
 -135 1899 -135 1899 -103.5 1857.5 c 128,-1,24
 -72 1816 -72 1816 -72 1728 c 0,25,26
 -72 1651 -72 1651 -103.5 1608.5 c 128,-1,27
 -135 1566 -135 1566 -217 1566 c 0,14,15
EndSplineSet
EndChar

StartChar: dieresis.cap
Encoding: 65539 -1 114
Width: 10
Flags: W
LayerCount: 2
Fore
SplineSet
220 1751 m 0,0,1
 142 1751 142 1751 113 1792.5 c 128,-1,2
 84 1834 84 1834 84 1909 c 0,3,4
 84 1948 84 1948 90.5 1977.5 c 128,-1,5
 97 2007 97 2007 112.5 2026.5 c 128,-1,6
 128 2046 128 2046 154 2056 c 128,-1,7
 180 2066 180 2066 220 2066 c 0,8,9
 302 2066 302 2066 334 2028 c 128,-1,10
 366 1990 366 1990 366 1909 c 0,11,12
 366 1873 366 1873 358.5 1844 c 128,-1,13
 351 1815 351 1815 334 1794 c 128,-1,14
 317 1773 317 1773 289 1762 c 128,-1,15
 261 1751 261 1751 220 1751 c 0,0,1
-217 1751 m 0,16,17
 -295 1751 -295 1751 -324.5 1792.5 c 128,-1,18
 -354 1834 -354 1834 -354 1909 c 0,19,20
 -354 1948 -354 1948 -347.5 1977.5 c 128,-1,21
 -341 2007 -341 2007 -325.5 2026.5 c 128,-1,22
 -310 2046 -310 2046 -283.5 2056 c 128,-1,23
 -257 2066 -257 2066 -217 2066 c 0,24,25
 -135 2066 -135 2066 -103.5 2028 c 128,-1,26
 -72 1990 -72 1990 -72 1909 c 0,27,28
 -72 1873 -72 1873 -79.5 1844 c 128,-1,29
 -87 1815 -87 1815 -104 1794 c 128,-1,30
 -121 1773 -121 1773 -148.5 1762 c 128,-1,31
 -176 1751 -176 1751 -217 1751 c 0,16,17
EndSplineSet
EndChar

StartChar: mu
Encoding: 181 181 124
Width: 1036
Flags: W
LayerCount: 2
Fore
SplineSet
121 1377 m 1,0,-1
 383 1377 l 1,1,-1
 383 344 l 2,2,3
 383 298 383 298 390 267 c 128,-1,4
 397 236 397 236 411.5 217 c 128,-1,5
 426 198 426 198 448 189.5 c 128,-1,6
 470 181 470 181 500 181 c 0,7,8
 535 181 535 181 567.5 193.5 c 128,-1,9
 600 206 600 206 632 244 c 1,10,-1
 632 1377 l 1,11,-1
 898 1377 l 1,12,-1
 898 0 l 1,13,-1
 692 0 l 1,14,-1
 675 96 l 1,15,16
 660 73 660 73 639 52.5 c 128,-1,17
 618 32 618 32 593 17 c 128,-1,18
 568 2 568 2 541.5 -7 c 128,-1,19
 515 -16 515 -16 490 -16 c 0,20,21
 456 -16 456 -16 425.5 -5.5 c 128,-1,22
 395 5 395 5 364 43 c 1,23,-1
 356 44 l 1,24,-1
 363 -328 l 1,25,-1
 122 -328 l 1,26,-1
 121 1377 l 1,0,-1
EndSplineSet
EndChar

StartChar: logicalnot
Encoding: 172 172 125
Width: 991
Flags: W
LayerCount: 2
Fore
SplineSet
45 887 m 1,0,-1
 905 887 l 1,1,-1
 905 368 l 1,2,-1
 707 368 l 1,3,-1
 707 692 l 1,4,-1
 45 692 l 1,5,-1
 45 887 l 1,0,-1
EndSplineSet
EndChar

StartChar: degree
Encoding: 176 176 158
Width: 889
Flags: W
LayerCount: 2
Fore
SplineSet
439 1072 m 0,0,1
 355 1072 355 1072 292 1102 c 128,-1,2
 229 1132 229 1132 188 1182 c 128,-1,3
 147 1232 147 1232 126.5 1296 c 128,-1,4
 106 1360 106 1360 106 1428 c 0,5,6
 106 1499 106 1499 125.5 1565.5 c 128,-1,7
 145 1632 145 1632 186 1683 c 128,-1,8
 227 1734 227 1734 290 1764.5 c 128,-1,9
 353 1795 353 1795 439 1795 c 256,10,11
 525 1795 525 1795 589.5 1765 c 128,-1,12
 654 1735 654 1735 697 1684 c 128,-1,13
 740 1633 740 1633 761.5 1566.5 c 128,-1,14
 783 1500 783 1500 783 1428 c 0,15,16
 783 1363 783 1363 761.5 1299.5 c 128,-1,17
 740 1236 740 1236 697 1185.5 c 128,-1,18
 654 1135 654 1135 589.5 1103.5 c 128,-1,19
 525 1072 525 1072 439 1072 c 0,0,1
436 1265 m 0,20,21
 473 1265 473 1265 500.5 1279 c 128,-1,22
 528 1293 528 1293 546.5 1315.5 c 128,-1,23
 565 1338 565 1338 574 1367 c 128,-1,24
 583 1396 583 1396 583 1425 c 0,25,26
 583 1460 583 1460 574 1492 c 128,-1,27
 565 1524 565 1524 546.5 1548.5 c 128,-1,28
 528 1573 528 1573 500.5 1587.5 c 128,-1,29
 473 1602 473 1602 436 1602 c 0,30,31
 402 1602 402 1602 377.5 1587.5 c 128,-1,32
 353 1573 353 1573 337 1548 c 128,-1,33
 321 1523 321 1523 313.5 1491 c 128,-1,34
 306 1459 306 1459 306 1425 c 0,35,36
 306 1394 306 1394 314 1365.5 c 128,-1,37
 322 1337 322 1337 338 1314.5 c 128,-1,38
 354 1292 354 1292 378.5 1278.5 c 128,-1,39
 403 1265 403 1265 436 1265 c 0,20,21
EndSplineSet
EndChar

StartChar: ring
Encoding: 730 730 159
Width: 10
Flags: W
LayerCount: 2
Fore
SplineSet
5 1451 m 0,0,1
 -75 1451 -75 1451 -134 1477 c 128,-1,2
 -193 1503 -193 1503 -232 1545.5 c 128,-1,3
 -271 1588 -271 1588 -290 1643 c 128,-1,4
 -309 1698 -309 1698 -309 1757 c 0,5,6
 -309 1817 -309 1817 -290.5 1873 c 128,-1,7
 -272 1929 -272 1929 -233.5 1971.5 c 128,-1,8
 -195 2014 -195 2014 -135.5 2039.5 c 128,-1,9
 -76 2065 -76 2065 5 2065 c 0,10,11
 87 2065 87 2065 147.5 2040 c 128,-1,12
 208 2015 208 2015 248.5 1972.5 c 128,-1,13
 289 1930 289 1930 309 1874 c 128,-1,14
 329 1818 329 1818 329 1757 c 0,15,16
 329 1701 329 1701 309 1646.5 c 128,-1,17
 289 1592 289 1592 248.5 1548.5 c 128,-1,18
 208 1505 208 1505 147.5 1478 c 128,-1,19
 87 1451 87 1451 5 1451 c 0,0,1
4 1614 m 0,20,21
 44 1614 44 1614 73.5 1626.5 c 128,-1,22
 103 1639 103 1639 122.5 1658.5 c 128,-1,23
 142 1678 142 1678 152 1703 c 128,-1,24
 162 1728 162 1728 162 1753 c 0,25,26
 162 1784 162 1784 152 1811 c 128,-1,27
 142 1838 142 1838 122.5 1858 c 128,-1,28
 103 1878 103 1878 73.5 1890 c 128,-1,29
 44 1902 44 1902 4 1902 c 0,30,31
 -32 1902 -32 1902 -58 1890 c 128,-1,32
 -84 1878 -84 1878 -101.5 1857.5 c 128,-1,33
 -119 1837 -119 1837 -127 1810 c 128,-1,34
 -135 1783 -135 1783 -135 1753 c 0,35,36
 -135 1727 -135 1727 -126.5 1702 c 128,-1,37
 -118 1677 -118 1677 -101 1657.5 c 128,-1,38
 -84 1638 -84 1638 -57.5 1626 c 128,-1,39
 -31 1614 -31 1614 4 1614 c 0,20,21
EndSplineSet
EndChar

StartChar: ring.cap
Encoding: 65540 -1 160
Width: 10
Flags: W
LayerCount: 2
Fore
SplineSet
5 1480 m 0,0,1
 -75 1480 -75 1480 -134 1505 c 128,-1,2
 -193 1530 -193 1530 -232 1571.5 c 128,-1,3
 -271 1613 -271 1613 -290 1666 c 128,-1,4
 -309 1719 -309 1719 -309 1776 c 0,5,6
 -309 1834 -309 1834 -290.5 1886.5 c 128,-1,7
 -272 1939 -272 1939 -233.5 1978.5 c 128,-1,8
 -195 2018 -195 2018 -135.5 2041.5 c 128,-1,9
 -76 2065 -76 2065 5 2065 c 0,10,11
 87 2065 87 2065 147.5 2042 c 128,-1,12
 208 2019 208 2019 248.5 1980 c 128,-1,13
 289 1941 289 1941 309 1888.5 c 128,-1,14
 329 1836 329 1836 329 1776 c 0,15,16
 329 1722 329 1722 309 1669 c 128,-1,17
 289 1616 289 1616 248.5 1574 c 128,-1,18
 208 1532 208 1532 147.5 1506 c 128,-1,19
 87 1480 87 1480 5 1480 c 0,0,1
4 1643 m 0,20,21
 44 1643 44 1643 73.5 1654.5 c 128,-1,22
 103 1666 103 1666 122.5 1684.5 c 128,-1,23
 142 1703 142 1703 152 1726 c 128,-1,24
 162 1749 162 1749 162 1772 c 0,25,26
 162 1829 162 1829 123 1866 c 128,-1,27
 84 1903 84 1903 4 1903 c 0,28,29
 -68 1903 -68 1903 -101.5 1865.5 c 128,-1,30
 -135 1828 -135 1828 -135 1772 c 0,31,32
 -135 1748 -135 1748 -126.5 1724.5 c 128,-1,33
 -118 1701 -118 1701 -101 1683 c 128,-1,34
 -84 1665 -84 1665 -57.5 1654 c 128,-1,35
 -31 1643 -31 1643 4 1643 c 0,20,21
EndSplineSet
EndChar

StartChar: Aring
Encoding: 197 197 162
Width: 964
Flags: W
LayerCount: 2
Fore
SplineSet
302 1526 m 1,0,1
 234 1567 234 1567 201.5 1634 c 128,-1,2
 169 1701 169 1701 169 1776 c 0,3,4
 169 1834 169 1834 187.5 1886.5 c 128,-1,5
 206 1939 206 1939 244.5 1978.5 c 128,-1,6
 283 2018 283 2018 342.5 2041.5 c 128,-1,7
 402 2065 402 2065 483 2065 c 0,8,9
 565 2065 565 2065 625.5 2042 c 128,-1,10
 686 2019 686 2019 726.5 1980 c 128,-1,11
 767 1941 767 1941 787 1888.5 c 128,-1,12
 807 1836 807 1836 807 1776 c 0,13,14
 807 1740 807 1740 798 1704 c 128,-1,15
 789 1668 789 1668 771 1635 c 128,-1,16
 753 1602 753 1602 725.5 1573.5 c 128,-1,17
 698 1545 698 1545 662 1524 c 1,18,-1
 947 0 l 1,19,-1
 687 0 l 1,20,-1
 640 306 l 1,21,-1
 324 306 l 1,22,-1
 279 0 l 1,23,-1
 18 0 l 1,24,-1
 302 1526 l 1,0,1
482 1643 m 0,25,26
 522 1643 522 1643 551.5 1654.5 c 128,-1,27
 581 1666 581 1666 600.5 1684.5 c 128,-1,28
 620 1703 620 1703 630 1726 c 128,-1,29
 640 1749 640 1749 640 1772 c 0,30,31
 640 1829 640 1829 601 1866 c 128,-1,32
 562 1903 562 1903 482 1903 c 0,33,34
 410 1903 410 1903 376.5 1865.5 c 128,-1,35
 343 1828 343 1828 343 1772 c 0,36,37
 343 1748 343 1748 351.5 1724.5 c 128,-1,38
 360 1701 360 1701 377 1683 c 128,-1,39
 394 1665 394 1665 420.5 1654 c 128,-1,40
 447 1643 447 1643 482 1643 c 0,25,26
610 501 m 1,41,-1
 488 1356 l 1,42,-1
 477 1356 l 1,43,-1
 354 501 l 1,44,-1
 610 501 l 1,41,-1
EndSplineSet
EndChar

StartChar: asciitilde
Encoding: 126 126 163
Width: 1304
Flags: W
LayerCount: 2
Fore
SplineSet
130 450 m 1,0,1
 120 580 120 580 141 666.5 c 128,-1,2
 162 753 162 753 204 805 c 128,-1,3
 246 857 246 857 304.5 878.5 c 128,-1,4
 363 900 363 900 428 900 c 0,5,6
 494 900 494 900 544 877 c 128,-1,7
 594 854 594 854 633 819 c 128,-1,8
 672 784 672 784 702.5 744 c 128,-1,9
 733 704 733 704 760.5 669 c 128,-1,10
 788 634 788 634 815.5 611 c 128,-1,11
 843 588 843 588 876 588 c 0,12,13
 945 588 945 588 970.5 660 c 128,-1,14
 996 732 996 732 972 869 c 1,15,-1
 1164 869 l 1,16,17
 1186 752 1186 752 1171.5 663.5 c 128,-1,18
 1157 575 1157 575 1117.5 516.5 c 128,-1,19
 1078 458 1078 458 1020.5 428.5 c 128,-1,20
 963 399 963 399 900 399 c 0,21,22
 832 399 832 399 780 422 c 128,-1,23
 728 445 728 445 686.5 479 c 128,-1,24
 645 513 645 513 613 553.5 c 128,-1,25
 581 594 581 594 551.5 628 c 128,-1,26
 522 662 522 662 494 685 c 128,-1,27
 466 708 466 708 434 708 c 0,28,29
 396 708 396 708 369.5 689 c 128,-1,30
 343 670 343 670 328.5 636 c 128,-1,31
 314 602 314 602 310.5 554.5 c 128,-1,32
 307 507 307 507 316 450 c 1,33,-1
 130 450 l 1,34,-1
 130 450 l 1,0,1
EndSplineSet
EndChar

StartChar: tilde
Encoding: 732 732 164
Width: 10
Flags: W
LayerCount: 2
Fore
SplineSet
171 1536 m 0,0,1
 109 1536 109 1536 65 1556 c 128,-1,2
 21 1576 21 1576 -21 1614 c 0,3,4
 -45 1635 -45 1635 -61.5 1651 c 128,-1,5
 -78 1667 -78 1667 -91 1678 c 128,-1,6
 -104 1689 -104 1689 -116 1694.5 c 128,-1,7
 -128 1700 -128 1700 -143 1700 c 0,8,9
 -164 1700 -164 1700 -175 1683 c 128,-1,10
 -186 1666 -186 1666 -186 1636 c 2,11,-1
 -186 1564 l 1,12,-1
 -364 1564 l 1,13,14
 -364 1570 -364 1570 -365 1581.5 c 128,-1,15
 -366 1593 -366 1593 -366.5 1605.5 c 128,-1,16
 -367 1618 -367 1618 -367.5 1629.5 c 128,-1,17
 -368 1641 -368 1641 -368 1646 c 0,18,19
 -368 1716 -368 1716 -350 1763.5 c 128,-1,20
 -332 1811 -332 1811 -301.5 1839.5 c 128,-1,21
 -271 1868 -271 1868 -231 1880 c 128,-1,22
 -191 1892 -191 1892 -147 1892 c 0,23,24
 -88 1892 -88 1892 -47.5 1872.5 c 128,-1,25
 -7 1853 -7 1853 33 1815 c 0,26,27
 46 1803 46 1803 61.5 1787.5 c 128,-1,28
 77 1772 77 1772 93.5 1758.5 c 128,-1,29
 110 1745 110 1745 126.5 1736 c 128,-1,30
 143 1727 143 1727 159 1727 c 0,31,32
 181 1727 181 1727 195 1741 c 128,-1,33
 209 1755 209 1755 209 1786 c 2,34,-1
 209 1873 l 1,35,-1
 368 1873 l 1,36,37
 374 1838 374 1838 376.5 1812 c 128,-1,38
 379 1786 379 1786 379 1767 c 0,39,40
 379 1710 379 1710 361.5 1666.5 c 128,-1,41
 344 1623 344 1623 315.5 1594 c 128,-1,42
 287 1565 287 1565 249 1550.5 c 128,-1,43
 211 1536 211 1536 171 1536 c 0,0,1
EndSplineSet
EndChar

StartChar: tilde.cap
Encoding: 65541 -1 166
Width: 10
Flags: W
LayerCount: 2
Fore
SplineSet
171 1729 m 0,0,1
 109 1729 109 1729 65 1746.5 c 128,-1,2
 21 1764 21 1764 -21 1798 c 1,3,4
 -45 1819 -45 1819 -61.5 1835 c 128,-1,5
 -78 1851 -78 1851 -91 1862 c 128,-1,6
 -104 1873 -104 1873 -116 1878.5 c 128,-1,7
 -128 1884 -128 1884 -143 1884 c 0,8,9
 -164 1884 -164 1884 -175 1867 c 128,-1,10
 -186 1850 -186 1850 -186 1820 c 2,11,-1
 -186 1748 l 1,12,-1
 -364 1748 l 1,13,14
 -364 1754 -364 1754 -365 1765.5 c 128,-1,15
 -366 1777 -366 1777 -366.5 1789.5 c 128,-1,16
 -367 1802 -367 1802 -367.5 1813 c 128,-1,17
 -368 1824 -368 1824 -368 1829 c 0,18,19
 -368 1896 -368 1896 -350 1941.5 c 128,-1,20
 -332 1987 -332 1987 -301.5 2015 c 128,-1,21
 -271 2043 -271 2043 -231 2054.5 c 128,-1,22
 -191 2066 -191 2066 -147 2066 c 0,23,24
 -88 2066 -88 2066 -47.5 2049 c 128,-1,25
 -7 2032 -7 2032 33 1999 c 0,26,27
 46 1987 46 1987 61.5 1971.5 c 128,-1,28
 77 1956 77 1956 93.5 1942.5 c 128,-1,29
 110 1929 110 1929 126.5 1920 c 128,-1,30
 143 1911 143 1911 159 1911 c 0,31,32
 181 1911 181 1911 195 1925 c 128,-1,33
 209 1939 209 1939 209 1969 c 2,34,-1
 209 2047 l 1,35,-1
 368 2047 l 1,36,37
 374 2011 374 2011 376.5 1985.5 c 128,-1,38
 379 1960 379 1960 379 1941 c 0,39,40
 379 1889 379 1889 361.5 1849.5 c 128,-1,41
 344 1810 344 1810 315.5 1783 c 128,-1,42
 287 1756 287 1756 249 1742.5 c 128,-1,43
 211 1729 211 1729 171 1729 c 0,0,1
EndSplineSet
EndChar

StartChar: macron
Encoding: 175 175 168
Width: 10
Flags: W
LayerCount: 2
Fore
SplineSet
-306 1826 m 1,0,-1
 317 1826 l 1,1,-1
 317 1633 l 1,2,-1
 -306 1633 l 1,3,-1
 -306 1826 l 1,0,-1
EndSplineSet
EndChar

StartChar: macron.cap
Encoding: 65542 -1 169
Width: 10
Flags: W
LayerCount: 2
Fore
SplineSet
-306 2066 m 1,0,-1
 317 2066 l 1,1,-1
 317 1874 l 1,2,-1
 -306 1874 l 1,3,-1
 -306 2066 l 1,0,-1
EndSplineSet
EndChar

StartChar: cedilla
Encoding: 184 184 170
Width: 10
Flags: W
LayerCount: 2
Fore
SplineSet
32 136 m 1,0,-1
 101 -1 l 1,1,-1
 107 -104 l 2,2,3
 111 -175 111 -175 101.5 -226 c 128,-1,4
 92 -277 92 -277 73.5 -312 c 128,-1,5
 55 -347 55 -347 30.5 -368 c 128,-1,6
 6 -389 6 -389 -19 -400.5 c 128,-1,7
 -44 -412 -44 -412 -67 -415.5 c 128,-1,8
 -90 -419 -90 -419 -106 -419 c 0,9,10
 -148 -419 -148 -419 -181.5 -412 c 128,-1,11
 -215 -405 -215 -405 -257 -389 c 1,12,-1
 -250 -238 l 1,13,14
 -242 -239 -242 -239 -233.5 -239 c 128,-1,15
 -225 -239 -225 -239 -217 -239 c 0,16,17
 -183 -239 -183 -239 -156 -232 c 128,-1,18
 -129 -225 -129 -225 -109 -205.5 c 128,-1,19
 -89 -186 -89 -186 -77.5 -150 c 128,-1,20
 -66 -114 -66 -114 -63 -56 c 2,21,-1
 -61 -12 l 1,22,-1
 32 136 l 1,0,-1
EndSplineSet
EndChar

StartChar: ccedilla
Encoding: 231 231 171
Width: 871
Flags: W
LayerCount: 2
Fore
SplineSet
192 -233 m 1,0,1
 200 -234 200 -234 208.5 -234 c 128,-1,2
 217 -234 217 -234 225 -234 c 0,3,4
 259 -234 259 -234 286 -227 c 128,-1,5
 313 -220 313 -220 333 -200.5 c 128,-1,6
 353 -181 353 -181 364.5 -145 c 128,-1,7
 376 -109 376 -109 379 -51 c 2,8,-1
 381 -8 l 1,9,10
 240 18 240 18 167 159.5 c 128,-1,11
 94 301 94 301 94 564 c 2,12,-1
 94 824 l 2,13,14
 94 955 94 955 113 1048.5 c 128,-1,15
 132 1142 132 1142 163.5 1205.5 c 128,-1,16
 195 1269 195 1269 235.5 1306 c 128,-1,17
 276 1343 276 1343 319 1362.5 c 128,-1,18
 362 1382 362 1382 404 1387.5 c 128,-1,19
 446 1393 446 1393 481 1393 c 0,20,21
 551 1393 551 1393 609 1374.5 c 128,-1,22
 667 1356 667 1356 709 1318.5 c 128,-1,23
 751 1281 751 1281 774 1224 c 128,-1,24
 797 1167 797 1167 797 1090 c 0,25,26
 797 1042 797 1042 792.5 1007.5 c 128,-1,27
 788 973 788 973 780 941 c 1,28,-1
 578 941 l 1,29,-1
 578 987 l 2,30,31
 578 1091 578 1091 553.5 1149.5 c 128,-1,32
 529 1208 529 1208 473 1208 c 0,33,34
 442 1208 442 1208 419 1193.5 c 128,-1,35
 396 1179 396 1179 380.5 1144 c 128,-1,36
 365 1109 365 1109 357.5 1050 c 128,-1,37
 350 991 350 991 350 902 c 2,38,-1
 350 511 l 2,39,40
 350 421 350 421 356 358 c 128,-1,41
 362 295 362 295 377 255.5 c 128,-1,42
 392 216 392 216 417 198 c 128,-1,43
 442 180 442 180 479 180 c 0,44,45
 498 180 498 180 516 189.5 c 128,-1,46
 534 199 534 199 547.5 221 c 128,-1,47
 561 243 561 243 569.5 279.5 c 128,-1,48
 578 316 578 316 578 370 c 2,49,-1
 578 413 l 1,50,-1
 796 413 l 1,51,-1
 796 360 l 2,52,53
 796 192 796 192 733 103 c 128,-1,54
 670 14 670 14 543 -7 c 1,55,-1
 549 -99 l 2,56,57
 553 -170 553 -170 543.5 -221 c 128,-1,58
 534 -272 534 -272 515.5 -307 c 128,-1,59
 497 -342 497 -342 472.5 -363 c 128,-1,60
 448 -384 448 -384 423 -395.5 c 128,-1,61
 398 -407 398 -407 375 -410.5 c 128,-1,62
 352 -414 352 -414 336 -414 c 0,63,64
 294 -414 294 -414 260.5 -407 c 128,-1,65
 227 -400 227 -400 185 -384 c 1,66,-1
 192 -233 l 1,67,-1
 192 -233 l 1,0,1
EndSplineSet
EndChar

StartChar: Ccedilla
Encoding: 199 199 176
Width: 936
Flags: W
LayerCount: 2
Fore
SplineSet
252 -238 m 1,0,1
 260 -239 260 -239 268.5 -239 c 128,-1,2
 277 -239 277 -239 285 -239 c 0,3,4
 319 -239 319 -239 346 -232 c 128,-1,5
 373 -225 373 -225 393 -205.5 c 128,-1,6
 413 -186 413 -186 424.5 -150 c 128,-1,7
 436 -114 436 -114 439 -56 c 2,8,-1
 441 -12 l 1,9,-1
 442 -10 l 1,10,11
 403 -5 403 -5 362.5 8 c 128,-1,12
 322 21 322 21 284 47 c 128,-1,13
 246 73 246 73 212 114.5 c 128,-1,14
 178 156 178 156 153 217 c 128,-1,15
 128 278 128 278 113.5 361.5 c 128,-1,16
 99 445 99 445 99 556 c 2,17,-1
 99 1161 l 2,18,19
 99 1290 99 1290 119 1381.5 c 128,-1,20
 139 1473 139 1473 172 1535.5 c 128,-1,21
 205 1598 205 1598 248 1635 c 128,-1,22
 291 1672 291 1672 337 1691.5 c 128,-1,23
 383 1711 383 1711 428.5 1717 c 128,-1,24
 474 1723 474 1723 513 1723 c 0,25,26
 615 1723 615 1723 683.5 1694.5 c 128,-1,27
 752 1666 752 1666 793.5 1616.5 c 128,-1,28
 835 1567 835 1567 852.5 1501 c 128,-1,29
 870 1435 870 1435 870 1361 c 0,30,31
 870 1306 870 1306 864.5 1259.5 c 128,-1,32
 859 1213 859 1213 848 1157 c 1,33,-1
 638 1157 l 1,34,-1
 638 1244 l 2,35,36
 638 1385 638 1385 607 1455 c 128,-1,37
 576 1525 576 1525 516 1525 c 0,38,39
 480 1525 480 1525 453 1511 c 128,-1,40
 426 1497 426 1497 408 1463.5 c 128,-1,41
 390 1430 390 1430 380.5 1375 c 128,-1,42
 371 1320 371 1320 371 1238 c 2,43,-1
 371 458 l 2,44,45
 371 378 371 378 378.5 325 c 128,-1,46
 386 272 386 272 403 240 c 128,-1,47
 420 208 420 208 447.5 194.5 c 128,-1,48
 475 181 475 181 514 181 c 0,49,50
 539 181 539 181 562 192.5 c 128,-1,51
 585 204 585 204 602.5 228.5 c 128,-1,52
 620 253 620 253 630.5 290.5 c 128,-1,53
 641 328 641 328 641 379 c 2,54,-1
 641 546 l 1,55,-1
 878 546 l 1,56,-1
 878 388 l 2,57,58
 878 209 878 209 807.5 112.5 c 128,-1,59
 737 16 737 16 603 -7 c 1,60,-1
 609 -104 l 2,61,62
 613 -175 613 -175 603.5 -226 c 128,-1,63
 594 -277 594 -277 575.5 -312 c 128,-1,64
 557 -347 557 -347 532.5 -368 c 128,-1,65
 508 -389 508 -389 483 -400.5 c 128,-1,66
 458 -412 458 -412 435 -415.5 c 128,-1,67
 412 -419 412 -419 396 -419 c 0,68,69
 354 -419 354 -419 320.5 -412 c 128,-1,70
 287 -405 287 -405 245 -389 c 1,71,-1
 252 -238 l 1,72,-1
 252 -238 l 1,0,1
EndSplineSet
EndChar

StartChar: circumflex
Encoding: 710 710 177
Width: 10
Flags: W
LayerCount: 2
Fore
SplineSet
-355 1485 m 1,0,-1
 -85 2066 l 1,1,-1
 89 2066 l 1,2,-1
 365 1485 l 1,3,-1
 146 1485 l 1,4,-1
 58 1697 l 1,5,-1
 7 1869 l 1,6,-1
 -43 1697 l 1,7,-1
 -137 1485 l 1,8,-1
 -355 1485 l 1,0,-1
EndSplineSet
EndChar

StartChar: circumflex.cap
Encoding: 65543 -1 178
Width: 10
Flags: W
LayerCount: 2
Fore
SplineSet
47 1886 m 1,0,-1
 7 1942 l 1,1,-1
 -33 1886 l 1,2,-1
 -117 1756 l 1,3,-1
 -365 1756 l 1,4,-1
 -115 2066 l 1,5,-1
 119 2066 l 1,6,-1
 365 1756 l 1,7,-1
 116 1756 l 1,8,-1
 47 1886 l 1,0,-1
EndSplineSet
EndChar

StartChar: Eth
Encoding: 208 208 188
Width: 1037
Flags: W
LayerCount: 2
Fore
SplineSet
128 817 m 1,0,-1
 43 817 l 1,1,-1
 43 1019 l 1,2,-1
 128 1019 l 1,3,-1
 128 1725 l 1,4,-1
 406 1725 l 2,5,6
 454 1725 454 1725 512.5 1720 c 128,-1,7
 571 1715 571 1715 630.5 1696.5 c 128,-1,8
 690 1678 690 1678 746 1640 c 128,-1,9
 802 1602 802 1602 845.5 1535.5 c 128,-1,10
 889 1469 889 1469 915 1370 c 128,-1,11
 941 1271 941 1271 941 1129 c 2,12,-1
 941 606 l 2,13,14
 941 462 941 462 915 360.5 c 128,-1,15
 889 259 889 259 845.5 192 c 128,-1,16
 802 125 802 125 746 86.5 c 128,-1,17
 690 48 690 48 630.5 28.5 c 128,-1,18
 571 9 571 9 512.5 4.5 c 128,-1,19
 454 0 454 0 406 0 c 2,20,-1
 128 0 l 1,21,-1
 128 817 l 1,0,-1
418 180 m 2,22,23
 487 180 487 180 535.5 202.5 c 128,-1,24
 584 225 584 225 614.5 271.5 c 128,-1,25
 645 318 645 318 658.5 389 c 128,-1,26
 672 460 672 460 672 558 c 2,27,-1
 672 1149 l 2,28,29
 672 1240 672 1240 659.5 1309.5 c 128,-1,30
 647 1379 647 1379 617.5 1425.5 c 128,-1,31
 588 1472 588 1472 539 1495.5 c 128,-1,32
 490 1519 490 1519 418 1519 c 2,33,-1
 387 1519 l 1,34,-1
 387 1019 l 1,35,-1
 545 1019 l 1,36,-1
 545 817 l 1,37,-1
 387 817 l 1,38,-1
 387 180 l 1,39,-1
 418 180 l 2,22,23
EndSplineSet
EndChar

StartChar: caron
Encoding: 711 711 189
Width: 10
Flags: W
LayerCount: 2
Fore
SplineSet
-355 2066 m 1,0,-1
 -137 2066 l 1,1,-1
 -43 1854 l 1,2,-1
 7 1683 l 1,3,-1
 58 1854 l 1,4,-1
 146 2066 l 1,5,-1
 365 2066 l 1,6,-1
 89 1485 l 1,7,-1
 -85 1485 l 1,8,-1
 -355 2066 l 1,0,-1
EndSplineSet
EndChar

StartChar: caron.cap
Encoding: 65544 -1 190
Width: 10
Flags: W
LayerCount: 2
Fore
SplineSet
-365 2066 m 1,0,-1
 -117 2066 l 1,1,-1
 -33 1936 l 1,2,-1
 7 1880 l 1,3,-1
 47 1936 l 1,4,-1
 116 2066 l 1,5,-1
 365 2066 l 1,6,-1
 119 1756 l 1,7,-1
 -115 1756 l 1,8,-1
 -365 2066 l 1,0,-1
EndSplineSet
EndChar

StartChar: asterisk
Encoding: 42 42 198
Width: 1048
Flags: W
LayerCount: 2
Fore
SplineSet
167 993 m 1,0,-1
 404 1239 l 1,1,-1
 79 1300 l 1,2,-1
 150 1539 l 1,3,-1
 449 1377 l 1,4,-1
 403 1727 l 1,5,-1
 649 1727 l 1,6,-1
 595 1377 l 1,7,-1
 896 1534 l 1,8,-1
 969 1295 l 1,9,-1
 638 1239 l 1,10,-1
 873 986 l 1,11,-1
 673 840 l 1,12,-1
 521 1153 l 1,13,-1
 366 844 l 1,14,-1
 167 993 l 1,0,-1
EndSplineSet
EndChar

StartChar: quoteleft
Encoding: 8216 8216 199
Width: 620
Flags: W
LayerCount: 2
Fore
SplineSet
162 1404 m 1,0,-1
 312 1876 l 1,1,-1
 509 1876 l 1,2,-1
 430 1479 l 1,3,-1
 430 1180 l 1,4,-1
 162 1180 l 1,5,-1
 162 1404 l 1,0,-1
EndSplineSet
EndChar

StartChar: commaaccent
Encoding: 63171 63171 200
Width: 526
Flags: W
LayerCount: 2
Fore
SplineSet
401 -23 m 1,0,-1
 293 -457 l 1,1,-1
 98 -457 l 1,2,-1
 160 -23 l 1,3,-1
 401 -23 l 1,0,-1
EndSplineSet
EndChar

StartChar: percent
Encoding: 37 37 205
Width: 1885
Flags: W
LayerCount: 2
Fore
SplineSet
479 786 m 0,0,1
 422 786 422 786 364.5 802 c 128,-1,2
 307 818 307 818 260.5 864.5 c 128,-1,3
 214 911 214 911 185 996.5 c 128,-1,4
 156 1082 156 1082 156 1221 c 2,5,-1
 156 1328 l 2,6,7
 156 1419 156 1419 170 1485.5 c 128,-1,8
 184 1552 184 1552 208.5 1599 c 128,-1,9
 233 1646 233 1646 265 1675 c 128,-1,10
 297 1704 297 1704 333 1720 c 128,-1,11
 369 1736 369 1736 406.5 1742 c 128,-1,12
 444 1748 444 1748 480 1748 c 0,13,14
 514 1748 514 1748 551 1742.5 c 128,-1,15
 588 1737 588 1737 623.5 1721 c 128,-1,16
 659 1705 659 1705 691 1676.5 c 128,-1,17
 723 1648 723 1648 747 1601 c 128,-1,18
 771 1554 771 1554 785 1487 c 128,-1,19
 799 1420 799 1420 799 1328 c 2,20,-1
 799 1221 l 2,21,22
 799 1084 799 1084 768 998.5 c 128,-1,23
 737 913 737 913 689.5 866 c 128,-1,24
 642 819 642 819 585.5 802.5 c 128,-1,25
 529 786 529 786 479 786 c 0,0,1
1085 1727 m 1,26,-1
 1266 1727 l 1,27,-1
 807 0 l 1,28,-1
 625 0 l 1,29,-1
 1085 1727 l 1,26,-1
481 945 m 0,30,31
 544 945 544 945 569 999.5 c 128,-1,32
 594 1054 594 1054 594 1169 c 2,33,-1
 594 1363 l 2,34,35
 594 1479 594 1479 569 1534 c 128,-1,36
 544 1589 544 1589 481 1589 c 0,37,38
 415 1589 415 1589 388.5 1534 c 128,-1,39
 362 1479 362 1479 362 1363 c 2,40,-1
 362 1169 l 2,41,42
 362 1054 362 1054 388.5 999.5 c 128,-1,43
 415 945 415 945 481 945 c 0,30,31
1087 527 m 2,44,45
 1087 664 1087 664 1117.5 746.5 c 128,-1,46
 1148 829 1148 829 1195.5 873.5 c 128,-1,47
 1243 918 1243 918 1300 932.5 c 128,-1,48
 1357 947 1357 947 1410 947 c 0,49,50
 1444 947 1444 947 1481 941.5 c 128,-1,51
 1518 936 1518 936 1553.5 920 c 128,-1,52
 1589 904 1589 904 1621 875.5 c 128,-1,53
 1653 847 1653 847 1677 800 c 128,-1,54
 1701 753 1701 753 1715 686 c 128,-1,55
 1729 619 1729 619 1729 527 c 2,56,-1
 1729 420 l 2,57,58
 1729 328 1729 328 1714.5 260 c 128,-1,59
 1700 192 1700 192 1675.5 144 c 128,-1,60
 1651 96 1651 96 1619 65 c 128,-1,61
 1587 34 1587 34 1551.5 16 c 128,-1,62
 1516 -2 1516 -2 1479 -8.5 c 128,-1,63
 1442 -15 1442 -15 1409 -15 c 0,64,65
 1371 -15 1371 -15 1332.5 -8.5 c 128,-1,66
 1294 -2 1294 -2 1258.5 15 c 128,-1,67
 1223 32 1223 32 1191.5 63 c 128,-1,68
 1160 94 1160 94 1137 142 c 128,-1,69
 1114 190 1114 190 1100.5 258.5 c 128,-1,70
 1087 327 1087 327 1087 420 c 2,71,-1
 1087 527 l 2,44,45
1292 368 m 2,72,73
 1292 253 1292 253 1318.5 198.5 c 128,-1,74
 1345 144 1345 144 1411 144 c 0,75,76
 1474 144 1474 144 1499 198.5 c 128,-1,77
 1524 253 1524 253 1524 368 c 2,78,-1
 1524 562 l 2,79,80
 1524 678 1524 678 1499 733 c 128,-1,81
 1474 788 1474 788 1411 788 c 0,82,83
 1345 788 1345 788 1318.5 733 c 128,-1,84
 1292 678 1292 678 1292 562 c 2,85,-1
 1292 368 l 2,72,73
EndSplineSet
Ligature2: "'frac' Diagonal Fractions in Latin lookup 4 subtable" zero slash zero
EndChar

StartChar: currency
Encoding: 164 164 206
Width: 1287
Flags: W
LayerCount: 2
Fore
SplineSet
116 513 m 1,0,-1
 297 674 l 1,1,2
 279 717 279 717 270 763.5 c 128,-1,3
 261 810 261 810 261 858 c 0,4,5
 261 965 261 965 299 1056 c 1,6,-1
 116 1220 l 1,7,-1
 254 1375 l 1,8,-1
 429 1213 l 1,9,10
 469 1238 469 1238 518.5 1251.5 c 128,-1,11
 568 1265 568 1265 628 1265 c 0,12,13
 694 1265 694 1265 748.5 1249 c 128,-1,14
 803 1233 803 1233 847 1204 c 1,15,-1
 1032 1375 l 1,16,-1
 1171 1220 l 1,17,-1
 974 1045 l 1,18,19
 1010 961 1010 961 1010 858 c 0,20,21
 1010 769 1010 769 975 687 c 1,22,-1
 1171 513 l 1,23,-1
 1032 358 l 1,24,-1
 848 528 l 1,25,26
 804 498 804 498 749.5 481 c 128,-1,27
 695 464 695 464 628 464 c 0,28,29
 568 464 568 464 518 478 c 128,-1,30
 468 492 468 492 427 518 c 1,31,-1
 254 358 l 1,32,-1
 116 513 l 1,0,-1
628 691 m 0,33,34
 669 691 669 691 700 705.5 c 128,-1,35
 731 720 731 720 751.5 743.5 c 128,-1,36
 772 767 772 767 782 796 c 128,-1,37
 792 825 792 825 792 855 c 0,38,39
 792 892 792 892 782 925.5 c 128,-1,40
 772 959 772 959 751.5 984 c 128,-1,41
 731 1009 731 1009 700 1024 c 128,-1,42
 669 1039 669 1039 628 1039 c 0,43,44
 591 1039 591 1039 564.5 1024 c 128,-1,45
 538 1009 538 1009 520.5 983.5 c 128,-1,46
 503 958 503 958 494.5 924.5 c 128,-1,47
 486 891 486 891 486 855 c 0,48,49
 486 824 486 824 494.5 794.5 c 128,-1,50
 503 765 503 765 521 742 c 128,-1,51
 539 719 539 719 565.5 705 c 128,-1,52
 592 691 592 691 628 691 c 0,33,34
EndSplineSet
EndChar

StartChar: two
Encoding: 50 50 212
Width: 992
Flags: W
LayerCount: 2
Fore
SplineSet
102 152 m 1,0,-1
 479 878 l 2,1,2
 531 977 531 977 563.5 1051 c 128,-1,3
 596 1125 596 1125 614.5 1180.5 c 128,-1,4
 633 1236 633 1236 640 1277 c 128,-1,5
 647 1318 647 1318 647 1351 c 0,6,7
 647 1403 647 1403 637.5 1438.5 c 128,-1,8
 628 1474 628 1474 609.5 1495.5 c 128,-1,9
 591 1517 591 1517 563.5 1526 c 128,-1,10
 536 1535 536 1535 500 1535 c 0,11,12
 412 1535 412 1535 372.5 1462.5 c 128,-1,13
 333 1390 333 1390 333 1254 c 2,14,-1
 333 1157 l 1,15,-1
 133 1157 l 1,16,17
 122 1213 122 1213 114 1259.5 c 128,-1,18
 106 1306 106 1306 106 1361 c 0,19,20
 106 1426 106 1426 128.5 1490.5 c 128,-1,21
 151 1555 151 1555 199 1607 c 128,-1,22
 247 1659 247 1659 321.5 1691 c 128,-1,23
 396 1723 396 1723 500 1723 c 0,24,25
 612 1723 612 1723 691.5 1697 c 128,-1,26
 771 1671 771 1671 822 1621 c 128,-1,27
 873 1571 873 1571 896.5 1499 c 128,-1,28
 920 1427 920 1427 920 1336 c 0,29,30
 920 1284 920 1284 910.5 1233.5 c 128,-1,31
 901 1183 901 1183 879 1125.5 c 128,-1,32
 857 1068 857 1068 822 1000 c 128,-1,33
 787 932 787 932 736 844 c 1,34,-1
 399 204 l 1,35,-1
 898 204 l 1,36,-1
 898 0 l 1,37,-1
 102 0 l 1,38,-1
 102 152 l 1,0,-1
EndSplineSet
Substitution2: "'sups' Superscript in Latin lookup 2 subtable" twosuperior
EndChar

StartChar: three
Encoding: 51 51 213
Width: 1035
Flags: W
LayerCount: 2
Fore
SplineSet
100 348 m 0,0,1
 100 391 100 391 106 442.5 c 128,-1,2
 112 494 112 494 125 549 c 1,3,-1
 327 549 l 1,4,-1
 327 462 l 2,5,6
 327 382 327 382 340.5 328 c 128,-1,7
 354 274 354 274 377 241 c 128,-1,8
 400 208 400 208 432 194 c 128,-1,9
 464 180 464 180 502 180 c 0,10,11
 539 180 539 180 569 190.5 c 128,-1,12
 599 201 599 201 620 225 c 128,-1,13
 641 249 641 249 652 286.5 c 128,-1,14
 663 324 663 324 663 378 c 2,15,-1
 663 567 l 2,16,17
 663 621 663 621 653.5 663 c 128,-1,18
 644 705 644 705 623 733.5 c 128,-1,19
 602 762 602 762 568 777 c 128,-1,20
 534 792 534 792 484 792 c 2,21,-1
 375 792 l 1,22,-1
 375 977 l 1,23,-1
 484 977 l 2,24,25
 516 977 516 977 544 987.5 c 128,-1,26
 572 998 572 998 593 1021.5 c 128,-1,27
 614 1045 614 1045 626 1082 c 128,-1,28
 638 1119 638 1119 638 1172 c 2,29,-1
 638 1351 l 2,30,31
 638 1446 638 1446 601 1490.5 c 128,-1,32
 564 1535 564 1535 491 1535 c 0,33,34
 410 1535 410 1535 366.5 1462.5 c 128,-1,35
 323 1390 323 1390 323 1254 c 2,36,-1
 323 1157 l 1,37,-1
 123 1157 l 1,38,39
 112 1207 112 1207 104 1256.5 c 128,-1,40
 96 1306 96 1306 96 1361 c 0,41,42
 96 1426 96 1426 120 1490.5 c 128,-1,43
 144 1555 144 1555 192.5 1607 c 128,-1,44
 241 1659 241 1659 315.5 1691 c 128,-1,45
 390 1723 390 1723 491 1723 c 0,46,47
 600 1723 600 1723 678 1698 c 128,-1,48
 756 1673 756 1673 805.5 1624.5 c 128,-1,49
 855 1576 855 1576 878.5 1505.5 c 128,-1,50
 902 1435 902 1435 902 1345 c 2,51,-1
 902 1240 l 2,52,53
 902 1167 902 1167 883.5 1110.5 c 128,-1,54
 865 1054 865 1054 835.5 1012 c 128,-1,55
 806 970 806 970 768.5 940.5 c 128,-1,56
 731 911 731 911 692 893 c 1,57,-1
 692 885 l 1,58,59
 742 868 742 868 785 840.5 c 128,-1,60
 828 813 828 813 859.5 770 c 128,-1,61
 891 727 891 727 909 666 c 128,-1,62
 927 605 927 605 927 521 c 2,63,-1
 927 408 l 2,64,65
 927 290 927 290 893 209 c 128,-1,66
 859 128 859 128 801 78.5 c 128,-1,67
 743 29 743 29 665.5 7 c 128,-1,68
 588 -15 588 -15 502 -15 c 0,69,70
 306 -15 306 -15 203 80 c 128,-1,71
 100 175 100 175 100 348 c 0,0,1
EndSplineSet
Substitution2: "'sups' Superscript in Latin lookup 2 subtable" threesuperior
EndChar

StartChar: four
Encoding: 52 52 214
Width: 1100
Flags: W
LayerCount: 2
Fore
SplineSet
81 442 m 1,0,-1
 579 1708 l 1,1,-1
 888 1708 l 1,2,-1
 888 509 l 1,3,-1
 1046 509 l 1,4,-1
 1046 306 l 1,5,-1
 888 306 l 1,6,-1
 888 0 l 1,7,-1
 647 0 l 1,8,-1
 647 306 l 1,9,-1
 81 306 l 1,10,-1
 81 442 l 1,0,-1
647 509 m 1,11,-1
 647 761 l 1,12,-1
 671 1405 l 1,13,-1
 641 1405 l 1,14,-1
 345 509 l 1,15,-1
 647 509 l 1,11,-1
EndSplineSet
EndChar

StartChar: five
Encoding: 53 53 215
Width: 1030
Flags: W
LayerCount: 2
Fore
SplineSet
126 351 m 0,0,1
 126 442 126 442 151 549 c 1,2,-1
 353 549 l 1,3,-1
 353 409 l 2,4,5
 353 287 353 287 388.5 233.5 c 128,-1,6
 424 180 424 180 505 180 c 0,7,8
 587 180 587 180 621 239 c 128,-1,9
 655 298 655 298 655 409 c 2,10,-1
 655 739 l 2,11,12
 655 803 655 803 644 842.5 c 128,-1,13
 633 882 633 882 614 904.5 c 128,-1,14
 595 927 595 927 569.5 935 c 128,-1,15
 544 943 544 943 514 943 c 0,16,17
 458 943 458 943 418 911.5 c 128,-1,18
 378 880 378 880 352 836 c 1,19,-1
 161 836 l 1,20,-1
 161 1708 l 1,21,-1
 895 1708 l 1,22,-1
 895 1479 l 1,23,-1
 377 1479 l 1,24,-1
 377 1057 l 1,25,26
 419 1105 419 1105 482.5 1132 c 128,-1,27
 546 1159 546 1159 615 1159 c 0,28,29
 774 1159 774 1159 848 1052 c 128,-1,30
 922 945 922 945 922 737 c 2,31,-1
 922 447 l 2,32,33
 922 315 922 315 888 226.5 c 128,-1,34
 854 138 854 138 798 84.5 c 128,-1,35
 742 31 742 31 668.5 8 c 128,-1,36
 595 -15 595 -15 517 -15 c 0,37,38
 422 -15 422 -15 349 10.5 c 128,-1,39
 276 36 276 36 226.5 84 c 128,-1,40
 177 132 177 132 151.5 199.5 c 128,-1,41
 126 267 126 267 126 351 c 0,0,1
EndSplineSet
EndChar

StartChar: six
Encoding: 54 54 216
Width: 1050
Flags: W
LayerCount: 2
Fore
SplineSet
108 1209 m 2,0,1
 108 1327 108 1327 129.5 1411 c 128,-1,2
 151 1495 151 1495 186.5 1552.5 c 128,-1,3
 222 1610 222 1610 268 1643.5 c 128,-1,4
 314 1677 314 1677 362.5 1695 c 128,-1,5
 411 1713 411 1713 459 1718 c 128,-1,6
 507 1723 507 1723 547 1723 c 0,7,8
 650 1723 650 1723 723 1696.5 c 128,-1,9
 796 1670 796 1670 842.5 1625.5 c 128,-1,10
 889 1581 889 1581 910 1522 c 128,-1,11
 931 1463 931 1463 931 1398 c 0,12,13
 931 1363 931 1363 924.5 1321 c 128,-1,14
 918 1279 918 1279 904 1237 c 1,15,-1
 707 1237 l 1,16,-1
 707 1289 l 2,17,18
 707 1367 707 1367 697.5 1416 c 128,-1,19
 688 1465 688 1465 668.5 1493.5 c 128,-1,20
 649 1522 649 1522 619 1532.5 c 128,-1,21
 589 1543 589 1543 547 1543 c 0,22,23
 461 1543 461 1543 415.5 1484.5 c 128,-1,24
 370 1426 370 1426 370 1297 c 2,25,-1
 370 968 l 1,26,27
 408 1010 408 1010 469.5 1038.5 c 128,-1,28
 531 1067 531 1067 612 1067 c 0,29,30
 670 1067 670 1067 729.5 1048.5 c 128,-1,31
 789 1030 789 1030 837.5 982.5 c 128,-1,32
 886 935 886 935 916.5 853.5 c 128,-1,33
 947 772 947 772 947 645 c 2,34,-1
 947 479 l 2,35,36
 947 342 947 342 918.5 248 c 128,-1,37
 890 154 890 154 837 95.5 c 128,-1,38
 784 37 784 37 709.5 11 c 128,-1,39
 635 -15 635 -15 542 -15 c 0,40,41
 437 -15 437 -15 356.5 13 c 128,-1,42
 276 41 276 41 220.5 103 c 128,-1,43
 165 165 165 165 136.5 264.5 c 128,-1,44
 108 364 108 364 108 507 c 2,45,-1
 108 1209 l 2,0,1
370 410 m 2,46,47
 370 292 370 292 410.5 236 c 128,-1,48
 451 180 451 180 539 180 c 0,49,50
 616 180 616 180 652 235 c 128,-1,51
 688 290 688 290 688 400 c 2,52,-1
 688 654 l 2,53,54
 688 716 688 716 677 758 c 128,-1,55
 666 800 666 800 646 825.5 c 128,-1,56
 626 851 626 851 598 862 c 128,-1,57
 570 873 570 873 535 873 c 0,58,59
 508 873 508 873 483.5 865 c 128,-1,60
 459 857 459 857 438 844 c 128,-1,61
 417 831 417 831 400 814 c 128,-1,62
 383 797 383 797 370 780 c 1,63,-1
 370 410 l 2,46,47
EndSplineSet
EndChar

StartChar: seven
Encoding: 55 55 217
Width: 848
Flags: W
LayerCount: 2
Fore
SplineSet
543 1480 m 1,0,-1
 41 1480 l 1,1,-1
 41 1709 l 1,2,-1
 821 1709 l 1,3,-1
 821 1572 l 1,4,-1
 351 0 l 1,5,-1
 70 0 l 1,6,-1
 543 1480 l 1,0,-1
EndSplineSet
EndChar

StartChar: eight
Encoding: 56 56 218
Width: 1042
Flags: W
LayerCount: 2
Fore
SplineSet
87 519 m 2,0,1
 87 594 87 594 103 652 c 128,-1,2
 119 710 119 710 147.5 754 c 128,-1,3
 176 798 176 798 215 829.5 c 128,-1,4
 254 861 254 861 299 884 c 1,5,-1
 299 892 l 1,6,7
 266 910 266 910 232.5 937 c 128,-1,8
 199 964 199 964 172 1003.5 c 128,-1,9
 145 1043 145 1043 128 1096.5 c 128,-1,10
 111 1150 111 1150 111 1219 c 2,11,-1
 111 1339 l 2,12,13
 111 1422 111 1422 131 1483 c 128,-1,14
 151 1544 151 1544 183.5 1587 c 128,-1,15
 216 1630 216 1630 259 1656.5 c 128,-1,16
 302 1683 302 1683 347.5 1698 c 128,-1,17
 393 1713 393 1713 438.5 1718 c 128,-1,18
 484 1723 484 1723 522 1723 c 0,19,20
 561 1723 561 1723 606 1718 c 128,-1,21
 651 1713 651 1713 697 1698 c 128,-1,22
 743 1683 743 1683 785.5 1656.5 c 128,-1,23
 828 1630 828 1630 861 1587.5 c 128,-1,24
 894 1545 894 1545 914 1484 c 128,-1,25
 934 1423 934 1423 934 1340 c 2,26,-1
 934 1220 l 2,27,28
 934 1151 934 1151 917 1097.5 c 128,-1,29
 900 1044 900 1044 873 1004.5 c 128,-1,30
 846 965 846 965 812.5 938 c 128,-1,31
 779 911 779 911 746 893 c 1,32,-1
 746 885 l 1,33,34
 792 862 792 862 830.5 830.5 c 128,-1,35
 869 799 869 799 897.5 755 c 128,-1,36
 926 711 926 711 942 653 c 128,-1,37
 958 595 958 595 958 520 c 2,38,-1
 958 415 l 2,39,40
 958 327 958 327 940 261 c 128,-1,41
 922 195 922 195 890.5 147 c 128,-1,42
 859 99 859 99 817 68 c 128,-1,43
 775 37 775 37 726.5 18.5 c 128,-1,44
 678 0 678 0 625.5 -7.5 c 128,-1,45
 573 -15 573 -15 521 -15 c 256,46,47
 469 -15 469 -15 417 -7.5 c 128,-1,48
 365 0 365 0 316.5 18 c 128,-1,49
 268 36 268 36 226 67.5 c 128,-1,50
 184 99 184 99 153.5 146.5 c 128,-1,51
 123 194 123 194 105 260 c 128,-1,52
 87 326 87 326 87 414 c 2,53,-1
 87 519 l 2,0,1
534 976 m 2,54,55
 563 976 563 976 588.5 985.5 c 128,-1,56
 614 995 614 995 633 1018 c 128,-1,57
 652 1041 652 1041 663 1080 c 128,-1,58
 674 1119 674 1119 674 1178 c 2,59,-1
 674 1319 l 2,60,61
 674 1425 674 1425 638.5 1480 c 128,-1,62
 603 1535 603 1535 522 1535 c 256,63,64
 441 1535 441 1535 406.5 1479 c 128,-1,65
 372 1423 372 1423 372 1317 c 2,66,-1
 372 1177 l 2,67,68
 372 1120 372 1120 381.5 1081.5 c 128,-1,69
 391 1043 391 1043 409 1019.5 c 128,-1,70
 427 996 427 996 452.5 986 c 128,-1,71
 478 976 478 976 510 976 c 2,72,-1
 534 976 l 2,54,55
350 393 m 2,73,74
 350 328 350 328 364.5 286.5 c 128,-1,75
 379 245 379 245 402.5 221.5 c 128,-1,76
 426 198 426 198 457 189 c 128,-1,77
 488 180 488 180 521 180 c 256,78,79
 554 180 554 180 585.5 189 c 128,-1,80
 617 198 617 198 641 222 c 128,-1,81
 665 246 665 246 680 287.5 c 128,-1,82
 695 329 695 329 695 394 c 2,83,-1
 695 582 l 2,84,85
 695 638 695 638 683.5 677.5 c 128,-1,86
 672 717 672 717 651 742.5 c 128,-1,87
 630 768 630 768 600 779.5 c 128,-1,88
 570 791 570 791 534 791 c 2,89,-1
 509 791 l 2,90,91
 436 791 436 791 393 740.5 c 128,-1,92
 350 690 350 690 350 581 c 2,93,-1
 350 393 l 2,73,74
EndSplineSet
EndChar

StartChar: nine
Encoding: 57 57 219
Width: 1039
Flags: W
LayerCount: 2
Fore
SplineSet
101 310 m 0,0,1
 101 345 101 345 107.5 387 c 128,-1,2
 114 429 114 429 128 471 c 1,3,-1
 325 471 l 1,4,-1
 325 434 l 2,5,6
 325 356 325 356 335 307 c 128,-1,7
 345 258 345 258 366 229.5 c 128,-1,8
 387 201 387 201 419 190.5 c 128,-1,9
 451 180 451 180 495 180 c 0,10,11
 575 180 575 180 618.5 238.5 c 128,-1,12
 662 297 662 297 662 426 c 2,13,-1
 662 740 l 1,14,15
 624 698 624 698 564 669.5 c 128,-1,16
 504 641 504 641 423 641 c 0,17,18
 365 641 365 641 305 659.5 c 128,-1,19
 245 678 245 678 196 725.5 c 128,-1,20
 147 773 147 773 116 854.5 c 128,-1,21
 85 936 85 936 85 1063 c 2,22,-1
 85 1229 l 2,23,24
 85 1365 85 1365 113.5 1459.5 c 128,-1,25
 142 1554 142 1554 195 1612.5 c 128,-1,26
 248 1671 248 1671 322.5 1697 c 128,-1,27
 397 1723 397 1723 490 1723 c 0,28,29
 595 1723 595 1723 675.5 1696.5 c 128,-1,30
 756 1670 756 1670 811.5 1610 c 128,-1,31
 867 1550 867 1550 895.5 1452 c 128,-1,32
 924 1354 924 1354 924 1211 c 2,33,-1
 924 499 l 2,34,35
 924 381 924 381 903 297 c 128,-1,36
 882 213 882 213 847 155.5 c 128,-1,37
 812 98 812 98 767.5 64.5 c 128,-1,38
 723 31 723 31 675 13 c 128,-1,39
 627 -5 627 -5 580.5 -10 c 128,-1,40
 534 -15 534 -15 495 -15 c 0,41,42
 389 -15 389 -15 314 11.5 c 128,-1,43
 239 38 239 38 192 82.5 c 128,-1,44
 145 127 145 127 123 186 c 128,-1,45
 101 245 101 245 101 310 c 0,0,1
497 835 m 0,46,47
 524 835 524 835 548.5 843 c 128,-1,48
 573 851 573 851 594 864 c 128,-1,49
 615 877 615 877 632 894 c 128,-1,50
 649 911 649 911 662 928 c 1,51,-1
 662 1326 l 2,52,53
 662 1384 662 1384 652 1424.5 c 128,-1,54
 642 1465 642 1465 621.5 1489.5 c 128,-1,55
 601 1514 601 1514 569 1525 c 128,-1,56
 537 1536 537 1536 493 1536 c 0,57,58
 416 1536 416 1536 380 1481 c 128,-1,59
 344 1426 344 1426 344 1316 c 2,60,-1
 344 1054 l 2,61,62
 344 992 344 992 355 950 c 128,-1,63
 366 908 366 908 386 882.5 c 128,-1,64
 406 857 406 857 434 846 c 128,-1,65
 462 835 462 835 497 835 c 0,46,47
EndSplineSet
EndChar

StartChar: question
Encoding: 63 63 220
Width: 1026
Flags: W
LayerCount: 2
Fore
SplineSet
392 760 m 2,0,1
 392 800 392 800 394 829.5 c 128,-1,2
 396 859 396 859 402.5 886 c 128,-1,3
 409 913 409 913 422 940.5 c 128,-1,4
 435 968 435 968 457 1003 c 2,5,-1
 575 1189 l 1,6,7
 613 1251 613 1251 635 1317 c 128,-1,8
 657 1383 657 1383 657 1439 c 0,9,10
 657 1480 657 1480 646 1514 c 128,-1,11
 635 1548 635 1548 615 1572 c 128,-1,12
 595 1596 595 1596 565.5 1609.5 c 128,-1,13
 536 1623 536 1623 500 1623 c 0,14,15
 419 1623 419 1623 381 1551 c 128,-1,16
 343 1479 343 1479 343 1343 c 2,17,-1
 343 1261 l 1,18,-1
 139 1261 l 1,19,20
 128 1317 128 1317 120 1363.5 c 128,-1,21
 112 1410 112 1410 112 1465 c 0,22,23
 112 1541 112 1541 135 1607 c 128,-1,24
 158 1673 158 1673 207 1722 c 128,-1,25
 256 1771 256 1771 331 1799 c 128,-1,26
 406 1827 406 1827 510 1827 c 0,27,28
 613 1827 613 1827 690.5 1799.5 c 128,-1,29
 768 1772 768 1772 820 1721 c 128,-1,30
 872 1670 872 1670 897.5 1598.5 c 128,-1,31
 923 1527 923 1527 923 1439 c 0,32,33
 923 1389 923 1389 914 1343.5 c 128,-1,34
 905 1298 905 1298 886 1252.5 c 128,-1,35
 867 1207 867 1207 839 1159.5 c 128,-1,36
 811 1112 811 1112 772 1060 c 2,37,-1
 692 952 l 2,38,39
 663 913 663 913 647 885 c 128,-1,40
 631 857 631 857 623.5 830 c 128,-1,41
 616 803 616 803 614 773 c 128,-1,42
 612 743 612 743 612 701 c 2,43,-1
 612 557 l 1,44,-1
 391 557 l 1,45,-1
 392 760 l 2,0,1
360 177 m 0,46,47
 360 282 360 282 402 327.5 c 128,-1,48
 444 373 444 373 516 373 c 0,49,50
 591 373 591 373 632 325 c 128,-1,51
 673 277 673 277 673 177 c 0,52,53
 673 86 673 86 631.5 36 c 128,-1,54
 590 -14 590 -14 515 -14 c 0,55,56
 444 -14 444 -14 402 34.5 c 128,-1,57
 360 83 360 83 360 177 c 0,46,47
EndSplineSet
EndChar

StartChar: multiply
Encoding: 215 215 222
Width: 860
Flags: W
LayerCount: 2
Fore
SplineSet
66 551 m 1,0,-1
 300 790 l 1,1,-1
 66 1029 l 1,2,-1
 196 1161 l 1,3,-1
 430 922 l 1,4,-1
 665 1161 l 1,5,-1
 795 1029 l 1,6,-1
 560 790 l 1,7,-1
 795 551 l 1,8,-1
 665 419 l 1,9,-1
 430 657 l 1,10,-1
 196 419 l 1,11,-1
 66 551 l 1,0,-1
EndSplineSet
EndChar

StartChar: sterling
Encoding: 163 163 223
Width: 1006
Flags: W
LayerCount: 2
Fore
SplineSet
98 152 m 1,0,1
 140 171 140 171 160 213 c 128,-1,2
 180 255 180 255 188 313.5 c 128,-1,3
 196 372 196 372 195.5 443 c 128,-1,4
 195 514 195 514 195 591 c 2,5,-1
 195 701 l 1,6,-1
 66 701 l 1,7,-1
 66 880 l 1,8,-1
 195 880 l 1,9,-1
 195 1224 l 2,10,11
 195 1348 195 1348 217.5 1441.5 c 128,-1,12
 240 1535 240 1535 287 1597.5 c 128,-1,13
 334 1660 334 1660 407 1691.5 c 128,-1,14
 480 1723 480 1723 581 1723 c 0,15,16
 676 1723 676 1723 742.5 1693.5 c 128,-1,17
 809 1664 809 1664 851 1615 c 128,-1,18
 893 1566 893 1566 912.5 1502.5 c 128,-1,19
 932 1439 932 1439 932 1371 c 0,20,21
 932 1323 932 1323 925 1268 c 128,-1,22
 918 1213 918 1213 906 1157 c 1,23,-1
 705 1157 l 1,24,-1
 705 1228 l 2,25,26
 705 1309 705 1309 695.5 1364.5 c 128,-1,27
 686 1420 686 1420 669 1454.5 c 128,-1,28
 652 1489 652 1489 628 1504.5 c 128,-1,29
 604 1520 604 1520 574 1520 c 0,30,31
 543 1520 543 1520 519.5 1506 c 128,-1,32
 496 1492 496 1492 480.5 1458.5 c 128,-1,33
 465 1425 465 1425 457.5 1368 c 128,-1,34
 450 1311 450 1311 450 1224 c 2,35,-1
 450 880 l 1,36,-1
 729 880 l 1,37,-1
 729 701 l 1,38,-1
 450 701 l 1,39,-1
 450 563 l 2,40,41
 450 442 450 442 432.5 354.5 c 128,-1,42
 415 267 415 267 372 204 c 1,43,-1
 908 204 l 1,44,-1
 908 0 l 1,45,-1
 98 0 l 1,46,-1
 98 152 l 1,0,1
EndSplineSet
EndChar

StartChar: braceleft
Encoding: 123 123 224
Width: 896
Flags: W
LayerCount: 2
Fore
SplineSet
284 551 m 2,0,1
 284 611 284 611 274 651 c 128,-1,2
 264 691 264 691 244 715.5 c 128,-1,3
 224 740 224 740 195 751 c 128,-1,4
 166 762 166 762 128 764 c 2,5,-1
 76 767 l 1,6,-1
 76 946 l 1,7,-1
 127 949 l 2,8,9
 165 951 165 951 194 962 c 128,-1,10
 223 973 223 973 243 997.5 c 128,-1,11
 263 1022 263 1022 273 1061.5 c 128,-1,12
 283 1101 283 1101 283 1161 c 2,13,-1
 283 1580 l 2,14,15
 283 1683 283 1683 309.5 1756 c 128,-1,16
 336 1829 336 1829 381.5 1875.5 c 128,-1,17
 427 1922 427 1922 487 1943 c 128,-1,18
 547 1964 547 1964 615 1964 c 0,19,20
 647 1964 647 1964 686.5 1957 c 128,-1,21
 726 1950 726 1950 765 1938 c 1,22,-1
 765 1784 l 1,23,-1
 727 1784 l 2,24,25
 665 1784 665 1784 623.5 1777 c 128,-1,26
 582 1770 582 1770 556 1754 c 128,-1,27
 530 1738 530 1738 519 1711.5 c 128,-1,28
 508 1685 508 1685 508 1646 c 2,29,-1
 508 1245 l 2,30,31
 508 1171 508 1171 500.5 1111.5 c 128,-1,32
 493 1052 493 1052 474.5 1005 c 128,-1,33
 456 958 456 958 424.5 924 c 128,-1,34
 393 890 393 890 346 869 c 1,35,-1
 346 843 l 1,36,37
 392 822 392 822 423 788 c 128,-1,38
 454 754 454 754 473 707.5 c 128,-1,39
 492 661 492 661 500 601 c 128,-1,40
 508 541 508 541 508 468 c 2,41,-1
 508 63 l 2,42,43
 508 24 508 24 519 -2.5 c 128,-1,44
 530 -29 530 -29 556 -45.5 c 128,-1,45
 582 -62 582 -62 623.5 -69 c 128,-1,46
 665 -76 665 -76 727 -76 c 2,47,-1
 765 -76 l 1,48,-1
 765 -229 l 1,49,50
 726 -242 726 -242 686.5 -249 c 128,-1,51
 647 -256 647 -256 615 -256 c 0,52,53
 547 -256 547 -256 487 -235 c 128,-1,54
 427 -214 427 -214 382 -167.5 c 128,-1,55
 337 -121 337 -121 310.5 -48 c 128,-1,56
 284 25 284 25 284 129 c 2,57,-1
 284 551 l 2,0,1
EndSplineSet
EndChar

StartChar: braceright
Encoding: 125 125 225
Width: 896
Flags: W
LayerCount: 2
Fore
SplineSet
169 -76 m 2,0,1
 230 -76 230 -76 272 -69 c 128,-1,2
 314 -62 314 -62 340 -45.5 c 128,-1,3
 366 -29 366 -29 377 -2.5 c 128,-1,4
 388 24 388 24 388 63 c 2,5,-1
 388 468 l 2,6,7
 388 541 388 541 396 601 c 128,-1,8
 404 661 404 661 422.5 707.5 c 128,-1,9
 441 754 441 754 472 788 c 128,-1,10
 503 822 503 822 549 843 c 1,11,-1
 549 869 l 1,12,13
 502 890 502 890 471 924 c 128,-1,14
 440 958 440 958 421.5 1005 c 128,-1,15
 403 1052 403 1052 395.5 1111.5 c 128,-1,16
 388 1171 388 1171 388 1245 c 2,17,-1
 388 1646 l 2,18,19
 388 1685 388 1685 377 1711.5 c 128,-1,20
 366 1738 366 1738 340 1754 c 128,-1,21
 314 1770 314 1770 272 1777 c 128,-1,22
 230 1784 230 1784 169 1784 c 2,23,-1
 131 1784 l 1,24,-1
 131 1938 l 1,25,26
 170 1950 170 1950 209 1957 c 128,-1,27
 248 1964 248 1964 281 1964 c 0,28,29
 348 1964 348 1964 408.5 1943 c 128,-1,30
 469 1922 469 1922 514.5 1875.5 c 128,-1,31
 560 1829 560 1829 586.5 1756 c 128,-1,32
 613 1683 613 1683 613 1580 c 2,33,-1
 613 1161 l 2,34,35
 613 1101 613 1101 623 1061.5 c 128,-1,36
 633 1022 633 1022 653 997.5 c 128,-1,37
 673 973 673 973 702 962 c 128,-1,38
 731 951 731 951 769 949 c 2,39,-1
 820 946 l 1,40,-1
 820 767 l 1,41,-1
 768 764 l 2,42,43
 730 762 730 762 701 751 c 128,-1,44
 672 740 672 740 652 715.5 c 128,-1,45
 632 691 632 691 622 651 c 128,-1,46
 612 611 612 611 612 551 c 2,47,-1
 612 129 l 2,48,49
 612 25 612 25 585.5 -48 c 128,-1,50
 559 -121 559 -121 514 -167.5 c 128,-1,51
 469 -214 469 -214 408.5 -235 c 128,-1,52
 348 -256 348 -256 281 -256 c 0,53,54
 248 -256 248 -256 209 -249 c 128,-1,55
 170 -242 170 -242 131 -229 c 1,56,-1
 131 -76 l 1,57,-1
 169 -76 l 2,0,1
EndSplineSet
EndChar

StartChar: twosuperior
Encoding: 178 178 226
Width: 864
Flags: W
LayerCount: 2
Fore
SplineSet
116 795 m 1,0,-1
 382 1193 l 2,1,2
 421 1250 421 1250 444 1294 c 128,-1,3
 467 1338 467 1338 479 1373 c 128,-1,4
 491 1408 491 1408 494.5 1435.5 c 128,-1,5
 498 1463 498 1463 498 1488 c 0,6,7
 498 1545 498 1545 475 1570.5 c 128,-1,8
 452 1596 452 1596 407 1596 c 256,9,10
 362 1596 362 1596 334.5 1558 c 128,-1,11
 307 1520 307 1520 307 1445 c 2,12,-1
 307 1392 l 1,13,-1
 123 1392 l 1,14,15
 120 1411 120 1411 117 1426 c 128,-1,16
 114 1441 114 1441 112.5 1453.5 c 128,-1,17
 111 1466 111 1466 110 1478 c 128,-1,18
 109 1490 109 1490 109 1504 c 0,19,20
 109 1561 109 1561 129.5 1608.5 c 128,-1,21
 150 1656 150 1656 190 1689.5 c 128,-1,22
 230 1723 230 1723 287 1742 c 128,-1,23
 344 1761 344 1761 418 1761 c 0,24,25
 467 1761 467 1761 523.5 1751 c 128,-1,26
 580 1741 580 1741 627 1712 c 128,-1,27
 674 1683 674 1683 705.5 1629 c 128,-1,28
 737 1575 737 1575 737 1488 c 0,29,30
 737 1450 737 1450 730.5 1412.5 c 128,-1,31
 724 1375 724 1375 707.5 1333.5 c 128,-1,32
 691 1292 691 1292 663 1243.5 c 128,-1,33
 635 1195 635 1195 592 1134 c 2,34,-1
 394 850 l 1,35,-1
 738 850 l 1,36,-1
 738 677 l 1,37,-1
 116 677 l 1,38,-1
 116 795 l 1,0,-1
EndSplineSet
EndChar

StartChar: threesuperior
Encoding: 179 179 227
Width: 861
Flags: W
LayerCount: 2
Fore
SplineSet
401 666 m 0,0,1
 316 666 316 666 256.5 687.5 c 128,-1,2
 197 709 197 709 159 744 c 128,-1,3
 121 779 121 779 103.5 823 c 128,-1,4
 86 867 86 867 86 913 c 0,5,6
 86 944 86 944 89 974 c 128,-1,7
 92 1004 92 1004 100 1046 c 1,8,-1
 286 1046 l 1,9,-1
 286 1000 l 2,10,11
 286 952 286 952 295 919.5 c 128,-1,12
 304 887 304 887 319.5 867 c 128,-1,13
 335 847 335 847 356 838.5 c 128,-1,14
 377 830 377 830 401 830 c 0,15,16
 462 830 462 830 487.5 863 c 128,-1,17
 513 896 513 896 513 946 c 2,18,-1
 513 1019 l 2,19,20
 513 1093 513 1093 479.5 1125.5 c 128,-1,21
 446 1158 446 1158 397 1158 c 2,22,-1
 317 1158 l 1,23,-1
 317 1293 l 1,24,-1
 397 1293 l 2,25,26
 419 1293 419 1293 438 1299.5 c 128,-1,27
 457 1306 457 1306 471.5 1321 c 128,-1,28
 486 1336 486 1336 494.5 1360 c 128,-1,29
 503 1384 503 1384 503 1418 c 2,30,-1
 503 1489 l 2,31,32
 503 1512 503 1512 497.5 1532 c 128,-1,33
 492 1552 492 1552 480 1566.5 c 128,-1,34
 468 1581 468 1581 448.5 1589 c 128,-1,35
 429 1597 429 1597 401 1597 c 0,36,37
 379 1597 379 1597 360 1589 c 128,-1,38
 341 1581 341 1581 326.5 1562 c 128,-1,39
 312 1543 312 1543 304 1513 c 128,-1,40
 296 1483 296 1483 296 1438 c 2,41,-1
 296 1392 l 1,42,-1
 114 1392 l 1,43,44
 106 1430 106 1430 103 1457.5 c 128,-1,45
 100 1485 100 1485 100 1514 c 0,46,47
 100 1560 100 1560 117.5 1604 c 128,-1,48
 135 1648 135 1648 172.5 1683 c 128,-1,49
 210 1718 210 1718 268.5 1739.5 c 128,-1,50
 327 1761 327 1761 409 1761 c 0,51,52
 461 1761 461 1761 517 1750.5 c 128,-1,53
 573 1740 573 1740 619.5 1711 c 128,-1,54
 666 1682 666 1682 695.5 1631.5 c 128,-1,55
 725 1581 725 1581 725 1500 c 2,56,-1
 725 1437 l 1,57,58
 717 1367 717 1367 687.5 1312.5 c 128,-1,59
 658 1258 658 1258 593 1230 c 1,60,-1
 593 1222 l 1,61,62
 661 1194 661 1194 698 1138 c 128,-1,63
 735 1082 735 1082 735 1011 c 2,64,-1
 735 946 l 2,65,66
 735 859 735 859 703 804.5 c 128,-1,67
 671 750 671 750 622 719 c 128,-1,68
 573 688 573 688 514 677 c 128,-1,69
 455 666 455 666 401 666 c 0,0,1
EndSplineSet
EndChar

StartChar: onesuperior
Encoding: 185 185 228
Width: 770
Flags: W
LayerCount: 2
Fore
SplineSet
160 839 m 1,0,-1
 287 839 l 1,1,-1
 287 1450 l 1,2,-1
 154 1338 l 1,3,-1
 66 1470 l 1,4,-1
 331 1726 l 1,5,-1
 509 1726 l 1,6,-1
 509 839 l 1,7,-1
 643 839 l 1,8,-1
 643 677 l 1,9,-1
 160 677 l 1,10,-1
 160 839 l 1,0,-1
EndSplineSet
EndChar

StartChar: onequarter
Encoding: 188 188 229
Width: 1825
Flags: W
LayerCount: 2
Fore
SplineSet
1002 281 m 1,0,-1
 1375 1069 l 1,1,-1
 1632 1069 l 1,2,-1
 1632 339 l 1,3,-1
 1719 339 l 1,4,-1
 1719 185 l 1,5,-1
 1632 185 l 1,6,-1
 1632 1 l 1,7,-1
 1410 1 l 1,8,-1
 1410 185 l 1,9,-1
 1002 185 l 1,10,-1
 1002 281 l 1,0,-1
1410 339 m 1,11,-1
 1410 376 l 1,12,-1
 1436 796 l 1,13,-1
 1424 796 l 1,14,-1
 1223 339 l 1,15,-1
 1410 339 l 1,11,-1
590 0 m 1,16,-1
 1049 1709 l 1,17,-1
 1231 1709 l 1,18,-1
 772 0 l 1,19,-1
 590 0 l 1,16,-1
201 839 m 1,20,-1
 328 839 l 1,21,-1
 328 1450 l 1,22,-1
 195 1338 l 1,23,-1
 107 1470 l 1,24,-1
 372 1726 l 1,25,-1
 550 1726 l 1,26,-1
 550 839 l 1,27,-1
 684 839 l 1,28,-1
 684 677 l 1,29,-1
 201 677 l 1,30,-1
 201 839 l 1,20,-1
EndSplineSet
Ligature2: "'frac' Diagonal Fractions in Latin lookup 4 subtable" one slash four
EndChar

StartChar: threequarters
Encoding: 190 190 231
Width: 1869
Flags: W
LayerCount: 2
Fore
SplineSet
1046 281 m 1,0,-1
 1419 1069 l 1,1,-1
 1677 1069 l 1,2,-1
 1677 339 l 1,3,-1
 1763 339 l 1,4,-1
 1763 185 l 1,5,-1
 1677 185 l 1,6,-1
 1677 1 l 1,7,-1
 1454 1 l 1,8,-1
 1454 185 l 1,9,-1
 1046 185 l 1,10,-1
 1046 281 l 1,0,-1
1454 339 m 1,11,-1
 1454 376 l 1,12,-1
 1481 796 l 1,13,-1
 1468 796 l 1,14,-1
 1267 339 l 1,15,-1
 1454 339 l 1,11,-1
632 0 m 1,16,-1
 1091 1709 l 1,17,-1
 1273 1709 l 1,18,-1
 814 0 l 1,19,-1
 632 0 l 1,16,-1
431 666 m 0,20,21
 346 666 346 666 286.5 687.5 c 128,-1,22
 227 709 227 709 189 744 c 128,-1,23
 151 779 151 779 133.5 823 c 128,-1,24
 116 867 116 867 116 913 c 0,25,26
 116 944 116 944 119 974 c 128,-1,27
 122 1004 122 1004 130 1046 c 1,28,-1
 316 1046 l 1,29,-1
 316 1000 l 2,30,31
 316 952 316 952 325 919.5 c 128,-1,32
 334 887 334 887 349.5 867 c 128,-1,33
 365 847 365 847 386 838.5 c 128,-1,34
 407 830 407 830 431 830 c 0,35,36
 492 830 492 830 517.5 863 c 128,-1,37
 543 896 543 896 543 946 c 2,38,-1
 543 1019 l 2,39,40
 543 1093 543 1093 509.5 1125.5 c 128,-1,41
 476 1158 476 1158 427 1158 c 2,42,-1
 347 1158 l 1,43,-1
 347 1293 l 1,44,-1
 427 1293 l 2,45,46
 449 1293 449 1293 468 1299.5 c 128,-1,47
 487 1306 487 1306 501.5 1321 c 128,-1,48
 516 1336 516 1336 524.5 1360 c 128,-1,49
 533 1384 533 1384 533 1418 c 2,50,-1
 533 1489 l 2,51,52
 533 1512 533 1512 527.5 1532 c 128,-1,53
 522 1552 522 1552 510 1566.5 c 128,-1,54
 498 1581 498 1581 478.5 1589 c 128,-1,55
 459 1597 459 1597 431 1597 c 0,56,57
 409 1597 409 1597 390 1589 c 128,-1,58
 371 1581 371 1581 356.5 1562 c 128,-1,59
 342 1543 342 1543 334 1513 c 128,-1,60
 326 1483 326 1483 326 1438 c 2,61,-1
 326 1392 l 1,62,-1
 144 1392 l 1,63,64
 136 1430 136 1430 133 1457.5 c 128,-1,65
 130 1485 130 1485 130 1514 c 0,66,67
 130 1560 130 1560 147.5 1604 c 128,-1,68
 165 1648 165 1648 202.5 1683 c 128,-1,69
 240 1718 240 1718 298.5 1739.5 c 128,-1,70
 357 1761 357 1761 439 1761 c 0,71,72
 491 1761 491 1761 547 1750.5 c 128,-1,73
 603 1740 603 1740 649.5 1711 c 128,-1,74
 696 1682 696 1682 725.5 1631.5 c 128,-1,75
 755 1581 755 1581 755 1500 c 2,76,-1
 755 1437 l 1,77,78
 747 1367 747 1367 717.5 1312.5 c 128,-1,79
 688 1258 688 1258 623 1230 c 1,80,-1
 623 1222 l 1,81,82
 691 1194 691 1194 728 1138 c 128,-1,83
 765 1082 765 1082 765 1011 c 2,84,-1
 765 946 l 2,85,86
 765 859 765 859 733 804.5 c 128,-1,87
 701 750 701 750 652 719 c 128,-1,88
 603 688 603 688 544 677 c 128,-1,89
 485 666 485 666 431 666 c 0,20,21
EndSplineSet
Ligature2: "'frac' Diagonal Fractions in Latin lookup 4 subtable" three slash four
EndChar

StartChar: germandbls
Encoding: 223 223 232
Width: 1036
Flags: W
LayerCount: 2
Fore
SplineSet
134 1408 m 2,0,1
 134 1514 134 1514 162 1593 c 128,-1,2
 190 1672 190 1672 242.5 1724 c 128,-1,3
 295 1776 295 1776 368.5 1802 c 128,-1,4
 442 1828 442 1828 534 1828 c 0,5,6
 635 1828 635 1828 708.5 1801.5 c 128,-1,7
 782 1775 782 1775 830 1728 c 128,-1,8
 878 1681 878 1681 901 1616 c 128,-1,9
 924 1551 924 1551 924 1474 c 0,10,11
 924 1432 924 1432 918 1392.5 c 128,-1,12
 912 1353 912 1353 899.5 1312.5 c 128,-1,13
 887 1272 887 1272 868.5 1228.5 c 128,-1,14
 850 1185 850 1185 825 1134 c 1,15,16
 801 1095 801 1095 786.5 1066.5 c 128,-1,17
 772 1038 772 1038 764.5 1016.5 c 128,-1,18
 757 995 757 995 754.5 979 c 128,-1,19
 752 963 752 963 752 948 c 0,20,21
 752 913 752 913 764.5 877.5 c 128,-1,22
 777 842 777 842 801 790 c 2,23,-1
 893 593 l 1,24,25
 910 546 910 546 924 507.5 c 128,-1,26
 938 469 938 469 947.5 434 c 128,-1,27
 957 399 957 399 962 366 c 128,-1,28
 967 333 967 333 967 297 c 0,29,30
 967 237 967 237 952 180 c 128,-1,31
 937 123 937 123 905 78.5 c 128,-1,32
 873 34 873 34 821.5 7.5 c 128,-1,33
 770 -19 770 -19 698 -19 c 0,34,35
 652 -19 652 -19 614 -11 c 128,-1,36
 576 -3 576 -3 542 11 c 1,37,-1
 542 187 l 1,38,39
 553 184 553 184 560.5 183 c 128,-1,40
 568 182 568 182 575 181 c 128,-1,41
 582 180 582 180 589 180 c 128,-1,42
 596 180 596 180 607 180 c 0,43,44
 625 180 625 180 643.5 185.5 c 128,-1,45
 662 191 662 191 676.5 204.5 c 128,-1,46
 691 218 691 218 700.5 240.5 c 128,-1,47
 710 263 710 263 710 296 c 0,48,49
 710 347 710 347 692 399.5 c 128,-1,50
 674 452 674 452 648 509 c 2,51,-1
 576 670 l 2,52,53
 548 732 548 732 529 788 c 128,-1,54
 510 844 510 844 510 907 c 0,55,56
 510 934 510 934 514.5 959 c 128,-1,57
 519 984 519 984 529.5 1011 c 128,-1,58
 540 1038 540 1038 557 1069 c 128,-1,59
 574 1100 574 1100 598 1140 c 0,60,61
 628 1191 628 1191 645.5 1231 c 128,-1,62
 663 1271 663 1271 672 1305.5 c 128,-1,63
 681 1340 681 1340 683.5 1371.5 c 128,-1,64
 686 1403 686 1403 686 1436 c 0,65,66
 686 1477 686 1477 676 1512.5 c 128,-1,67
 666 1548 666 1548 646 1574 c 128,-1,68
 626 1600 626 1600 597 1614.5 c 128,-1,69
 568 1629 568 1629 529 1629 c 0,70,71
 499 1629 499 1629 473.5 1621.5 c 128,-1,72
 448 1614 448 1614 428.5 1597 c 128,-1,73
 409 1580 409 1580 398 1552.5 c 128,-1,74
 387 1525 387 1525 387 1485 c 2,75,-1
 387 -443 l 1,76,-1
 134 -443 l 1,77,-1
 134 1408 l 2,0,1
EndSplineSet
EndChar

StartChar: at
Encoding: 64 64 233
Width: 1649
Flags: W
LayerCount: 2
Fore
SplineSet
90 945 m 2,0,1
 90 1127 90 1127 122 1262.5 c 128,-1,2
 154 1398 154 1398 208.5 1495 c 128,-1,3
 263 1592 263 1592 335.5 1655 c 128,-1,4
 408 1718 408 1718 489.5 1754.5 c 128,-1,5
 571 1791 571 1791 656.5 1805.5 c 128,-1,6
 742 1820 742 1820 823 1820 c 0,7,8
 906 1820 906 1820 993 1808 c 128,-1,9
 1080 1796 1080 1796 1161.5 1763 c 128,-1,10
 1243 1730 1243 1730 1315.5 1671 c 128,-1,11
 1388 1612 1388 1612 1442 1518.5 c 128,-1,12
 1496 1425 1496 1425 1527.5 1292 c 128,-1,13
 1559 1159 1559 1159 1559 977 c 2,14,-1
 1559 765 l 2,15,16
 1559 625 1559 625 1546 506 c 128,-1,17
 1533 387 1533 387 1498.5 300 c 128,-1,18
 1464 213 1464 213 1403 164 c 128,-1,19
 1342 115 1342 115 1245 115 c 0,20,21
 1142 115 1142 115 1081 161.5 c 128,-1,22
 1020 208 1020 208 992 308 c 1,23,24
 957 214 957 214 897.5 165 c 128,-1,25
 838 116 838 116 764 116 c 0,26,27
 738 116 738 116 706 119.5 c 128,-1,28
 674 123 674 123 641 138 c 128,-1,29
 608 153 608 153 577 183.5 c 128,-1,30
 546 214 546 214 522 267 c 128,-1,31
 498 320 498 320 483.5 400 c 128,-1,32
 469 480 469 480 469 594 c 2,33,-1
 469 837 l 2,34,35
 469 940 469 940 482.5 1014.5 c 128,-1,36
 496 1089 496 1089 518.5 1140 c 128,-1,37
 541 1191 541 1191 570.5 1222.5 c 128,-1,38
 600 1254 600 1254 631 1271 c 128,-1,39
 662 1288 662 1288 692.5 1293.5 c 128,-1,40
 723 1299 723 1299 748 1299 c 0,41,42
 818 1299 818 1299 867 1263.5 c 128,-1,43
 916 1228 916 1228 948 1175 c 1,44,-1
 967 1284 l 1,45,-1
 1163 1284 l 1,46,-1
 1163 450 l 2,47,48
 1163 406 1163 406 1170.5 376.5 c 128,-1,49
 1178 347 1178 347 1191 330 c 128,-1,50
 1204 313 1204 313 1220.5 306 c 128,-1,51
 1237 299 1237 299 1254 299 c 0,52,53
 1276 299 1276 299 1296 312.5 c 128,-1,54
 1316 326 1316 326 1330 368 c 128,-1,55
 1344 410 1344 410 1352.5 488.5 c 128,-1,56
 1361 567 1361 567 1361 697 c 2,57,-1
 1361 977 l 2,58,59
 1361 1136 1361 1136 1335.5 1247.5 c 128,-1,60
 1310 1359 1310 1359 1268 1433.5 c 128,-1,61
 1226 1508 1226 1508 1171 1550.5 c 128,-1,62
 1116 1593 1116 1593 1056.5 1614 c 128,-1,63
 997 1635 997 1635 937 1640.5 c 128,-1,64
 877 1646 877 1646 825 1646 c 0,65,66
 772 1646 772 1646 712 1638.5 c 128,-1,67
 652 1631 652 1631 592 1606 c 128,-1,68
 532 1581 532 1581 477 1534.5 c 128,-1,69
 422 1488 422 1488 380 1410 c 128,-1,70
 338 1332 338 1332 312.5 1218 c 128,-1,71
 287 1104 287 1104 287 945 c 2,72,-1
 287 474 l 2,73,74
 287 311 287 311 314 196.5 c 128,-1,75
 341 82 341 82 386.5 5 c 128,-1,76
 432 -72 432 -72 492.5 -117 c 128,-1,77
 553 -162 553 -162 619 -184.5 c 128,-1,78
 685 -207 685 -207 753.5 -213 c 128,-1,79
 822 -219 822 -219 884 -219 c 0,80,81
 913 -219 913 -219 949 -216.5 c 128,-1,82
 985 -214 985 -214 1021.5 -208.5 c 128,-1,83
 1058 -203 1058 -203 1092.5 -195 c 128,-1,84
 1127 -187 1127 -187 1154 -176 c 1,85,-1
 1154 -336 l 1,86,87
 1134 -350 1134 -350 1098 -362 c 128,-1,88
 1062 -374 1062 -374 1017 -383 c 128,-1,89
 972 -392 972 -392 922.5 -397.5 c 128,-1,90
 873 -403 873 -403 827 -403 c 0,91,92
 763 -403 763 -403 683.5 -392 c 128,-1,93
 604 -381 604 -381 522 -347 c 128,-1,94
 440 -313 440 -313 362.5 -251 c 128,-1,95
 285 -189 285 -189 224.5 -87.5 c 128,-1,96
 164 14 164 14 127 161.5 c 128,-1,97
 90 309 90 309 90 513 c 2,98,-1
 90 945 l 2,0,1
821 312 m 0,99,100
 859 312 859 312 883 336.5 c 128,-1,101
 907 361 907 361 923 395 c 1,102,-1
 923 1017 l 1,103,104
 907 1055 907 1055 882.5 1080.5 c 128,-1,105
 858 1106 858 1106 822 1106 c 0,106,107
 800 1106 800 1106 779.5 1097 c 128,-1,108
 759 1088 759 1088 743.5 1062 c 128,-1,109
 728 1036 728 1036 718.5 988.5 c 128,-1,110
 709 941 709 941 709 864 c 2,111,-1
 709 546 l 2,112,113
 709 472 709 472 717 426.5 c 128,-1,114
 725 381 725 381 740 355.5 c 128,-1,115
 755 330 755 330 775.5 321 c 128,-1,116
 796 312 796 312 821 312 c 0,99,100
EndSplineSet
EndChar

StartChar: a
Encoding: 97 97 234
Width: 924
Flags: W
LayerCount: 2
Fore
SplineSet
320 -15 m 0,0,1
 256 -15 256 -15 206.5 10.5 c 128,-1,2
 157 36 157 36 123 80 c 128,-1,3
 89 124 89 124 71.5 184.5 c 128,-1,4
 54 245 54 245 54 316 c 0,5,6
 54 401 54 401 75 467 c 128,-1,7
 96 533 96 533 136.5 586 c 128,-1,8
 177 639 177 639 237 682.5 c 128,-1,9
 297 726 297 726 376 765 c 0,10,11
 414 784 414 784 461.5 803.5 c 128,-1,12
 509 823 509 823 546 837 c 1,13,-1
 546 1019 l 2,14,15
 546 1059 546 1059 543 1093.5 c 128,-1,16
 540 1128 540 1128 528.5 1153.5 c 128,-1,17
 517 1179 517 1179 494 1193.5 c 128,-1,18
 471 1208 471 1208 431 1208 c 0,19,20
 404 1208 404 1208 378.5 1198 c 128,-1,21
 353 1188 353 1188 333.5 1164 c 128,-1,22
 314 1140 314 1140 302.5 1100 c 128,-1,23
 291 1060 291 1060 291 1001 c 2,24,-1
 291 941 l 1,25,-1
 98 941 l 1,26,27
 89 980 89 980 84.5 1012.5 c 128,-1,28
 80 1045 80 1045 80 1077 c 0,29,30
 80 1154 80 1154 106.5 1213 c 128,-1,31
 133 1272 133 1272 180.5 1312 c 128,-1,32
 228 1352 228 1352 294 1372.5 c 128,-1,33
 360 1393 360 1393 439 1393 c 0,34,35
 542 1393 542 1393 610 1370.5 c 128,-1,36
 678 1348 678 1348 718.5 1303 c 128,-1,37
 759 1258 759 1258 775.5 1190 c 128,-1,38
 792 1122 792 1122 792 1031 c 2,39,-1
 792 0 l 1,40,-1
 604 0 l 1,41,-1
 586 118 l 1,42,43
 545 59 545 59 476.5 22 c 128,-1,44
 408 -15 408 -15 320 -15 c 0,0,1
302 355 m 0,45,46
 302 276 302 276 333 228 c 128,-1,47
 364 180 364 180 432 180 c 0,48,49
 464 180 464 180 494.5 196.5 c 128,-1,50
 525 213 525 213 546 237 c 1,51,-1
 546 668 l 1,52,53
 526 660 526 660 501 649 c 128,-1,54
 476 638 476 638 447 620 c 0,55,56
 420 603 420 603 394 579 c 128,-1,57
 368 555 368 555 347.5 522 c 128,-1,58
 327 489 327 489 314.5 447.5 c 128,-1,59
 302 406 302 406 302 355 c 0,45,46
EndSplineSet
Substitution2: "Single Substitution lookup 5 subtable" ordfeminine
Substitution2: "'aalt' Access All Alternates in Latin lookup 0 subtable" ordfeminine
EndChar

StartChar: copyright
Encoding: 169 169 236
Width: 1458
Flags: W
LayerCount: 2
Fore
SplineSet
104 1030 m 2,0,1
 104 1185 104 1185 134 1298 c 128,-1,2
 164 1411 164 1411 213.5 1490 c 128,-1,3
 263 1569 263 1569 328 1618 c 128,-1,4
 393 1667 393 1667 462.5 1694 c 128,-1,5
 532 1721 532 1721 602 1730.5 c 128,-1,6
 672 1740 672 1740 732 1740 c 0,7,8
 790 1740 790 1740 858.5 1731 c 128,-1,9
 927 1722 927 1722 996 1696 c 128,-1,10
 1065 1670 1065 1670 1130 1621.5 c 128,-1,11
 1195 1573 1195 1573 1244.5 1494 c 128,-1,12
 1294 1415 1294 1415 1324 1301 c 128,-1,13
 1354 1187 1354 1187 1354 1030 c 2,14,-1
 1354 694 l 2,15,16
 1354 537 1354 537 1324 423 c 128,-1,17
 1294 309 1294 309 1244 230 c 128,-1,18
 1194 151 1194 151 1129 103 c 128,-1,19
 1064 55 1064 55 995 29 c 128,-1,20
 926 3 926 3 857 -6 c 128,-1,21
 788 -15 788 -15 730 -15 c 0,22,23
 670 -15 670 -15 600.5 -5.5 c 128,-1,24
 531 4 531 4 461 31 c 128,-1,25
 391 58 391 58 327 106.5 c 128,-1,26
 263 155 263 155 213 234 c 128,-1,27
 163 313 163 313 133.5 426 c 128,-1,28
 104 539 104 539 104 694 c 2,29,-1
 104 1030 l 2,0,1
260 670 m 2,30,31
 260 547 260 547 282 458.5 c 128,-1,32
 304 370 304 370 341 309 c 128,-1,33
 378 248 378 248 426 210.5 c 128,-1,34
 474 173 474 173 526.5 153 c 128,-1,35
 579 133 579 133 631.5 126.5 c 128,-1,36
 684 120 684 120 730 120 c 0,37,38
 774 120 774 120 826 126 c 128,-1,39
 878 132 878 132 930.5 151.5 c 128,-1,40
 983 171 983 171 1031 208 c 128,-1,41
 1079 245 1079 245 1116.5 306 c 128,-1,42
 1154 367 1154 367 1176.5 456 c 128,-1,43
 1199 545 1199 545 1200 670 c 1,44,-1
 1200 1054 l 2,45,46
 1200 1179 1200 1179 1177.5 1268 c 128,-1,47
 1155 1357 1155 1357 1118 1418 c 128,-1,48
 1081 1479 1081 1479 1032.5 1516 c 128,-1,49
 984 1553 984 1553 932 1572.5 c 128,-1,50
 880 1592 880 1592 828 1598 c 128,-1,51
 776 1604 776 1604 732 1604 c 0,52,53
 686 1604 686 1604 633 1597.5 c 128,-1,54
 580 1591 580 1591 527.5 1571 c 128,-1,55
 475 1551 475 1551 427 1513.5 c 128,-1,56
 379 1476 379 1476 341.5 1415 c 128,-1,57
 304 1354 304 1354 282 1265.5 c 128,-1,58
 260 1177 260 1177 260 1054 c 2,59,-1
 260 670 l 2,30,31
756 292 m 0,60,61
 724 292 724 292 686.5 297 c 128,-1,62
 649 302 649 302 612 318.5 c 128,-1,63
 575 335 575 335 540.5 364.5 c 128,-1,64
 506 394 506 394 479.5 443.5 c 128,-1,65
 453 493 453 493 437 564.5 c 128,-1,66
 421 636 421 636 421 736 c 2,67,-1
 421 993 l 2,68,69
 421 1093 421 1093 437.5 1164.5 c 128,-1,70
 454 1236 454 1236 480.5 1284.5 c 128,-1,71
 507 1333 507 1333 542 1361.5 c 128,-1,72
 577 1390 577 1390 614 1405.5 c 128,-1,73
 651 1421 651 1421 687.5 1425.5 c 128,-1,74
 724 1430 724 1430 755 1430 c 0,75,76
 834 1430 834 1430 887.5 1406.5 c 128,-1,77
 941 1383 941 1383 973.5 1346.5 c 128,-1,78
 1006 1310 1006 1310 1020 1265.5 c 128,-1,79
 1034 1221 1034 1221 1034 1179 c 0,80,81
 1034 1136 1034 1136 1029 1100 c 128,-1,82
 1024 1064 1024 1064 1016 1020 c 1,83,-1
 852 1020 l 1,84,-1
 852 1076 l 2,85,86
 852 1169 852 1169 826 1216 c 128,-1,87
 800 1263 800 1263 750 1263 c 0,88,89
 723 1263 723 1263 701.5 1252 c 128,-1,90
 680 1241 680 1241 666 1215.5 c 128,-1,91
 652 1190 652 1190 644.5 1147 c 128,-1,92
 637 1104 637 1104 637 1040 c 2,93,-1
 637 673 l 2,94,95
 637 611 637 611 644.5 570 c 128,-1,96
 652 529 652 529 666.5 504 c 128,-1,97
 681 479 681 479 703.5 469 c 128,-1,98
 726 459 726 459 756 459 c 0,99,100
 798 459 798 459 825.5 495 c 128,-1,101
 853 531 853 531 853 611 c 2,102,-1
 853 696 l 1,103,-1
 1038 696 l 1,104,-1
 1038 622 l 2,105,106
 1038 461 1038 461 965.5 377 c 128,-1,107
 893 293 893 293 756 292 c 0,60,61
EndSplineSet
EndChar

StartChar: registered
Encoding: 174 174 237
Width: 1479
Flags: W
LayerCount: 2
Fore
SplineSet
740 184 m 0,0,1
 683 184 683 184 613.5 193.5 c 128,-1,2
 544 203 544 203 473.5 230 c 128,-1,3
 403 257 403 257 336.5 305 c 128,-1,4
 270 353 270 353 218.5 430 c 128,-1,5
 167 507 167 507 135.5 617.5 c 128,-1,6
 104 728 104 728 104 879 c 2,7,-1
 104 1045 l 2,8,9
 104 1196 104 1196 135.5 1306.5 c 128,-1,10
 167 1417 167 1417 219 1494.5 c 128,-1,11
 271 1572 271 1572 337.5 1620 c 128,-1,12
 404 1668 404 1668 475 1694.5 c 128,-1,13
 546 1721 546 1721 615.5 1730.5 c 128,-1,14
 685 1740 685 1740 742 1740 c 0,15,16
 797 1740 797 1740 865 1731 c 128,-1,17
 933 1722 933 1722 1003.5 1696.5 c 128,-1,18
 1074 1671 1074 1671 1140.5 1623.5 c 128,-1,19
 1207 1576 1207 1576 1259.5 1498.5 c 128,-1,20
 1312 1421 1312 1421 1343.5 1310 c 128,-1,21
 1375 1199 1375 1199 1375 1045 c 2,22,-1
 1375 879 l 2,23,24
 1375 725 1375 725 1343 614 c 128,-1,25
 1311 503 1311 503 1259 425.5 c 128,-1,26
 1207 348 1207 348 1140 300.5 c 128,-1,27
 1073 253 1073 253 1002 227.5 c 128,-1,28
 931 202 931 202 863 193 c 128,-1,29
 795 184 795 184 740 184 c 0,0,1
740 330 m 0,30,31
 787 330 787 330 841 336.5 c 128,-1,32
 895 343 895 343 948.5 363 c 128,-1,33
 1002 383 1002 383 1050.5 419.5 c 128,-1,34
 1099 456 1099 456 1136.5 516.5 c 128,-1,35
 1174 577 1174 577 1196.5 663.5 c 128,-1,36
 1219 750 1219 750 1220 871 c 1,37,-1
 1220 1053 l 2,38,39
 1220 1174 1220 1174 1198 1261 c 128,-1,40
 1176 1348 1176 1348 1138.5 1408 c 128,-1,41
 1101 1468 1101 1468 1052 1504.5 c 128,-1,42
 1003 1541 1003 1541 950 1561 c 128,-1,43
 897 1581 897 1581 843 1587.5 c 128,-1,44
 789 1594 789 1594 742 1594 c 0,45,46
 693 1594 693 1594 638 1587 c 128,-1,47
 583 1580 583 1580 529.5 1559.5 c 128,-1,48
 476 1539 476 1539 427.5 1501.5 c 128,-1,49
 379 1464 379 1464 341.5 1404 c 128,-1,50
 304 1344 304 1344 282 1258 c 128,-1,51
 260 1172 260 1172 260 1053 c 2,52,-1
 260 871 l 2,53,54
 260 752 260 752 282 666 c 128,-1,55
 304 580 304 580 341 520 c 128,-1,56
 378 460 378 460 426.5 422.5 c 128,-1,57
 475 385 475 385 528.5 364.5 c 128,-1,58
 582 344 582 344 636.5 337 c 128,-1,59
 691 330 691 330 740 330 c 0,30,31
478 1387 m 1,60,-1
 661 1387 l 2,61,62
 699 1387 699 1387 741 1385 c 128,-1,63
 783 1383 783 1383 824.5 1375 c 128,-1,64
 866 1367 866 1367 903.5 1351 c 128,-1,65
 941 1335 941 1335 970 1307 c 128,-1,66
 999 1279 999 1279 1016 1237 c 128,-1,67
 1033 1195 1033 1195 1033 1135 c 2,68,-1
 1033 1105 l 2,69,70
 1033 1030 1033 1030 1000 975.5 c 128,-1,71
 967 921 967 921 904 893 c 1,72,-1
 1091 562 l 1,73,-1
 884 562 l 1,74,-1
 756 842 l 1,75,-1
 661 842 l 1,76,-1
 661 562 l 1,77,-1
 478 562 l 1,78,-1
 478 1387 l 1,60,-1
692 968 m 2,79,80
 770 968 770 968 801.5 1000.5 c 128,-1,81
 833 1033 833 1033 833 1102 c 2,82,-1
 833 1144 l 2,83,84
 833 1171 833 1171 826 1192.5 c 128,-1,85
 819 1214 819 1214 803 1229.5 c 128,-1,86
 787 1245 787 1245 759.5 1253 c 128,-1,87
 732 1261 732 1261 692 1261 c 2,88,-1
 661 1261 l 1,89,-1
 661 968 l 1,90,-1
 692 968 l 2,79,80
EndSplineSet
EndChar

StartChar: ampersand
Encoding: 38 38 238
Width: 1211
Flags: W
LayerCount: 2
Fore
SplineSet
55 410 m 0,0,1
 55 495 55 495 83 570 c 128,-1,2
 111 645 111 645 151 708.5 c 128,-1,3
 191 772 191 772 235.5 823.5 c 128,-1,4
 280 875 280 875 313 913 c 1,5,-1
 340 942 l 1,6,-1
 306 1003 l 2,7,8
 280 1050 280 1050 256 1102 c 128,-1,9
 232 1154 232 1154 213.5 1208.5 c 128,-1,10
 195 1263 195 1263 184 1319.5 c 128,-1,11
 173 1376 173 1376 173 1432 c 0,12,13
 173 1519 173 1519 203 1589 c 128,-1,14
 233 1659 233 1659 284 1708 c 128,-1,15
 335 1757 335 1757 404 1783.5 c 128,-1,16
 473 1810 473 1810 551 1810 c 0,17,18
 653 1810 653 1810 719.5 1779 c 128,-1,19
 786 1748 786 1748 825 1701.5 c 128,-1,20
 864 1655 864 1655 879.5 1601.5 c 128,-1,21
 895 1548 895 1548 895 1502 c 0,22,23
 895 1409 895 1409 864.5 1329.5 c 128,-1,24
 834 1250 834 1250 791.5 1184.5 c 128,-1,25
 749 1119 749 1119 703 1067.5 c 128,-1,26
 657 1016 657 1016 626 980 c 2,27,-1
 604 955 l 1,28,-1
 862 486 l 1,29,30
 879 541 879 541 888.5 601 c 128,-1,31
 898 661 898 661 898 724 c 0,32,33
 898 757 898 757 897 785.5 c 128,-1,34
 896 814 896 814 894 841 c 1,35,-1
 1103 841 l 1,36,37
 1108 815 1108 815 1110.5 784.5 c 128,-1,38
 1113 754 1113 754 1113 724 c 0,39,40
 1113 605 1113 605 1075.5 492 c 128,-1,41
 1038 379 1038 379 974 283 c 1,42,-1
 1130 1 l 1,43,-1
 862 1 l 1,44,-1
 806 101 l 1,45,46
 734 46 734 46 654 15 c 128,-1,47
 574 -16 574 -16 491 -16 c 0,48,49
 395 -16 395 -16 315 12.5 c 128,-1,50
 235 41 235 41 177 95 c 128,-1,51
 119 149 119 149 87 228.5 c 128,-1,52
 55 308 55 308 55 410 c 0,0,1
528 1143 m 1,53,54
 548 1166 548 1166 573.5 1197 c 128,-1,55
 599 1228 599 1228 622 1267 c 128,-1,56
 645 1306 645 1306 661 1354 c 128,-1,57
 677 1402 677 1402 677 1458 c 0,58,59
 677 1496 677 1496 666.5 1524 c 128,-1,60
 656 1552 656 1552 638.5 1570 c 128,-1,61
 621 1588 621 1588 598.5 1597 c 128,-1,62
 576 1606 576 1606 551 1606 c 0,63,64
 528 1606 528 1606 503 1597.5 c 128,-1,65
 478 1589 478 1589 457.5 1569 c 128,-1,66
 437 1549 437 1549 423.5 1515.5 c 128,-1,67
 410 1482 410 1482 410 1432 c 0,68,69
 410 1398 410 1398 415.5 1365.5 c 128,-1,70
 421 1333 421 1333 433 1296.5 c 128,-1,71
 445 1260 445 1260 464.5 1218.5 c 128,-1,72
 484 1177 484 1177 511 1125 c 1,73,-1
 528 1143 l 1,53,54
312 445 m 0,74,75
 312 397 312 397 325.5 349.5 c 128,-1,76
 339 302 339 302 367.5 264.5 c 128,-1,77
 396 227 396 227 440.5 203.5 c 128,-1,78
 485 180 485 180 546 180 c 0,79,80
 596 180 596 180 639.5 200 c 128,-1,81
 683 220 683 220 720 256 c 1,82,-1
 436 768 l 1,83,84
 376 693 376 693 344 610.5 c 128,-1,85
 312 528 312 528 312 445 c 0,74,75
EndSplineSet
EndChar

StartChar: ordfeminine
Encoding: 170 170 239
Width: 836
Flags: W
LayerCount: 2
Fore
SplineSet
309 649 m 0,0,1
 244 649 244 649 198.5 671 c 128,-1,2
 153 693 153 693 124 729 c 128,-1,3
 95 765 95 765 82 811 c 128,-1,4
 69 857 69 857 69 905 c 0,5,6
 69 988 69 988 101.5 1049.5 c 128,-1,7
 134 1111 134 1111 181.5 1155 c 128,-1,8
 229 1199 229 1199 283.5 1228.5 c 128,-1,9
 338 1258 338 1258 383 1276 c 0,10,11
 402 1284 402 1284 434.5 1297.5 c 128,-1,12
 467 1311 467 1311 499 1320 c 1,13,-1
 499 1479 l 2,14,15
 499 1533 499 1533 480 1565 c 128,-1,16
 461 1597 461 1597 408 1597 c 0,17,18
 381 1597 381 1597 358.5 1589 c 128,-1,19
 336 1581 336 1581 320 1562 c 128,-1,20
 304 1543 304 1543 295 1513 c 128,-1,21
 286 1483 286 1483 286 1438 c 2,22,-1
 286 1392 l 1,23,-1
 104 1392 l 1,24,25
 96 1430 96 1430 93 1457.5 c 128,-1,26
 90 1485 90 1485 90 1514 c 0,27,28
 90 1560 90 1560 108 1604 c 128,-1,29
 126 1648 126 1648 164.5 1683 c 128,-1,30
 203 1718 203 1718 263.5 1739.5 c 128,-1,31
 324 1761 324 1761 409 1761 c 0,32,33
 510 1761 510 1761 572 1736 c 128,-1,34
 634 1711 634 1711 668.5 1670 c 128,-1,35
 703 1629 703 1629 715 1577.5 c 128,-1,36
 727 1526 727 1526 727 1472 c 2,37,-1
 727 668 l 1,38,-1
 555 668 l 1,39,-1
 538 740 l 1,40,41
 520 722 520 722 494.5 705.5 c 128,-1,42
 469 689 469 689 438.5 676.5 c 128,-1,43
 408 664 408 664 375 656.5 c 128,-1,44
 342 649 342 649 309 649 c 0,0,1
400 814 m 0,45,46
 431 814 431 814 455.5 825 c 128,-1,47
 480 836 480 836 499 852 c 1,48,-1
 499 1175 l 1,49,50
 482 1169 482 1169 470 1165 c 128,-1,51
 458 1161 458 1161 433 1150 c 1,52,53
 410 1141 410 1141 384 1123.5 c 128,-1,54
 358 1106 358 1106 336.5 1080.5 c 128,-1,55
 315 1055 315 1055 301 1022 c 128,-1,56
 287 989 287 989 287 949 c 0,57,58
 287 889 287 889 316.5 851.5 c 128,-1,59
 346 814 346 814 400 814 c 0,45,46
EndSplineSet
EndChar

StartChar: ordmasculine
Encoding: 186 186 240
Width: 919
Flags: W
LayerCount: 2
Fore
SplineSet
471 666 m 256,0,1
 435 666 435 666 395 672.5 c 128,-1,2
 355 679 355 679 317 695.5 c 128,-1,3
 279 712 279 712 244.5 739 c 128,-1,4
 210 766 210 766 184 807.5 c 128,-1,5
 158 849 158 849 142.5 906 c 128,-1,6
 127 963 127 963 127 1039 c 2,7,-1
 127 1389 l 2,8,9
 127 1502 127 1502 160 1574.5 c 128,-1,10
 193 1647 193 1647 244 1688.5 c 128,-1,11
 295 1730 295 1730 355.5 1745.5 c 128,-1,12
 416 1761 416 1761 471 1761 c 0,13,14
 507 1761 507 1761 546.5 1754.5 c 128,-1,15
 586 1748 586 1748 624 1731.5 c 128,-1,16
 662 1715 662 1715 696.5 1687.5 c 128,-1,17
 731 1660 731 1660 757 1618.5 c 128,-1,18
 783 1577 783 1577 798.5 1520 c 128,-1,19
 814 1463 814 1463 814 1387 c 2,20,-1
 814 1040 l 2,21,22
 814 964 814 964 798.5 907 c 128,-1,23
 783 850 783 850 757 808.5 c 128,-1,24
 731 767 731 767 696.5 739.5 c 128,-1,25
 662 712 662 712 624 695.5 c 128,-1,26
 586 679 586 679 546.5 672.5 c 128,-1,27
 507 666 507 666 471 666 c 256,0,1
471 830 m 256,28,29
 542 830 542 830 567.5 882 c 128,-1,30
 593 934 593 934 593 1039 c 2,31,-1
 593 1387 l 2,32,33
 593 1493 593 1493 567.5 1545 c 128,-1,34
 542 1597 542 1597 471 1597 c 256,35,36
 400 1597 400 1597 374 1545.5 c 128,-1,37
 348 1494 348 1494 348 1389 c 2,38,-1
 348 1040 l 2,39,40
 348 933 348 933 374 881.5 c 128,-1,41
 400 830 400 830 471 830 c 256,28,29
EndSplineSet
EndChar

StartChar: trademark
Encoding: 8482 8482 241
Width: 1597
Flags: W
LayerCount: 2
Fore
SplineSet
686 1725 m 1,0,-1
 913 1725 l 1,1,-1
 1039 1362 l 1,2,-1
 1073 1249 l 1,3,-1
 1089 1249 l 1,4,-1
 1124 1362 l 1,5,-1
 1261 1725 l 1,6,-1
 1465 1725 l 1,7,-1
 1465 873 l 1,8,-1
 1288 873 l 1,9,-1
 1288 959 l 2,10,11
 1288 1037 1288 1037 1289 1097 c 128,-1,12
 1290 1157 1290 1157 1291.5 1204.5 c 128,-1,13
 1293 1252 1293 1252 1295.5 1288 c 128,-1,14
 1298 1324 1298 1324 1300 1354.5 c 128,-1,15
 1302 1385 1302 1385 1304.5 1411 c 128,-1,16
 1307 1437 1307 1437 1309 1464 c 1,17,-1
 1303 1464 l 1,18,-1
 1137 997 l 1,19,-1
 1024 997 l 1,20,-1
 849 1464 l 1,21,-1
 842 1464 l 1,22,23
 844 1437 844 1437 846.5 1411 c 128,-1,24
 849 1385 849 1385 851 1354.5 c 128,-1,25
 853 1324 853 1324 855.5 1288 c 128,-1,26
 858 1252 858 1252 859.5 1204.5 c 128,-1,27
 861 1157 861 1157 862 1097 c 128,-1,28
 863 1037 863 1037 863 959 c 2,29,-1
 863 873 l 1,30,-1
 686 873 l 1,31,-1
 686 1725 l 1,0,-1
218 1566 m 1,32,-1
 40 1566 l 1,33,-1
 41 1725 l 1,34,-1
 574 1725 l 1,35,-1
 574 1566 l 1,36,-1
 396 1566 l 1,37,-1
 396 873 l 1,38,-1
 218 873 l 1,39,-1
 218 1566 l 1,32,-1
EndSplineSet
EndChar

StartChar: guilsinglleft
Encoding: 8249 8249 242
Width: 834
Flags: W
LayerCount: 2
Fore
SplineSet
144 717 m 1,0,-1
 144 867 l 1,1,-1
 533 1273 l 1,2,-1
 670 1149 l 1,3,-1
 387 790 l 1,4,-1
 666 430 l 1,5,-1
 529 305 l 1,6,-1
 144 717 l 1,0,-1
EndSplineSet
EndChar

StartChar: perthousand
Encoding: 8240 8240 250
Width: 2676
Flags: W
LayerCount: 2
Fore
SplineSet
1877 527 m 2,0,1
 1877 664 1877 664 1907.5 746.5 c 128,-1,2
 1938 829 1938 829 1985.5 873.5 c 128,-1,3
 2033 918 2033 918 2090 932.5 c 128,-1,4
 2147 947 2147 947 2200 947 c 0,5,6
 2234 947 2234 947 2271 941.5 c 128,-1,7
 2308 936 2308 936 2343.5 920 c 128,-1,8
 2379 904 2379 904 2411 875.5 c 128,-1,9
 2443 847 2443 847 2467 800 c 128,-1,10
 2491 753 2491 753 2505 686 c 128,-1,11
 2519 619 2519 619 2519 527 c 2,12,-1
 2519 420 l 2,13,14
 2519 328 2519 328 2504.5 260 c 128,-1,15
 2490 192 2490 192 2465.5 144 c 128,-1,16
 2441 96 2441 96 2409 65 c 128,-1,17
 2377 34 2377 34 2341.5 16 c 128,-1,18
 2306 -2 2306 -2 2269 -8.5 c 128,-1,19
 2232 -15 2232 -15 2199 -15 c 0,20,21
 2161 -15 2161 -15 2122.5 -8.5 c 128,-1,22
 2084 -2 2084 -2 2048.5 15 c 128,-1,23
 2013 32 2013 32 1981.5 63 c 128,-1,24
 1950 94 1950 94 1927 142 c 128,-1,25
 1904 190 1904 190 1890.5 258.5 c 128,-1,26
 1877 327 1877 327 1877 420 c 2,27,-1
 1877 527 l 2,0,1
2082 368 m 2,28,29
 2082 253 2082 253 2108.5 198.5 c 128,-1,30
 2135 144 2135 144 2201 144 c 0,31,32
 2264 144 2264 144 2289 198.5 c 128,-1,33
 2314 253 2314 253 2314 368 c 2,34,-1
 2314 562 l 2,35,36
 2314 678 2314 678 2289 733 c 128,-1,37
 2264 788 2264 788 2201 788 c 0,38,39
 2135 788 2135 788 2108.5 733 c 128,-1,40
 2082 678 2082 678 2082 562 c 2,41,-1
 2082 368 l 2,28,29
479 786 m 0,42,43
 422 786 422 786 364.5 802 c 128,-1,44
 307 818 307 818 260.5 864.5 c 128,-1,45
 214 911 214 911 185 996.5 c 128,-1,46
 156 1082 156 1082 156 1221 c 2,47,-1
 156 1328 l 2,48,49
 156 1419 156 1419 170 1485.5 c 128,-1,50
 184 1552 184 1552 208.5 1599 c 128,-1,51
 233 1646 233 1646 265 1675 c 128,-1,52
 297 1704 297 1704 333 1720 c 128,-1,53
 369 1736 369 1736 406.5 1742 c 128,-1,54
 444 1748 444 1748 480 1748 c 0,55,56
 514 1748 514 1748 551 1742.5 c 128,-1,57
 588 1737 588 1737 623.5 1721 c 128,-1,58
 659 1705 659 1705 691 1676.5 c 128,-1,59
 723 1648 723 1648 747 1601 c 128,-1,60
 771 1554 771 1554 785 1487 c 128,-1,61
 799 1420 799 1420 799 1328 c 2,62,-1
 799 1221 l 2,63,64
 799 1084 799 1084 768 998.5 c 128,-1,65
 737 913 737 913 689.5 866 c 128,-1,66
 642 819 642 819 585.5 802.5 c 128,-1,67
 529 786 529 786 479 786 c 0,42,43
1085 1727 m 1,68,-1
 1266 1727 l 1,69,-1
 807 0 l 1,70,-1
 625 0 l 1,71,-1
 1085 1727 l 1,68,-1
481 945 m 0,72,73
 544 945 544 945 569 999.5 c 128,-1,74
 594 1054 594 1054 594 1169 c 2,75,-1
 594 1363 l 2,76,77
 594 1479 594 1479 569 1534 c 128,-1,78
 544 1589 544 1589 481 1589 c 0,79,80
 415 1589 415 1589 388.5 1534 c 128,-1,81
 362 1479 362 1479 362 1363 c 2,82,-1
 362 1169 l 2,83,84
 362 1054 362 1054 388.5 999.5 c 128,-1,85
 415 945 415 945 481 945 c 0,72,73
1087 527 m 2,86,87
 1087 664 1087 664 1117.5 746.5 c 128,-1,88
 1148 829 1148 829 1195.5 873.5 c 128,-1,89
 1243 918 1243 918 1300 932.5 c 128,-1,90
 1357 947 1357 947 1410 947 c 0,91,92
 1444 947 1444 947 1481 941.5 c 128,-1,93
 1518 936 1518 936 1553.5 920 c 128,-1,94
 1589 904 1589 904 1621 875.5 c 128,-1,95
 1653 847 1653 847 1677 800 c 128,-1,96
 1701 753 1701 753 1715 686 c 128,-1,97
 1729 619 1729 619 1729 527 c 2,98,-1
 1729 420 l 2,99,100
 1729 328 1729 328 1714.5 260 c 128,-1,101
 1700 192 1700 192 1675.5 144 c 128,-1,102
 1651 96 1651 96 1619 65 c 128,-1,103
 1587 34 1587 34 1551.5 16 c 128,-1,104
 1516 -2 1516 -2 1479 -8.5 c 128,-1,105
 1442 -15 1442 -15 1409 -15 c 0,106,107
 1371 -15 1371 -15 1332.5 -8.5 c 128,-1,108
 1294 -2 1294 -2 1258.5 15 c 128,-1,109
 1223 32 1223 32 1191.5 63 c 128,-1,110
 1160 94 1160 94 1137 142 c 128,-1,111
 1114 190 1114 190 1100.5 258.5 c 128,-1,112
 1087 327 1087 327 1087 420 c 2,113,-1
 1087 527 l 2,86,87
1292 368 m 2,114,115
 1292 253 1292 253 1318.5 198.5 c 128,-1,116
 1345 144 1345 144 1411 144 c 0,117,118
 1474 144 1474 144 1499 198.5 c 128,-1,119
 1524 253 1524 253 1524 368 c 2,120,-1
 1524 562 l 2,121,122
 1524 678 1524 678 1499 733 c 128,-1,123
 1474 788 1474 788 1411 788 c 0,124,125
 1345 788 1345 788 1318.5 733 c 128,-1,126
 1292 678 1292 678 1292 562 c 2,127,-1
 1292 368 l 2,114,115
EndSplineSet
Ligature2: "'frac' Diagonal Fractions in Latin lookup 4 subtable" zero slash zero zero
EndChar

StartChar: florin
Encoding: 402 402 251
Width: 616
Flags: W
LayerCount: 2
Fore
SplineSet
153 961 m 1,0,-1
 38 961 l 1,1,-1
 38 1153 l 1,2,-1
 153 1153 l 1,3,-1
 153 1476 l 2,4,5
 153 1588 153 1588 176.5 1658.5 c 128,-1,6
 200 1729 200 1729 241.5 1768.5 c 128,-1,7
 283 1808 283 1808 338 1822 c 128,-1,8
 393 1836 393 1836 456 1836 c 0,9,10
 474 1836 474 1836 496.5 1834 c 128,-1,11
 519 1832 519 1832 541.5 1827.5 c 128,-1,12
 564 1823 564 1823 585.5 1817 c 128,-1,13
 607 1811 607 1811 624 1802 c 1,14,-1
 624 1624 l 1,15,16
 582 1635 582 1635 530 1635 c 0,17,18
 505 1635 505 1635 482.5 1627 c 128,-1,19
 460 1619 460 1619 443 1600.5 c 128,-1,20
 426 1582 426 1582 416 1551.5 c 128,-1,21
 406 1521 406 1521 406 1476 c 2,22,-1
 406 1153 l 1,23,-1
 607 1153 l 1,24,-1
 607 961 l 1,25,-1
 406 961 l 1,26,-1
 406 -59 l 2,27,28
 406 -171 406 -171 382.5 -241.5 c 128,-1,29
 359 -312 359 -312 317.5 -351.5 c 128,-1,30
 276 -391 276 -391 221 -405 c 128,-1,31
 166 -419 166 -419 103 -419 c 0,32,33
 85 -419 85 -419 62.5 -417 c 128,-1,34
 40 -415 40 -415 17.5 -410.5 c 128,-1,35
 -5 -406 -5 -406 -26.5 -400 c 128,-1,36
 -48 -394 -48 -394 -65 -385 c 1,37,-1
 -65 -207 l 1,38,39
 -23 -218 -23 -218 29 -218 c 0,40,41
 54 -218 54 -218 76.5 -210 c 128,-1,42
 99 -202 99 -202 116 -183.5 c 128,-1,43
 133 -165 133 -165 143 -134.5 c 128,-1,44
 153 -104 153 -104 153 -59 c 2,45,-1
 153 961 l 1,0,-1
EndSplineSet
EndChar

StartChar: dagger
Encoding: 8224 8224 252
Width: 452
Flags: W
LayerCount: 2
Fore
SplineSet
116 1155 m 1,0,-1
 -146 1155 l 1,1,-1
 -146 1356 l 1,2,-1
 116 1356 l 1,3,-1
 116 1865 l 1,4,-1
 336 1865 l 1,5,-1
 336 1356 l 1,6,-1
 599 1356 l 1,7,-1
 599 1155 l 1,8,-1
 336 1155 l 1,9,-1
 336 -323 l 1,10,-1
 116 -323 l 1,11,-1
 116 1155 l 1,0,-1
EndSplineSet
EndChar

StartChar: daggerdbl
Encoding: 8225 8225 253
Width: 452
Flags: W
LayerCount: 2
Fore
SplineSet
116 628 m 1,0,-1
 -146 628 l 1,1,-1
 -146 829 l 1,2,-1
 116 829 l 1,3,-1
 116 1155 l 1,4,-1
 -146 1155 l 1,5,-1
 -146 1356 l 1,6,-1
 116 1356 l 1,7,-1
 116 1865 l 1,8,-1
 336 1865 l 1,9,-1
 336 1356 l 1,10,-1
 598 1356 l 1,11,-1
 598 1155 l 1,12,-1
 336 1155 l 1,13,-1
 336 829 l 1,14,-1
 598 829 l 1,15,-1
 598 628 l 1,16,-1
 336 628 l 1,17,-1
 336 -323 l 1,18,-1
 116 -323 l 1,19,-1
 116 628 l 1,0,-1
EndSplineSet
EndChar

StartChar: integral
Encoding: 8747 8747 255
Width: 616
Flags: W
LayerCount: 2
Fore
SplineSet
153 1476 m 2,0,1
 153 1588 153 1588 176.5 1658.5 c 128,-1,2
 200 1729 200 1729 241.5 1768.5 c 128,-1,3
 283 1808 283 1808 338 1822 c 128,-1,4
 393 1836 393 1836 456 1836 c 0,5,6
 474 1836 474 1836 496.5 1834 c 128,-1,7
 519 1832 519 1832 541.5 1827.5 c 128,-1,8
 564 1823 564 1823 585.5 1817 c 128,-1,9
 607 1811 607 1811 624 1802 c 1,10,-1
 624 1624 l 1,11,12
 582 1635 582 1635 530 1635 c 0,13,14
 505 1635 505 1635 482.5 1627 c 128,-1,15
 460 1619 460 1619 443 1600.5 c 128,-1,16
 426 1582 426 1582 416 1551.5 c 128,-1,17
 406 1521 406 1521 406 1476 c 2,18,-1
 406 -59 l 2,19,20
 406 -171 406 -171 382.5 -241.5 c 128,-1,21
 359 -312 359 -312 317.5 -351.5 c 128,-1,22
 276 -391 276 -391 221 -405 c 128,-1,23
 166 -419 166 -419 103 -419 c 0,24,25
 85 -419 85 -419 62.5 -417 c 128,-1,26
 40 -415 40 -415 17.5 -410.5 c 128,-1,27
 -5 -406 -5 -406 -26.5 -400 c 128,-1,28
 -48 -394 -48 -394 -65 -385 c 1,29,-1
 -65 -207 l 1,30,31
 -23 -218 -23 -218 29 -218 c 0,32,33
 54 -218 54 -218 76.5 -210 c 128,-1,34
 99 -202 99 -202 116 -183.5 c 128,-1,35
 133 -165 133 -165 143 -134.5 c 128,-1,36
 153 -104 153 -104 153 -59 c 2,37,-1
 153 1476 l 2,0,1
EndSplineSet
EndChar

StartChar: dotaccent
Encoding: 729 729 257
Width: 521
Flags: W
LayerCount: 2
Fore
SplineSet
265 1574 m 0,0,1
 195 1574 195 1574 154.5 1616 c 128,-1,2
 114 1658 114 1658 114 1739 c 0,3,4
 114 1784 114 1784 124.5 1814.5 c 128,-1,5
 135 1845 135 1845 154.5 1863.5 c 128,-1,6
 174 1882 174 1882 202 1890.5 c 128,-1,7
 230 1899 230 1899 266 1899 c 0,8,9
 341 1899 341 1899 380 1861 c 128,-1,10
 419 1823 419 1823 419 1739 c 0,11,12
 419 1661 419 1661 379.5 1617.5 c 128,-1,13
 340 1574 340 1574 265 1574 c 0,0,1
EndSplineSet
EndChar

StartChar: notequal
Encoding: 8800 8800 258
Width: 916
Flags: W
LayerCount: 2
Fore
SplineSet
261 488 m 1,0,-1
 86 488 l 1,1,-1
 86 683 l 1,2,-1
 320 683 l 1,3,-1
 383 895 l 1,4,-1
 86 895 l 1,5,-1
 86 1090 l 1,6,-1
 442 1090 l 1,7,-1
 526 1369 l 1,8,-1
 685 1369 l 1,9,-1
 601 1090 l 1,10,-1
 830 1090 l 1,11,-1
 830 895 l 1,12,-1
 542 895 l 1,13,-1
 479 683 l 1,14,-1
 830 683 l 1,15,-1
 830 488 l 1,16,-1
 420 488 l 1,17,-1
 334 200 l 1,18,-1
 175 200 l 1,19,-1
 261 488 l 1,0,-1
EndSplineSet
EndChar

StartChar: radical
Encoding: 8730 8730 259
Width: 1033
Flags: W
LayerCount: 2
Fore
SplineSet
175 994 m 1,0,-1
 31 994 l 1,1,-1
 31 1190 l 1,2,-1
 378 1190 l 1,3,-1
 519 642 l 1,4,-1
 552 350 l 1,5,-1
 560 350 l 1,6,-1
 598 642 l 1,7,-1
 879 2061 l 1,8,-1
 1123 2061 l 1,9,-1
 660 0 l 1,10,-1
 444 0 l 1,11,-1
 175 994 l 1,0,-1
EndSplineSet
EndChar

StartChar: fraction
Encoding: 8260 8260 261
Width: 452
Flags: W
LayerCount: 2
Fore
SplineSet
-94 0 m 1,0,-1
 365 1709 l 1,1,-1
 547 1709 l 1,2,-1
 88 0 l 1,3,-1
 -94 0 l 1,0,-1
EndSplineSet
EndChar

StartChar: f_f
Encoding: 64256 64256 263
Width: 1239
Flags: W
LayerCount: 2
Fore
SplineSet
164 1185 m 1,0,-1
 45 1185 l 1,1,-1
 45 1377 l 1,2,-1
 164 1377 l 1,3,-1
 164 1466 l 2,4,5
 164 1578 164 1578 187 1648.5 c 128,-1,6
 210 1719 210 1719 250.5 1758.5 c 128,-1,7
 291 1798 291 1798 345.5 1812 c 128,-1,8
 400 1826 400 1826 463 1826 c 0,9,10
 481 1826 481 1826 503.5 1824 c 128,-1,11
 526 1822 526 1822 548.5 1817.5 c 128,-1,12
 571 1813 571 1813 592.5 1807 c 128,-1,13
 614 1801 614 1801 631 1792 c 1,14,-1
 631 1614 l 1,15,16
 589 1625 589 1625 537 1625 c 0,17,18
 512 1625 512 1625 489.5 1617 c 128,-1,19
 467 1609 467 1609 450 1590.5 c 128,-1,20
 433 1572 433 1572 423 1541.5 c 128,-1,21
 413 1511 413 1511 413 1466 c 2,22,-1
 413 1377 l 1,23,-1
 604 1377 l 1,24,-1
 604 1185 l 1,25,-1
 413 1185 l 1,26,-1
 413 0 l 1,27,-1
 164 0 l 1,28,-1
 164 1185 l 1,0,-1
787 1197 m 1,29,-1
 668 1197 l 1,30,-1
 668 1377 l 1,31,-1
 787 1377 l 1,32,-1
 787 1476 l 2,33,34
 787 1588 787 1588 810 1658.5 c 128,-1,35
 833 1729 833 1729 873.5 1768.5 c 128,-1,36
 914 1808 914 1808 968.5 1822 c 128,-1,37
 1023 1836 1023 1836 1086 1836 c 0,38,39
 1104 1836 1104 1836 1126.5 1834 c 128,-1,40
 1149 1832 1149 1832 1171.5 1827.5 c 128,-1,41
 1194 1823 1194 1823 1215.5 1817 c 128,-1,42
 1237 1811 1237 1811 1254 1802 c 1,43,-1
 1254 1624 l 1,44,45
 1212 1635 1212 1635 1160 1635 c 0,46,47
 1135 1635 1135 1635 1112.5 1627 c 128,-1,48
 1090 1619 1090 1619 1073 1600.5 c 128,-1,49
 1056 1582 1056 1582 1046 1551.5 c 128,-1,50
 1036 1521 1036 1521 1036 1476 c 2,51,-1
 1036 1377 l 1,52,-1
 1227 1377 l 1,53,-1
 1227 1197 l 1,54,-1
 1036 1197 l 1,55,-1
 1036 0 l 1,56,-1
 787 0 l 1,57,-1
 787 1197 l 1,29,-1
EndSplineSet
Ligature2: "'liga' Standard Ligatures in Latin lookup 3 subtable" f f
EndChar

StartChar: f_i
Encoding: 64257 64257 264
Width: 1144
Flags: W
LayerCount: 2
Fore
SplineSet
164 1185 m 1,0,-1
 45 1185 l 1,1,-1
 45 1377 l 1,2,-1
 164 1377 l 1,3,-1
 164 1476 l 2,4,5
 164 1588 164 1588 186.5 1658.5 c 128,-1,6
 209 1729 209 1729 248 1768.5 c 128,-1,7
 287 1808 287 1808 339.5 1822 c 128,-1,8
 392 1836 392 1836 453 1836 c 0,9,10
 470 1836 470 1836 491 1834 c 128,-1,11
 512 1832 512 1832 533 1827.5 c 128,-1,12
 554 1823 554 1823 574.5 1817 c 128,-1,13
 595 1811 595 1811 611 1802 c 1,14,-1
 611 1624 l 1,15,16
 573 1635 573 1635 527 1635 c 0,17,18
 504 1635 504 1635 483.5 1627 c 128,-1,19
 463 1619 463 1619 447 1600.5 c 128,-1,20
 431 1582 431 1582 422 1551.5 c 128,-1,21
 413 1521 413 1521 413 1476 c 2,22,-1
 413 1377 l 1,23,-1
 604 1377 l 1,24,-1
 604 1185 l 1,25,-1
 413 1185 l 1,26,-1
 413 0 l 1,27,-1
 164 0 l 1,28,-1
 164 1185 l 1,0,-1
888 1574 m 0,29,30
 818 1574 818 1574 777.5 1616 c 128,-1,31
 737 1658 737 1658 737 1739 c 0,32,33
 737 1784 737 1784 747.5 1814.5 c 128,-1,34
 758 1845 758 1845 777.5 1863.5 c 128,-1,35
 797 1882 797 1882 825 1890.5 c 128,-1,36
 853 1899 853 1899 889 1899 c 0,37,38
 964 1899 964 1899 1003 1861 c 128,-1,39
 1042 1823 1042 1823 1042 1739 c 0,40,41
 1042 1661 1042 1661 1002.5 1617.5 c 128,-1,42
 963 1574 963 1574 888 1574 c 0,29,30
757 1377 m 1,43,-1
 1010 1377 l 1,44,-1
 1010 0 l 1,45,-1
 757 0 l 1,46,-1
 757 1377 l 1,43,-1
EndSplineSet
Ligature2: "'liga' Standard Ligatures in Latin lookup 3 subtable" f i
EndChar

StartChar: f_l
Encoding: 64258 64258 265
Width: 1147
Flags: W
LayerCount: 2
Fore
SplineSet
164 1185 m 1,0,-1
 45 1185 l 1,1,-1
 45 1377 l 1,2,-1
 164 1377 l 1,3,-1
 164 1476 l 2,4,5
 164 1588 164 1588 186.5 1658.5 c 128,-1,6
 209 1729 209 1729 248 1768.5 c 128,-1,7
 287 1808 287 1808 339.5 1822 c 128,-1,8
 392 1836 392 1836 453 1836 c 0,9,10
 470 1836 470 1836 491 1834 c 128,-1,11
 512 1832 512 1832 533 1827.5 c 128,-1,12
 554 1823 554 1823 574.5 1817 c 128,-1,13
 595 1811 595 1811 611 1802 c 1,14,-1
 611 1624 l 1,15,16
 573 1635 573 1635 527 1635 c 0,17,18
 504 1635 504 1635 483.5 1627 c 128,-1,19
 463 1619 463 1619 447 1600.5 c 128,-1,20
 431 1582 431 1582 422 1551.5 c 128,-1,21
 413 1521 413 1521 413 1476 c 2,22,-1
 413 1377 l 1,23,-1
 604 1377 l 1,24,-1
 604 1185 l 1,25,-1
 413 1185 l 1,26,-1
 413 0 l 1,27,-1
 164 0 l 1,28,-1
 164 1185 l 1,0,-1
760 1819 m 1,29,-1
 1013 1819 l 1,30,-1
 1013 0 l 1,31,-1
 760 0 l 1,32,-1
 760 1819 l 1,29,-1
EndSplineSet
Ligature2: "'liga' Standard Ligatures in Latin lookup 3 subtable" f l
EndChar

StartChar: n
Encoding: 110 110 276
Width: 1020
Flags: W
LayerCount: 2
Fore
SplineSet
130 1377 m 1,0,-1
 325 1377 l 1,1,-1
 348 1230 l 1,2,-1
 348 1229 l 1,3,4
 378 1276 378 1276 412.5 1307.5 c 128,-1,5
 447 1339 447 1339 484 1358 c 128,-1,6
 521 1377 521 1377 559.5 1385 c 128,-1,7
 598 1393 598 1393 636 1393 c 0,8,9
 757 1393 757 1393 822.5 1308.5 c 128,-1,10
 888 1224 888 1224 888 1055 c 2,11,-1
 888 0 l 1,12,-1
 635 0 l 1,13,-1
 635 1046 l 2,14,15
 635 1137 635 1137 607 1172.5 c 128,-1,16
 579 1208 579 1208 525 1208 c 0,17,18
 487 1208 487 1208 449.5 1183 c 128,-1,19
 412 1158 412 1158 383 1114 c 1,20,-1
 383 0 l 1,21,-1
 130 0 l 1,22,-1
 130 1377 l 1,0,-1
EndSplineSet
EndChar
